ISO-10303-21;
HEADER;
/* Generated by software containing ST-Developer
 * from STEP Tools, Inc. (www.steptools.com) 
 */
/* OPTION: using custom renumber hook */

FILE_DESCRIPTION(
/* description */ ('STEP AP242 Edition 2',
'CAx-IF Rec.Pracs.---Representation and Presentation of Product Manufa
cturing Information (PMI)---4.0---2014-10-13',
'CAx-IF Rec.Pracs.---3D Tessellated Geometry---0.4---2014-09-14','2;1',
'CAx-IF Rec.Pracs.---User Defined Attributes---1.5---2016-08-15'),
/* implementation_level */ '2;1');

FILE_NAME(
/* name */ 'Peripheral Models - LiPo 706292',
/* time_stamp */ '2026-10-07T20:42:55Z',
/* author */ (''),
/* organization */ (''),
/* preprocessor_version */ 'ST-DEVELOPER v20',
/* originating_system */ 'ONSHAPE BY PTC INC, 1.221',
/* authorisation */ '  ');

FILE_SCHEMA (('AP242_MANAGED_MODEL_BASED_3D_ENGINEERING_MIM_LF { 1 0 10303 442 3 1 4 }'));
ENDSEC;

DATA;
#10=SHAPE_REPRESENTATION_RELATIONSHIP('','',#209,#11);
#11=ADVANCED_BREP_SHAPE_REPRESENTATION('',(#207),#347);
#12=ELLIPSE('',#222,0.00424264068711928,0.003);
#13=ELLIPSE('',#224,0.00424264068711928,0.003);
#14=ELLIPSE('',#227,0.00424264068711928,0.003);
#15=ELLIPSE('',#229,0.00424264068711928,0.003);
#16=CYLINDRICAL_SURFACE('',#221,0.003);
#17=CYLINDRICAL_SURFACE('',#223,0.003);
#18=CYLINDRICAL_SURFACE('',#225,0.003);
#19=CYLINDRICAL_SURFACE('',#226,0.003);
#20=CYLINDRICAL_SURFACE('',#228,0.003);
#21=CYLINDRICAL_SURFACE('',#230,0.003);
#22=CIRCLE('',#214,0.003);
#23=CIRCLE('',#215,0.003);
#24=CIRCLE('',#216,0.003);
#25=CIRCLE('',#217,0.003);
#26=ORIENTED_EDGE('',*,*,#78,.T.);
#27=ORIENTED_EDGE('',*,*,#79,.T.);
#28=ORIENTED_EDGE('',*,*,#80,.F.);
#29=ORIENTED_EDGE('',*,*,#81,.T.);
#30=ORIENTED_EDGE('',*,*,#80,.T.);
#31=ORIENTED_EDGE('',*,*,#82,.T.);
#32=ORIENTED_EDGE('',*,*,#83,.F.);
#33=ORIENTED_EDGE('',*,*,#84,.T.);
#34=ORIENTED_EDGE('',*,*,#83,.T.);
#35=ORIENTED_EDGE('',*,*,#85,.T.);
#36=ORIENTED_EDGE('',*,*,#86,.T.);
#37=ORIENTED_EDGE('',*,*,#87,.T.);
#38=ORIENTED_EDGE('',*,*,#88,.F.);
#39=ORIENTED_EDGE('',*,*,#89,.T.);
#40=ORIENTED_EDGE('',*,*,#90,.F.);
#41=ORIENTED_EDGE('',*,*,#91,.T.);
#42=ORIENTED_EDGE('',*,*,#88,.T.);
#43=ORIENTED_EDGE('',*,*,#92,.T.);
#44=ORIENTED_EDGE('',*,*,#78,.F.);
#45=ORIENTED_EDGE('',*,*,#93,.T.);
#46=ORIENTED_EDGE('',*,*,#94,.T.);
#47=ORIENTED_EDGE('',*,*,#95,.T.);
#48=ORIENTED_EDGE('',*,*,#90,.T.);
#49=ORIENTED_EDGE('',*,*,#96,.T.);
#50=ORIENTED_EDGE('',*,*,#86,.F.);
#51=ORIENTED_EDGE('',*,*,#97,.T.);
#52=ORIENTED_EDGE('',*,*,#98,.T.);
#53=ORIENTED_EDGE('',*,*,#99,.T.);
#54=ORIENTED_EDGE('',*,*,#85,.F.);
#55=ORIENTED_EDGE('',*,*,#82,.F.);
#56=ORIENTED_EDGE('',*,*,#100,.F.);
#57=ORIENTED_EDGE('',*,*,#97,.F.);
#58=ORIENTED_EDGE('',*,*,#87,.F.);
#59=ORIENTED_EDGE('',*,*,#99,.F.);
#60=ORIENTED_EDGE('',*,*,#101,.F.);
#61=ORIENTED_EDGE('',*,*,#92,.F.);
#62=ORIENTED_EDGE('',*,*,#100,.T.);
#63=ORIENTED_EDGE('',*,*,#79,.F.);
#64=ORIENTED_EDGE('',*,*,#101,.T.);
#65=ORIENTED_EDGE('',*,*,#98,.F.);
#66=ORIENTED_EDGE('',*,*,#91,.F.);
#67=ORIENTED_EDGE('',*,*,#95,.F.);
#68=ORIENTED_EDGE('',*,*,#102,.F.);
#69=ORIENTED_EDGE('',*,*,#84,.F.);
#70=ORIENTED_EDGE('',*,*,#89,.F.);
#71=ORIENTED_EDGE('',*,*,#93,.F.);
#72=ORIENTED_EDGE('',*,*,#103,.F.);
#73=ORIENTED_EDGE('',*,*,#96,.F.);
#74=ORIENTED_EDGE('',*,*,#102,.T.);
#75=ORIENTED_EDGE('',*,*,#94,.F.);
#76=ORIENTED_EDGE('',*,*,#103,.T.);
#77=ORIENTED_EDGE('',*,*,#81,.F.);
#78=EDGE_CURVE('',#104,#105,#120,.T.);
#79=EDGE_CURVE('',#105,#106,#121,.F.);
#80=EDGE_CURVE('',#107,#106,#122,.T.);
#81=EDGE_CURVE('',#107,#104,#123,.T.);
#82=EDGE_CURVE('',#106,#108,#124,.T.);
#83=EDGE_CURVE('',#109,#108,#125,.T.);
#84=EDGE_CURVE('',#109,#107,#126,.F.);
#85=EDGE_CURVE('',#108,#110,#22,.F.);
#86=EDGE_CURVE('',#110,#111,#127,.T.);
#87=EDGE_CURVE('',#111,#112,#23,.F.);
#88=EDGE_CURVE('',#113,#112,#128,.T.);
#89=EDGE_CURVE('',#113,#114,#24,.F.);
#90=EDGE_CURVE('',#115,#114,#129,.T.);
#91=EDGE_CURVE('',#115,#109,#25,.F.);
#92=EDGE_CURVE('',#112,#105,#130,.F.);
#93=EDGE_CURVE('',#104,#113,#131,.T.);
#94=EDGE_CURVE('',#116,#117,#132,.F.);
#95=EDGE_CURVE('',#117,#115,#133,.T.);
#96=EDGE_CURVE('',#114,#116,#134,.F.);
#97=EDGE_CURVE('',#110,#118,#135,.F.);
#98=EDGE_CURVE('',#118,#119,#136,.T.);
#99=EDGE_CURVE('',#119,#111,#137,.T.);
#100=EDGE_CURVE('',#118,#106,#12,.F.);
#101=EDGE_CURVE('',#105,#119,#13,.T.);
#102=EDGE_CURVE('',#107,#117,#14,.T.);
#103=EDGE_CURVE('',#116,#104,#15,.F.);
#104=VERTEX_POINT('',#294);
#105=VERTEX_POINT('',#295);
#106=VERTEX_POINT('',#297);
#107=VERTEX_POINT('',#299);
#108=VERTEX_POINT('',#303);
#109=VERTEX_POINT('',#305);
#110=VERTEX_POINT('',#309);
#111=VERTEX_POINT('',#311);
#112=VERTEX_POINT('',#313);
#113=VERTEX_POINT('',#315);
#114=VERTEX_POINT('',#317);
#115=VERTEX_POINT('',#319);
#116=VERTEX_POINT('',#326);
#117=VERTEX_POINT('',#327);
#118=VERTEX_POINT('',#332);
#119=VERTEX_POINT('',#334);
#120=LINE('',#293,#138);
#121=LINE('',#296,#139);
#122=LINE('',#298,#140);
#123=LINE('',#300,#141);
#124=LINE('',#302,#142);
#125=LINE('',#304,#143);
#126=LINE('',#306,#144);
#127=LINE('',#310,#145);
#128=LINE('',#314,#146);
#129=LINE('',#318,#147);
#130=LINE('',#322,#148);
#131=LINE('',#323,#149);
#132=LINE('',#325,#150);
#133=LINE('',#328,#151);
#134=LINE('',#329,#152);
#135=LINE('',#331,#153);
#136=LINE('',#333,#154);
#137=LINE('',#335,#155);
#138=VECTOR('',#235,1.);
#139=VECTOR('',#236,1.);
#140=VECTOR('',#237,1.);
#141=VECTOR('',#238,1.);
#142=VECTOR('',#241,1.);
#143=VECTOR('',#242,1.);
#144=VECTOR('',#243,1.);
#145=VECTOR('',#248,1.);
#146=VECTOR('',#251,1.);
#147=VECTOR('',#254,1.);
#148=VECTOR('',#259,1.);
#149=VECTOR('',#260,1.);
#150=VECTOR('',#263,1.);
#151=VECTOR('',#264,1.);
#152=VECTOR('',#265,1.);
#153=VECTOR('',#268,1.);
#154=VECTOR('',#269,1.);
#155=VECTOR('',#270,1.);
#156=EDGE_LOOP('',(#26,#27,#28,#29));
#157=EDGE_LOOP('',(#30,#31,#32,#33));
#158=EDGE_LOOP('',(#34,#35,#36,#37,#38,#39,#40,#41));
#159=EDGE_LOOP('',(#42,#43,#44,#45));
#160=EDGE_LOOP('',(#46,#47,#48,#49));
#161=EDGE_LOOP('',(#50,#51,#52,#53));
#162=EDGE_LOOP('',(#54,#55,#56,#57));
#163=EDGE_LOOP('',(#58,#59,#60,#61));
#164=EDGE_LOOP('',(#62,#63,#64,#65));
#165=EDGE_LOOP('',(#66,#67,#68,#69));
#166=EDGE_LOOP('',(#70,#71,#72,#73));
#167=EDGE_LOOP('',(#74,#75,#76,#77));
#168=FACE_BOUND('',#156,.T.);
#169=FACE_BOUND('',#157,.T.);
#170=FACE_BOUND('',#158,.T.);
#171=FACE_BOUND('',#159,.T.);
#172=FACE_BOUND('',#160,.T.);
#173=FACE_BOUND('',#161,.T.);
#174=FACE_BOUND('',#162,.T.);
#175=FACE_BOUND('',#163,.T.);
#176=FACE_BOUND('',#164,.T.);
#177=FACE_BOUND('',#165,.T.);
#178=FACE_BOUND('',#166,.T.);
#179=FACE_BOUND('',#167,.T.);
#180=PLANE('',#211);
#181=PLANE('',#212);
#182=PLANE('',#213);
#183=PLANE('',#218);
#184=PLANE('',#219);
#185=PLANE('',#220);
#186=ADVANCED_FACE('',(#168),#180,.T.);
#187=ADVANCED_FACE('',(#169),#181,.F.);
#188=ADVANCED_FACE('',(#170),#182,.F.);
#189=ADVANCED_FACE('',(#171),#183,.T.);
#190=ADVANCED_FACE('',(#172),#184,.T.);
#191=ADVANCED_FACE('',(#173),#185,.F.);
#192=ADVANCED_FACE('',(#174),#16,.T.);
#193=ADVANCED_FACE('',(#175),#17,.T.);
#194=ADVANCED_FACE('',(#176),#18,.T.);
#195=ADVANCED_FACE('',(#177),#19,.T.);
#196=ADVANCED_FACE('',(#178),#20,.T.);
#197=ADVANCED_FACE('',(#179),#21,.T.);
#198=CLOSED_SHELL('',(#186,#187,#188,#189,#190,#191,#192,#193,#194,#195,
#196,#197));
#199=STYLED_ITEM('',(#200),#207);
#200=PRESENTATION_STYLE_ASSIGNMENT((#201));
#201=SURFACE_STYLE_USAGE(.BOTH.,#202);
#202=SURFACE_SIDE_STYLE('',(#203));
#203=SURFACE_STYLE_FILL_AREA(#204);
#204=FILL_AREA_STYLE('',(#205));
#205=FILL_AREA_STYLE_COLOUR('',#206);
#206=COLOUR_RGB('',0.768627450980392,0.886274509803922,0.952941176470588);
#207=MANIFOLD_SOLID_BREP('LiPo 706292',#198);
#208=SHAPE_DEFINITION_REPRESENTATION(#352,#209);
#209=SHAPE_REPRESENTATION('LiPo 706292',(#210),#347);
#210=AXIS2_PLACEMENT_3D('',#291,#231,#232);
#211=AXIS2_PLACEMENT_3D('',#292,#233,#234);
#212=AXIS2_PLACEMENT_3D('',#301,#239,#240);
#213=AXIS2_PLACEMENT_3D('',#307,#244,#245);
#214=AXIS2_PLACEMENT_3D('',#308,#246,#247);
#215=AXIS2_PLACEMENT_3D('',#312,#249,#250);
#216=AXIS2_PLACEMENT_3D('',#316,#252,#253);
#217=AXIS2_PLACEMENT_3D('',#320,#255,#256);
#218=AXIS2_PLACEMENT_3D('',#321,#257,#258);
#219=AXIS2_PLACEMENT_3D('',#324,#261,#262);
#220=AXIS2_PLACEMENT_3D('',#330,#266,#267);
#221=AXIS2_PLACEMENT_3D('',#336,#271,#272);
#222=AXIS2_PLACEMENT_3D('',#337,#273,#274);
#223=AXIS2_PLACEMENT_3D('',#338,#275,#276);
#224=AXIS2_PLACEMENT_3D('',#339,#277,#278);
#225=AXIS2_PLACEMENT_3D('',#340,#279,#280);
#226=AXIS2_PLACEMENT_3D('',#341,#281,#282);
#227=AXIS2_PLACEMENT_3D('',#342,#283,#284);
#228=AXIS2_PLACEMENT_3D('',#343,#285,#286);
#229=AXIS2_PLACEMENT_3D('',#344,#287,#288);
#230=AXIS2_PLACEMENT_3D('',#345,#289,#290);
#231=DIRECTION('',(0.,0.,1.));
#232=DIRECTION('',(1.,0.,0.));
#233=DIRECTION('',(1.,0.,2.22044604925032E-16));
#234=DIRECTION('',(2.22044604925032E-16,0.,-1.));
#235=DIRECTION('',(0.,1.,0.));
#236=DIRECTION('',(2.22044604925032E-16,0.,-1.));
#237=DIRECTION('',(0.,1.,0.));
#238=DIRECTION('',(2.22044604925032E-16,0.,-1.));
#239=DIRECTION('',(0.,0.,-1.));
#240=DIRECTION('',(-1.,0.,0.));
#241=DIRECTION('',(-1.,0.,0.));
#242=DIRECTION('',(0.,1.,0.));
#243=DIRECTION('',(-1.,0.,0.));
#244=DIRECTION('',(1.,0.,2.22044604925032E-16));
#245=DIRECTION('',(2.22044604925032E-16,0.,-1.));
#246=DIRECTION('',(1.,0.,2.22044604925032E-16));
#247=DIRECTION('',(2.22044604925032E-16,0.,-1.));
#248=DIRECTION('',(2.22044604925032E-16,0.,-1.));
#249=DIRECTION('',(1.,0.,2.22044604925032E-16));
#250=DIRECTION('',(2.22044604925032E-16,0.,-1.));
#251=DIRECTION('',(0.,1.,0.));
#252=DIRECTION('',(1.,0.,2.22044604925032E-16));
#253=DIRECTION('',(2.22044604925032E-16,0.,-1.));
#254=DIRECTION('',(2.22044604925032E-16,0.,-1.));
#255=DIRECTION('',(1.,0.,2.22044604925032E-16));
#256=DIRECTION('',(2.22044604925032E-16,0.,-1.));
#257=DIRECTION('',(0.,0.,-1.));
#258=DIRECTION('',(-1.,0.,0.));
#259=DIRECTION('',(-1.,0.,0.));
#260=DIRECTION('',(-1.,0.,0.));
#261=DIRECTION('',(0.,-1.,0.));
#262=DIRECTION('',(1.,0.,0.));
#263=DIRECTION('',(2.22044604925032E-16,0.,-1.));
#264=DIRECTION('',(-1.,0.,0.));
#265=DIRECTION('',(-1.,0.,0.));
#266=DIRECTION('',(0.,-1.,0.));
#267=DIRECTION('',(1.,0.,0.));
#268=DIRECTION('',(-1.,0.,0.));
#269=DIRECTION('',(2.22044604925032E-16,0.,-1.));
#270=DIRECTION('',(-1.,0.,0.));
#271=DIRECTION('',(-1.,0.,0.));
#272=DIRECTION('',(0.,0.,1.));
#273=DIRECTION('',(-0.707106781186548,0.,0.707106781186548));
#274=DIRECTION('',(-0.707106781186548,0.,-0.707106781186548));
#275=DIRECTION('',(1.,0.,0.));
#276=DIRECTION('',(0.,0.,-1.));
#277=DIRECTION('',(0.707106781186548,0.,0.707106781186548));
#278=DIRECTION('',(0.707106781186548,0.,-0.707106781186548));
#279=DIRECTION('',(-2.22044604925032E-16,0.,1.));
#280=DIRECTION('',(1.,0.,2.22044604925032E-16));
#281=DIRECTION('',(1.,0.,0.));
#282=DIRECTION('',(0.,0.,-1.));
#283=DIRECTION('',(0.707106781186548,0.,-0.707106781186548));
#284=DIRECTION('',(0.707106781186548,0.,0.707106781186548));
#285=DIRECTION('',(-1.,0.,0.));
#286=DIRECTION('',(0.,0.,1.));
#287=DIRECTION('',(-0.707106781186548,0.,-0.707106781186548));
#288=DIRECTION('',(-0.707106781186548,0.,0.707106781186548));
#289=DIRECTION('',(2.22044604925032E-16,0.,-1.));
#290=DIRECTION('',(-1.,0.,-2.22044604925032E-16));
#291=CARTESIAN_POINT('',(0.,0.,0.));
#292=CARTESIAN_POINT('',(0.0475,-0.0075,0.));
#293=CARTESIAN_POINT('',(0.0475,-0.0075,-0.03125));
#294=CARTESIAN_POINT('',(0.0475,-0.0045,-0.03125));
#295=CARTESIAN_POINT('',(0.0475,-0.003,-0.03125));
#296=CARTESIAN_POINT('',(0.0475,-0.003,0.03125));
#297=CARTESIAN_POINT('',(0.0475,-0.003,0.03125));
#298=CARTESIAN_POINT('',(0.0475,-0.0075,0.03125));
#299=CARTESIAN_POINT('',(0.0475,-0.0045,0.03125));
#300=CARTESIAN_POINT('',(0.0475,-0.0045,0.));
#301=CARTESIAN_POINT('',(-6.93889390390723E-18,-0.0075,0.03125));
#302=CARTESIAN_POINT('',(-6.93889390390723E-18,-0.003,0.03125));
#303=CARTESIAN_POINT('',(-0.0475,-0.003,0.03125));
#304=CARTESIAN_POINT('',(-0.0475,-0.0075,0.03125));
#305=CARTESIAN_POINT('',(-0.0475,-0.0045,0.03125));
#306=CARTESIAN_POINT('',(0.0475,-0.0045,0.03125));
#307=CARTESIAN_POINT('',(-0.0475,-0.0075,0.));
#308=CARTESIAN_POINT('',(-0.0475,-0.003,0.02825));
#309=CARTESIAN_POINT('',(-0.0475,0.,0.02825));
#310=CARTESIAN_POINT('',(-0.0475,0.,0.));
#311=CARTESIAN_POINT('',(-0.0475,0.,-0.02825));
#312=CARTESIAN_POINT('',(-0.0475,-0.003,-0.02825));
#313=CARTESIAN_POINT('',(-0.0475,-0.003,-0.03125));
#314=CARTESIAN_POINT('',(-0.0475,-0.0075,-0.03125));
#315=CARTESIAN_POINT('',(-0.0475,-0.0045,-0.03125));
#316=CARTESIAN_POINT('',(-0.0475,-0.0045,-0.02825));
#317=CARTESIAN_POINT('',(-0.0475,-0.0075,-0.02825));
#318=CARTESIAN_POINT('',(-0.0475,-0.0075,0.));
#319=CARTESIAN_POINT('',(-0.0475,-0.0075,0.02825));
#320=CARTESIAN_POINT('',(-0.0475,-0.0045,0.02825));
#321=CARTESIAN_POINT('',(6.93889390390723E-18,-0.0075,-0.03125));
#322=CARTESIAN_POINT('',(0.0475,-0.003,-0.03125));
#323=CARTESIAN_POINT('',(6.93889390390723E-18,-0.0045,-0.03125));
#324=CARTESIAN_POINT('',(6.93889390390723E-18,-0.0075,0.));
#325=CARTESIAN_POINT('',(0.0445,-0.0075,9.88098491916389E-18));
#326=CARTESIAN_POINT('',(0.0445,-0.0075,-0.02825));
#327=CARTESIAN_POINT('',(0.0445,-0.0075,0.02825));
#328=CARTESIAN_POINT('',(-0.0475,-0.0075,0.02825));
#329=CARTESIAN_POINT('',(6.93889390390723E-18,-0.0075,-0.02825));
#330=CARTESIAN_POINT('',(6.93889390390723E-18,0.,0.));
#331=CARTESIAN_POINT('',(6.93889390390723E-18,0.,0.02825));
#332=CARTESIAN_POINT('',(0.0445,0.,0.02825));
#333=CARTESIAN_POINT('',(0.0445,0.,-0.03125));
#334=CARTESIAN_POINT('',(0.0445,0.,-0.02825));
#335=CARTESIAN_POINT('',(-0.0475,0.,-0.02825));
#336=CARTESIAN_POINT('',(-6.93889390390723E-18,-0.003,0.02825));
#337=CARTESIAN_POINT('',(0.0445,-0.003,0.02825));
#338=CARTESIAN_POINT('',(6.93889390390723E-18,-0.003,-0.02825));
#339=CARTESIAN_POINT('',(0.0445,-0.003,-0.02825));
#340=CARTESIAN_POINT('',(0.0445,-0.003,9.88098491916389E-18));
#341=CARTESIAN_POINT('',(6.93889390390723E-18,-0.0045,0.02825));
#342=CARTESIAN_POINT('',(0.0445,-0.0045,0.02825));
#343=CARTESIAN_POINT('',(6.93889390390723E-18,-0.0045,-0.02825));
#344=CARTESIAN_POINT('',(0.0445,-0.0045,-0.02825));
#345=CARTESIAN_POINT('',(0.0445,-0.0045,-6.66133814775094E-19));
#346=MECHANICAL_DESIGN_GEOMETRIC_PRESENTATION_REPRESENTATION('',(#199),
#347);
#347=(
GEOMETRIC_REPRESENTATION_CONTEXT(3)
GLOBAL_UNCERTAINTY_ASSIGNED_CONTEXT((#348))
GLOBAL_UNIT_ASSIGNED_CONTEXT((#351,#350,#349))
REPRESENTATION_CONTEXT('LiPo 706292','TOP_LEVEL_ASSEMBLY_PART')
);
#348=UNCERTAINTY_MEASURE_WITH_UNIT(LENGTH_MEASURE(1.E-8),#351,
'DISTANCE_ACCURACY_VALUE','Maximum Tolerance applied to model');
#349=(
NAMED_UNIT(*)
SI_UNIT($,.STERADIAN.)
SOLID_ANGLE_UNIT()
);
#350=(
NAMED_UNIT(*)
PLANE_ANGLE_UNIT()
SI_UNIT($,.RADIAN.)
);
#351=(
LENGTH_UNIT()
NAMED_UNIT(*)
SI_UNIT($,.METRE.)
);
#352=PRODUCT_DEFINITION_SHAPE('','',#353);
#353=PRODUCT_DEFINITION('','',#355,#354);
#354=PRODUCT_DEFINITION_CONTEXT('',#361,'design');
#355=PRODUCT_DEFINITION_FORMATION_WITH_SPECIFIED_SOURCE('','',#357,
 .NOT_KNOWN.);
#356=PRODUCT_RELATED_PRODUCT_CATEGORY('','',(#357));
#357=PRODUCT('LiPo 706292','LiPo 706292','LiPo 706292',(#359));
#358=PRODUCT_CATEGORY('','');
#359=PRODUCT_CONTEXT('',#361,'mechanical');
#360=APPLICATION_PROTOCOL_DEFINITION('international standard',
'ap242_managed_model_based_3d_engineering',2020,#361);
#361=APPLICATION_CONTEXT('managed model based 3d engineering');
ENDSEC;
END-ISO-10303-21;
