ISO-10303-21;
HEADER;
FILE_DESCRIPTION (( 'STEP AP203' ),
    '1' );
FILE_NAME ('MS110-10C.step',
    '2020-10-06T07:02:01',
    ( '' ),
    ( '' ),
    'SwSTEP 2.0',
    'SolidWorks 2018',
    '' );
FILE_SCHEMA (( 'CONFIG_CONTROL_DESIGN' ));
ENDSEC;

DATA;
#1 = DIRECTION ( 'NONE',  ( 0.0000000000000000000, 1.000000000000000000, 0.0000000000000000000 ) ) ;
#2 = CARTESIAN_POINT ( 'NONE',  ( 4.000000000000000000, -0.5000000000000000000, -4.000000000000000000 ) ) ;
#3 = ADVANCED_FACE ( 'NONE', ( #576 ), #231, .T. ) ;
#4 = CARTESIAN_POINT ( 'NONE',  ( -5.799999999999999822, -2.500000000000000000, 4.000000000000000000 ) ) ;
#5 = FACE_OUTER_BOUND ( 'NONE', #16, .T. ) ;
#6 = EDGE_CURVE ( 'NONE', #468, #1096, #67, .T. ) ;
#7 = FACE_OUTER_BOUND ( 'NONE', #910, .T. ) ;
#8 = ADVANCED_FACE ( 'NONE', ( #452 ), #392, .T. ) ;
#9 = VERTEX_POINT ( 'NONE', #317 ) ;
#10 = DIRECTION ( 'NONE',  ( 0.0000000000000000000, 0.0000000000000000000, 1.000000000000000000 ) ) ;
#11 = DIRECTION ( 'NONE',  ( 0.0000000000000000000, 0.0000000000000000000, 1.000000000000000000 ) ) ;
#12 = DIRECTION ( 'NONE',  ( 0.0000000000000000000, -1.000000000000000000, 0.0000000000000000000 ) ) ;
#13 = ORIENTED_EDGE ( 'NONE', *, *, #918, .T. ) ;
#14 = ADVANCED_FACE ( 'NONE', ( #689 ), #597, .F. ) ;
#15 = DIRECTION ( 'NONE',  ( -0.0000000000000000000, 1.000000000000000000, -0.0000000000000000000 ) ) ;
#16 = EDGE_LOOP ( 'NONE', ( #708, #169, #411, #819 ) ) ;
#17 = VECTOR ( 'NONE', #627, 1000.000000000000000 ) ;
#18 = CYLINDRICAL_SURFACE ( 'NONE', #497, 0.8000000000000003775 ) ;
#19 = CARTESIAN_POINT ( 'NONE',  ( -4.000000000000000000, -0.5000000000000000000, -4.000000000000000000 ) ) ;
#20 = DIRECTION ( 'NONE',  ( 0.0000000000000000000, 0.0000000000000000000, -1.000000000000000000 ) ) ;
#21 = AXIS2_PLACEMENT_3D ( 'NONE', #260, #982, #814 ) ;
#22 = CIRCLE ( 'NONE', #815, 0.8000000000000003775 ) ;
#23 = EDGE_CURVE ( 'NONE', #588, #1056, #778, .T. ) ;
#24 = ORIENTED_EDGE ( 'NONE', *, *, #800, .T. ) ;
#25 = CARTESIAN_POINT ( 'NONE',  ( -4.000000000000000000, -0.5000000000000000000, 4.000000000000000000 ) ) ;
#26 = DIRECTION ( 'NONE',  ( 0.0000000000000000000, 0.0000000000000000000, -1.000000000000000000 ) ) ;
#27 = ADVANCED_FACE ( 'NONE', ( #422 ), #1029, .T. ) ;
#28 = DIRECTION ( 'NONE',  ( -1.000000000000000000, 0.0000000000000000000, 0.0000000000000000000 ) ) ;
#29 = DIRECTION ( 'NONE',  ( -1.000000000000000000, -0.0000000000000000000, -0.0000000000000000000 ) ) ;
#30 = VERTEX_POINT ( 'NONE', #570 ) ;
#31 = DIRECTION ( 'NONE',  ( 0.0000000000000000000, 0.0000000000000000000, -1.000000000000000000 ) ) ;
#32 = DIRECTION ( 'NONE',  ( 0.0000000000000000000, -1.000000000000000000, 0.0000000000000000000 ) ) ;
#33 = CARTESIAN_POINT ( 'NONE',  ( 4.000000000000000000, -0.5000000000000000000, -4.999999999999999112 ) ) ;
#34 = CYLINDRICAL_SURFACE ( 'NONE', #144, 1.499999999999999556 ) ;
#35 = FACE_OUTER_BOUND ( 'NONE', #874, .T. ) ;
#36 = DIRECTION ( 'NONE',  ( 0.0000000000000000000, 0.0000000000000000000, 1.000000000000000000 ) ) ;
#37 = DIRECTION ( 'NONE',  ( -1.000000000000000000, -0.0000000000000000000, -0.0000000000000000000 ) ) ;
#38 = CARTESIAN_POINT ( 'NONE',  ( 5.799999999999999822, -2.500000000000000000, -4.000000000000000000 ) ) ;
#39 = ORIENTED_EDGE ( 'NONE', *, *, #193, .F. ) ;
#40 = CARTESIAN_POINT ( 'NONE',  ( -4.000000000000000000, 0.0000000000000000000, 4.999999999999999112 ) ) ;
#41 = CIRCLE ( 'NONE', #1020, 0.9999999999999991118 ) ;
#42 = AXIS2_PLACEMENT_3D ( 'NONE', #848, #850, #574 ) ;
#43 = EDGE_CURVE ( 'NONE', #9, #383, #1004, .T. ) ;
#44 = AXIS2_PLACEMENT_3D ( 'NONE', #19, #219, #1092 ) ;
#45 = PRODUCT_RELATED_PRODUCT_CATEGORY ( 'detail', '', ( #820 ) ) ;
#46 = PERSON_AND_ORGANIZATION_ROLE ( 'creator' ) ;
#47 = VERTEX_POINT ( 'NONE', #673 ) ;
#48 = FACE_OUTER_BOUND ( 'NONE', #367, .T. ) ;
#49 = VECTOR ( 'NONE', #110, 1000.000000000000000 ) ;
#50 = LINE ( 'NONE', #896, #282 ) ;
#51 = CYLINDRICAL_SURFACE ( 'NONE', #868, 1.799999999999999600 ) ;
#52 = VERTEX_POINT ( 'NONE', #307 ) ;
#53 = DATE_TIME_ROLE ( 'classification_date' ) ;
#54 = COORDINATED_UNIVERSAL_TIME_OFFSET ( 2, 0, .AHEAD. ) ;
#55 = ORIENTED_EDGE ( 'NONE', *, *, #822, .F. ) ;
#56 = APPLICATION_PROTOCOL_DEFINITION ( 'international standard', 'config_control_design', 1994, #792 ) ;
#57 = AXIS2_PLACEMENT_3D ( 'NONE', #637, #198, #10 ) ;
#58 = VECTOR ( 'NONE', #249, 1000.000000000000000 ) ;
#59 = EDGE_LOOP ( 'NONE', ( #76, #907, #901, #1049 ) ) ;
#60 = FACE_OUTER_BOUND ( 'NONE', #540, .T. ) ;
#61 = CARTESIAN_POINT ( 'NONE',  ( -4.000000000000000000, -2.500000000000000000, -4.000000000000000000 ) ) ;
#62 = EDGE_CURVE ( 'NONE', #1141, #661, #129, .T. ) ;
#63 = VERTEX_POINT ( 'NONE', #38 ) ;
#64 = EDGE_CURVE ( 'NONE', #383, #923, #646, .T. ) ;
#65 = DIRECTION ( 'NONE',  ( 0.0000000000000000000, 0.0000000000000000000, -1.000000000000000000 ) ) ;
#66 = CARTESIAN_POINT ( 'NONE',  ( -4.000000000000000000, -0.5000000000000000000, 4.999999999999999112 ) ) ;
#67 = CIRCLE ( 'NONE', #861, 1.499999999999999556 ) ;
#68 = DIRECTION ( 'NONE',  ( 0.0000000000000000000, 0.0000000000000000000, -1.000000000000000000 ) ) ;
#69 = VECTOR ( 'NONE', #975, 1000.000000000000000 ) ;
#70 = TOROIDAL_SURFACE ( 'NONE', #42, 0.9999999999999991118, 0.5000000000000000000 ) ;
#71 = LINE ( 'NONE', #443, #290 ) ;
#72 = DIRECTION ( 'NONE',  ( -1.000000000000000000, 0.0000000000000000000, 0.0000000000000000000 ) ) ;
#73 = CARTESIAN_POINT ( 'NONE',  ( -4.000000000000000000, -2.500000000000000000, 4.000000000000000000 ) ) ;
#74 = CARTESIAN_POINT ( 'NONE',  ( -4.000000000000000000, -0.5000000000000000000, 5.500000000000000000 ) ) ;
#75 = CIRCLE ( 'NONE', #1044, 0.5000000000000004441 ) ;
#76 = ORIENTED_EDGE ( 'NONE', *, *, #489, .F. ) ;
#77 = CARTESIAN_POINT ( 'NONE',  ( 4.000000000000000000, 0.0000000000000000000, -4.000000000000000000 ) ) ;
#78 = AXIS2_PLACEMENT_3D ( 'NONE', #33, #37, #851 ) ;
#79 = CARTESIAN_POINT ( 'NONE',  ( -4.999999999999999112, 0.0000000000000000000, 0.0000000000000000000 ) ) ;
#80 = CARTESIAN_POINT ( 'NONE',  ( -4.999999999999999112, -0.5000000000000000000, 4.000000000000000000 ) ) ;
#81 = EDGE_CURVE ( 'NONE', #436, #222, #41, .T. ) ;
#82 = AXIS2_PLACEMENT_3D ( 'NONE', #596, #609, #1063 ) ;
#83 = DIRECTION ( 'NONE',  ( 0.0000000000000000000, -1.000000000000000000, 0.0000000000000000000 ) ) ;
#84 = DIRECTION ( 'NONE',  ( -1.000000000000000000, -0.0000000000000000000, 0.0000000000000000000 ) ) ;
#85 = ADVANCED_FACE ( 'NONE', ( #512 ), #979, .F. ) ;
#86 = EDGE_CURVE ( 'NONE', #164, #846, #694, .T. ) ;
#87 = VECTOR ( 'NONE', #272, 1000.000000000000000 ) ;
#88 = ORIENTED_EDGE ( 'NONE', *, *, #334, .T. ) ;
#89 = DIRECTION ( 'NONE',  ( -0.0000000000000000000, -1.000000000000000000, -0.0000000000000000000 ) ) ;
#90 = DIRECTION ( 'NONE',  ( 0.0000000000000000000, 0.0000000000000000000, -1.000000000000000000 ) ) ;
#91 = CARTESIAN_POINT ( 'NONE',  ( -4.999999999999999112, -0.5000000000000000000, 4.000000000000000000 ) ) ;
#92 = ORIENTED_EDGE ( 'NONE', *, *, #287, .F. ) ;
#93 = PERSON ( 'UNSPECIFIED', 'UNSPECIFIED', 'UNSPECIFIED', ('UNSPECIFIED'), ('UNSPECIFIED'), ('UNSPECIFIED') ) ;
#94 = DIRECTION ( 'NONE',  ( 1.000000000000000000, 0.0000000000000000000, 0.0000000000000000000 ) ) ;
#95 = ORIENTED_EDGE ( 'NONE', *, *, #1119, .F. ) ;
#96 = DIRECTION ( 'NONE',  ( -1.000000000000000000, -0.0000000000000000000, -0.0000000000000000000 ) ) ;
#97 = DIRECTION ( 'NONE',  ( -1.000000000000000000, 0.0000000000000000000, -0.0000000000000000000 ) ) ;
#98 = FACE_OUTER_BOUND ( 'NONE', #1133, .T. ) ;
#99 = ADVANCED_FACE ( 'NONE', ( #261 ), #671, .F. ) ;
#100 = EDGE_CURVE ( 'NONE', #1042, #661, #238, .T. ) ;
#101 = AXIS2_PLACEMENT_3D ( 'NONE', #266, #529, #423 ) ;
#102 = EDGE_CURVE ( 'NONE', #9, #457, #430, .T. ) ;
#103 = LINE ( 'NONE', #115, #49 ) ;
#104 = AXIS2_PLACEMENT_3D ( 'NONE', #203, #924, #554 ) ;
#105 = LINE ( 'NONE', #884, #213 ) ;
#106 = CYLINDRICAL_SURFACE ( 'NONE', #1065, 1.499999999999999556 ) ;
#107 = CARTESIAN_POINT ( 'NONE',  ( -4.000000000000000000, -0.5000000000000000000, -4.000000000000000000 ) ) ;
#108 = ADVANCED_FACE ( 'NONE', ( #550 ), #18, .T. ) ;
#109 = DIRECTION ( 'NONE',  ( 0.0000000000000000000, 0.0000000000000000000, 1.000000000000000000 ) ) ;
#110 = DIRECTION ( 'NONE',  ( 0.0000000000000000000, -0.0000000000000000000, -1.000000000000000000 ) ) ;
#111 = AXIS2_PLACEMENT_3D ( 'NONE', #563, #566, #31 ) ;
#112 = ADVANCED_FACE ( 'NONE', ( #210 ), #132, .F. ) ;
#113 = CARTESIAN_POINT ( 'NONE',  ( 5.500000000000000000, 0.0000000000000000000, -4.000000000000000000 ) ) ;
#114 = ORIENTED_EDGE ( 'NONE', *, *, #1050, .T. ) ;
#115 = CARTESIAN_POINT ( 'NONE',  ( -4.999999999999999112, 0.2999999999999999334, 0.0000000000000000000 ) ) ;
#116 = CARTESIAN_POINT ( 'NONE',  ( 4.000000000000000000, -0.5000000000000000000, -4.000000000000000000 ) ) ;
#117 = DIRECTION ( 'NONE',  ( -0.0000000000000000000, -0.0000000000000000000, -1.000000000000000000 ) ) ;
#118 = FACE_OUTER_BOUND ( 'NONE', #218, .T. ) ;
#119 = AXIS2_PLACEMENT_3D ( 'NONE', #284, #117, #460 ) ;
#120 = EDGE_LOOP ( 'NONE', ( #882, #824, #692, #1153 ) ) ;
#121 = ORIENTED_EDGE ( 'NONE', *, *, #600, .F. ) ;
#122 = CC_DESIGN_DATE_AND_TIME_ASSIGNMENT ( #143, #53, ( #1015 ) ) ;
#123 = CARTESIAN_POINT ( 'NONE',  ( 4.999999999999999112, -0.5000000000000000000, 0.0000000000000000000 ) ) ;
#124 = DIRECTION ( 'NONE',  ( -0.0000000000000000000, -1.000000000000000000, -0.0000000000000000000 ) ) ;
#125 = DIRECTION ( 'NONE',  ( -1.000000000000000000, 0.0000000000000000000, 0.0000000000000000000 ) ) ;
#126 = EDGE_LOOP ( 'NONE', ( #500, #613, #1108, #377 ) ) ;
#127 = DIRECTION ( 'NONE',  ( 1.000000000000000000, 0.0000000000000000000, 0.0000000000000000000 ) ) ;
#128 = EDGE_CURVE ( 'NONE', #1174, #1042, #461, .T. ) ;
#129 = CIRCLE ( 'NONE', #965, 0.8000000000000003775 ) ;
#130 = DIRECTION ( 'NONE',  ( 0.0000000000000000000, -0.0000000000000000000, -1.000000000000000000 ) ) ;
#131 = EDGE_CURVE ( 'NONE', #711, #393, #865, .T. ) ;
#132 = PLANE ( 'NONE',  #1074 ) ;
#133 = DIRECTION ( 'NONE',  ( 1.000000000000000000, 0.0000000000000000000, 0.0000000000000000000 ) ) ;
#134 = DIRECTION ( 'NONE',  ( 6.123233995736766036E-17, 0.0000000000000000000, 1.000000000000000000 ) ) ;
#135 = ADVANCED_FACE ( 'NONE', ( #620 ), #1138, .T. ) ;
#136 = PERSON_AND_ORGANIZATION_ROLE ( 'design_supplier' ) ;
#137 = DIRECTION ( 'NONE',  ( 1.000000000000000000, 0.0000000000000000000, 0.0000000000000000000 ) ) ;
#138 = LINE ( 'NONE', #666, #322 ) ;
#139 = ORIENTED_EDGE ( 'NONE', *, *, #686, .F. ) ;
#140 = CIRCLE ( 'NONE', #796, 1.499999999999999556 ) ;
#141 = CARTESIAN_POINT ( 'NONE',  ( 4.000000000000000000, -0.5000000000000000000, -4.999999999999999112 ) ) ;
#142 = EDGE_LOOP ( 'NONE', ( #729, #1142, #885, #400 ) ) ;
#143 = DATE_AND_TIME ( #440, #789 ) ;
#144 = AXIS2_PLACEMENT_3D ( 'NONE', #208, #555, #474 ) ;
#145 = EDGE_CURVE ( 'NONE', #457, #846, #580, .T. ) ;
#146 = ORIENTED_EDGE ( 'NONE', *, *, #743, .F. ) ;
#147 = VECTOR ( 'NONE', #1081, 1000.000000000000000 ) ;
#148 = MECHANICAL_CONTEXT ( 'NONE', #792, 'mechanical' ) ;
#149 = COORDINATED_UNIVERSAL_TIME_OFFSET ( 2, 0, .AHEAD. ) ;
#150 = CYLINDRICAL_SURFACE ( 'NONE', #713, 1.799999999999999600 ) ;
#151 = ORIENTED_EDGE ( 'NONE', *, *, #647, .T. ) ;
#152 = VERTEX_POINT ( 'NONE', #557 ) ;
#153 = EDGE_CURVE ( 'NONE', #711, #715, #103, .T. ) ;
#154 =( LENGTH_UNIT ( ) NAMED_UNIT ( * ) SI_UNIT ( .MILLI., .METRE. ) );
#155 = MANIFOLD_SOLID_BREP ( 'Mirror2', #917 ) ;
#156 = DIRECTION ( 'NONE',  ( 0.0000000000000000000, -1.000000000000000000, -0.0000000000000000000 ) ) ;
#157 = ORIENTED_EDGE ( 'NONE', *, *, #395, .F. ) ;
#158 = SHAPE_DEFINITION_REPRESENTATION ( #1062, #704 ) ;
#159 = DIRECTION ( 'NONE',  ( -0.0000000000000000000, -1.000000000000000000, -0.0000000000000000000 ) ) ;
#160 = CARTESIAN_POINT ( 'NONE',  ( -5.799999999999999822, -2.500000000000000000, 0.0000000000000000000 ) ) ;
#161 = DIRECTION ( 'NONE',  ( 1.000000000000000000, 0.0000000000000000000, -0.0000000000000000000 ) ) ;
#162 = FACE_OUTER_BOUND ( 'NONE', #240, .T. ) ;
#163 = ORIENTED_EDGE ( 'NONE', *, *, #571, .T. ) ;
#164 = VERTEX_POINT ( 'NONE', #562 ) ;
#165 = LINE ( 'NONE', #1114, #949 ) ;
#166 = EDGE_CURVE ( 'NONE', #52, #348, #720, .T. ) ;
#167 = EDGE_CURVE ( 'NONE', #700, #63, #655, .T. ) ;
#168 = CC_DESIGN_APPROVAL ( #648, ( #534 ) ) ;
#169 = ORIENTED_EDGE ( 'NONE', *, *, #786, .T. ) ;
#170 = DIRECTION ( 'NONE',  ( 0.0000000000000000000, 0.0000000000000000000, 1.000000000000000000 ) ) ;
#171 = CARTESIAN_POINT ( 'NONE',  ( 4.000000000000000000, -2.500000000000000000, -5.500000000000000000 ) ) ;
#172 = ADVANCED_FACE ( 'NONE', ( #753 ), #958, .T. ) ;
#173 = PLANE ( 'NONE',  #887 ) ;
#174 = ORIENTED_EDGE ( 'NONE', *, *, #997, .F. ) ;
#175 = CARTESIAN_POINT ( 'NONE',  ( 4.000000000000000000, -0.5000000000000000000, 4.000000000000000000 ) ) ;
#176 = ORIENTED_EDGE ( 'NONE', *, *, #167, .F. ) ;
#177 = LINE ( 'NONE', #914, #368 ) ;
#178 = CIRCLE ( 'NONE', #802, 1.499999999999999556 ) ;
#179 = CARTESIAN_POINT ( 'NONE',  ( -5.799999999999999822, -0.5000000000000000000, -4.000000000000000000 ) ) ;
#180 = PERSON_AND_ORGANIZATION ( #93, #899 ) ;
#181 = VECTOR ( 'NONE', #65, 1000.000000000000000 ) ;
#182 = ORIENTED_EDGE ( 'NONE', *, *, #310, .T. ) ;
#183 = ORIENTED_EDGE ( 'NONE', *, *, #505, .F. ) ;
#184 = DIRECTION ( 'NONE',  ( -0.0000000000000000000, 1.000000000000000000, -0.0000000000000000000 ) ) ;
#185 = DIRECTION ( 'NONE',  ( 0.0000000000000000000, 0.0000000000000000000, 1.000000000000000000 ) ) ;
#186 = ADVANCED_FACE ( 'NONE', ( #314 ), #667, .F. ) ;
#187 = ORIENTED_EDGE ( 'NONE', *, *, #942, .T. ) ;
#188 = ORIENTED_EDGE ( 'NONE', *, *, #1001, .F. ) ;
#189 = CARTESIAN_POINT ( 'NONE',  ( -4.000000000000000000, 0.0000000000000000000, 4.000000000000000000 ) ) ;
#190 = DIRECTION ( 'NONE',  ( -1.000000000000000000, 0.0000000000000000000, 0.0000000000000000000 ) ) ;
#191 = ADVANCED_FACE ( 'NONE', ( #783 ), #70, .F. ) ;
#192 = EDGE_CURVE ( 'NONE', #406, #726, #178, .T. ) ;
#193 = EDGE_CURVE ( 'NONE', #972, #508, #329, .T. ) ;
#194 = CYLINDRICAL_SURFACE ( 'NONE', #516, 0.8000000000000003775 ) ;
#195 = ORIENTED_EDGE ( 'NONE', *, *, #434, .F. ) ;
#196 = ORIENTED_EDGE ( 'NONE', *, *, #153, .F. ) ;
#197 = PERSON_AND_ORGANIZATION ( #93, #899 ) ;
#198 = DIRECTION ( 'NONE',  ( 1.000000000000000000, -0.0000000000000000000, -0.0000000000000000000 ) ) ;
#199 = DIRECTION ( 'NONE',  ( -1.000000000000000000, 0.0000000000000000000, 0.0000000000000000000 ) ) ;
#200 = DIRECTION ( 'NONE',  ( -1.000000000000000000, 0.0000000000000000000, 0.0000000000000000000 ) ) ;
#201 = ORIENTED_EDGE ( 'NONE', *, *, #997, .T. ) ;
#202 = ORIENTED_EDGE ( 'NONE', *, *, #486, .F. ) ;
#203 = CARTESIAN_POINT ( 'NONE',  ( 4.000000000000000000, -0.5000000000000000000, 4.999999999999999112 ) ) ;
#204 = ORIENTED_EDGE ( 'NONE', *, *, #560, .F. ) ;
#205 = EDGE_LOOP ( 'NONE', ( #921, #1048, #936, #471 ) ) ;
#206 = CIRCLE ( 'NONE', #502, 1.799999999999999600 ) ;
#207 = PLANE ( 'NONE',  #959 ) ;
#208 = CARTESIAN_POINT ( 'NONE',  ( -4.000000000000000000, 0.0000000000000000000, -4.000000000000000000 ) ) ;
#209 = EDGE_CURVE ( 'NONE', #715, #487, #1101, .T. ) ;
#210 = FACE_OUTER_BOUND ( 'NONE', #120, .T. ) ;
#211 = AXIS2_PLACEMENT_3D ( 'NONE', #612, #431, #1067 ) ;
#212 = CARTESIAN_POINT ( 'NONE',  ( 5.799999999999999822, -2.500000000000000000, 0.0000000000000000000 ) ) ;
#213 = VECTOR ( 'NONE', #332, 1000.000000000000000 ) ;
#214 = VERTEX_POINT ( 'NONE', #385 ) ;
#215 = EDGE_LOOP ( 'NONE', ( #1177, #1093, #1170, #640 ) ) ;
#216 = CARTESIAN_POINT ( 'NONE',  ( 5.500000000000000000, -0.5000000000000000000, 0.0000000000000000000 ) ) ;
#217 = ORIENTED_EDGE ( 'NONE', *, *, #444, .T. ) ;
#218 = EDGE_LOOP ( 'NONE', ( #1127, #254, #625, #567 ) ) ;
#219 = DIRECTION ( 'NONE',  ( 0.0000000000000000000, 1.000000000000000000, 0.0000000000000000000 ) ) ;
#220 = DIRECTION ( 'NONE',  ( 0.0000000000000000000, 0.0000000000000000000, 1.000000000000000000 ) ) ;
#221 = EDGE_CURVE ( 'NONE', #1042, #63, #928, .T. ) ;
#222 = VERTEX_POINT ( 'NONE', #40 ) ;
#223 = CARTESIAN_POINT ( 'NONE',  ( 4.000000000000000000, 0.2999999999999999334, -4.999999999999999112 ) ) ;
#224 = CARTESIAN_POINT ( 'NONE',  ( -4.000000000000000000, 0.2999999999999999334, 4.000000000000000000 ) ) ;
#225 = VECTOR ( 'NONE', #220, 1000.000000000000000 ) ;
#226 = EDGE_LOOP ( 'NONE', ( #1132, #906, #441, #309 ) ) ;
#227 = DIRECTION ( 'NONE',  ( 6.123233995736766036E-17, -0.0000000000000000000, -1.000000000000000000 ) ) ;
#228 = DIRECTION ( 'NONE',  ( -1.000000000000000000, 0.0000000000000000000, 0.0000000000000000000 ) ) ;
#229 = ADVANCED_FACE ( 'NONE', ( #1038 ), #306, .F. ) ;
#230 = AXIS2_PLACEMENT_3D ( 'NONE', #91, #737, #190 ) ;
#231 = TOROIDAL_SURFACE ( 'NONE', #790, 0.9999999999999991118, 0.7999999999999999334 ) ;
#232 = EDGE_CURVE ( 'NONE', #1141, #327, #898, .T. ) ;
#233 = CC_DESIGN_PERSON_AND_ORGANIZATION_ASSIGNMENT ( #180, #781, ( #534 ) ) ;
#234 = APPROVAL_STATUS ( 'not_yet_approved' ) ;
#235 = ORIENTED_EDGE ( 'NONE', *, *, #221, .T. ) ;
#236 = ORIENTED_EDGE ( 'NONE', *, *, #663, .F. ) ;
#237 = CIRCLE ( 'NONE', #412, 1.499999999999999556 ) ;
#238 = CIRCLE ( 'NONE', #242, 1.799999999999999156 ) ;
#239 = VECTOR ( 'NONE', #656, 1000.000000000000000 ) ;
#240 = EDGE_LOOP ( 'NONE', ( #873, #157, #463, #1030 ) ) ;
#241 = ORIENTED_EDGE ( 'NONE', *, *, #771, .F. ) ;
#242 = AXIS2_PLACEMENT_3D ( 'NONE', #116, #763, #298 ) ;
#243 = EDGE_LOOP ( 'NONE', ( #799, #869, #964, #772 ) ) ;
#244 =( NAMED_UNIT ( * ) PLANE_ANGLE_UNIT ( ) SI_UNIT ( $, .RADIAN. ) );
#245 = EDGE_LOOP ( 'NONE', ( #879, #1052, #510, #235 ) ) ;
#246 = AXIS2_PLACEMENT_3D ( 'NONE', #1149, #1150, #598 ) ;
#247 = APPROVAL ( #1043, 'UNSPECIFIED' ) ;
#248 = DIRECTION ( 'NONE',  ( 1.000000000000000000, 0.0000000000000000000, 0.0000000000000000000 ) ) ;
#249 = DIRECTION ( 'NONE',  ( -0.0000000000000000000, -1.000000000000000000, -0.0000000000000000000 ) ) ;
#250 = CIRCLE ( 'NONE', #683, 1.799999999999999600 ) ;
#251 = EDGE_CURVE ( 'NONE', #52, #487, #1168, .T. ) ;
#252 = LINE ( 'NONE', #649, #999 ) ;
#253 = EDGE_CURVE ( 'NONE', #856, #863, #841, .T. ) ;
#254 = ORIENTED_EDGE ( 'NONE', *, *, #619, .T. ) ;
#255 = PLANE ( 'NONE',  #698 ) ;
#256 = ORIENTED_EDGE ( 'NONE', *, *, #1086, .T. ) ;
#257 = DIRECTION ( 'NONE',  ( 0.0000000000000000000, -0.0000000000000000000, -1.000000000000000000 ) ) ;
#258 = EDGE_LOOP ( 'NONE', ( #390, #352, #668, #725 ) ) ;
#259 = TOROIDAL_SURFACE ( 'NONE', #520, 0.9999999999999991118, 0.5000000000000000000 ) ;
#260 = CARTESIAN_POINT ( 'NONE',  ( 4.000000000000000000, -2.500000000000000000, -4.000000000000000000 ) ) ;
#261 = FACE_OUTER_BOUND ( 'NONE', #1110, .T. ) ;
#262 = CIRCLE ( 'NONE', #1036, 0.9999999999999991118 ) ;
#263 = ORIENTED_EDGE ( 'NONE', *, *, #546, .T. ) ;
#264 = DIRECTION ( 'NONE',  ( -0.0000000000000000000, 1.000000000000000000, -0.0000000000000000000 ) ) ;
#265 = PLANE ( 'NONE',  #300 ) ;
#266 = CARTESIAN_POINT ( 'NONE',  ( 4.000000000000000000, -0.5000000000000000000, -4.000000000000000000 ) ) ;
#267 = EDGE_CURVE ( 'NONE', #1096, #624, #482, .T. ) ;
#268 = CARTESIAN_POINT ( 'NONE',  ( 4.000000000000000000, -2.500000000000000000, -4.000000000000000000 ) ) ;
#269 = CARTESIAN_POINT ( 'NONE',  ( 4.000000000000000000, -0.5000000000000000000, -5.500000000000000000 ) ) ;
#270 = ORIENTED_EDGE ( 'NONE', *, *, #384, .T. ) ;
#271 = DIRECTION ( 'NONE',  ( -0.0000000000000000000, 1.000000000000000000, -0.0000000000000000000 ) ) ;
#272 = DIRECTION ( 'NONE',  ( 0.0000000000000000000, -0.0000000000000000000, -1.000000000000000000 ) ) ;
#273 = EDGE_CURVE ( 'NONE', #487, #856, #565, .T. ) ;
#274 = CARTESIAN_POINT ( 'NONE',  ( 4.000000000000000000, 0.0000000000000000000, 4.999999999999999112 ) ) ;
#275 = ADVANCED_FACE ( 'NONE', ( #414 ), #346, .T. ) ;
#276 = CALENDAR_DATE ( 2020, 6, 10 ) ;
#277 = CARTESIAN_POINT ( 'NONE',  ( -5.500000000000000000, -2.500000000000000000, -4.000000000000000000 ) ) ;
#278 = VECTOR ( 'NONE', #765, 1000.000000000000000 ) ;
#279 = DIRECTION ( 'NONE',  ( 0.0000000000000000000, 0.0000000000000000000, -1.000000000000000000 ) ) ;
#280 = VERTEX_POINT ( 'NONE', #1019 ) ;
#281 = DIRECTION ( 'NONE',  ( -0.0000000000000000000, -1.000000000000000000, -0.0000000000000000000 ) ) ;
#282 = VECTOR ( 'NONE', #722, 1000.000000000000000 ) ;
#283 = CARTESIAN_POINT ( 'NONE',  ( 4.000000000000000000, 0.0000000000000000000, 5.500000000000000000 ) ) ;
#284 = CARTESIAN_POINT ( 'NONE',  ( 4.999999999999999112, -0.5000000000000000000, 0.0000000000000000000 ) ) ;
#285 = AXIS2_PLACEMENT_3D ( 'NONE', #1120, #488, #387 ) ;
#286 = LINE ( 'NONE', #283, #147 ) ;
#287 = EDGE_CURVE ( 'NONE', #47, #1042, #1039, .T. ) ;
#288 = PRODUCT_DEFINITION_FORMATION_WITH_SPECIFIED_SOURCE ( 'ANY', '', #820, .NOT_KNOWN. ) ;
#289 = VECTOR ( 'NONE', #845, 1000.000000000000000 ) ;
#290 = VECTOR ( 'NONE', #817, 1000.000000000000000 ) ;
#291 = FACE_OUTER_BOUND ( 'NONE', #258, .T. ) ;
#292 = ORIENTED_EDGE ( 'NONE', *, *, #1014, .T. ) ;
#293 = CARTESIAN_POINT ( 'NONE',  ( 4.000000000000000000, -0.5000000000000000000, 5.500000000000000000 ) ) ;
#294 = PERSON_AND_ORGANIZATION ( #93, #899 ) ;
#295 = DIRECTION ( 'NONE',  ( 0.0000000000000000000, 0.0000000000000000000, 1.000000000000000000 ) ) ;
#296 = DIRECTION ( 'NONE',  ( 0.0000000000000000000, 0.0000000000000000000, -1.000000000000000000 ) ) ;
#297 = ADVANCED_FACE ( 'NONE', ( #1151 ), #930, .T. ) ;
#298 = DIRECTION ( 'NONE',  ( 0.0000000000000000000, 0.0000000000000000000, 1.000000000000000000 ) ) ;
#299 = CARTESIAN_POINT ( 'NONE',  ( 4.000000000000000000, 0.0000000000000000000, -5.799999999999999822 ) ) ;
#300 = AXIS2_PLACEMENT_3D ( 'NONE', #525, #1166, #185 ) ;
#301 = CIRCLE ( 'NONE', #82, 0.8000000000000003775 ) ;
#302 = ADVANCED_FACE ( 'NONE', ( #581 ), #34, .F. ) ;
#303 = ORIENTED_EDGE ( 'NONE', *, *, #771, .T. ) ;
#304 = CARTESIAN_POINT ( 'NONE',  ( 5.500000000000000000, -2.500000000000000000, 4.000000000000000000 ) ) ;
#305 = LINE ( 'NONE', #813, #695 ) ;
#306 = PLANE ( 'NONE',  #956 ) ;
#307 = CARTESIAN_POINT ( 'NONE',  ( -5.799999999999999822, -0.5000000000000000000, 4.000000000000000000 ) ) ;
#308 = CARTESIAN_POINT ( 'NONE',  ( 4.999999999999999112, -0.5000000000000000000, -4.000000000000000000 ) ) ;
#309 = ORIENTED_EDGE ( 'NONE', *, *, #64, .T. ) ;
#310 = EDGE_CURVE ( 'NONE', #700, #508, #250, .T. ) ;
#311 = ORIENTED_EDGE ( 'NONE', *, *, #354, .F. ) ;
#312 = DIRECTION ( 'NONE',  ( 0.0000000000000000000, 0.0000000000000000000, -1.000000000000000000 ) ) ;
#313 = FACE_OUTER_BOUND ( 'NONE', #226, .T. ) ;
#314 = FACE_OUTER_BOUND ( 'NONE', #59, .T. ) ;
#315 = LINE ( 'NONE', #446, #87 ) ;
#316 = LINE ( 'NONE', #816, #484 ) ;
#317 = CARTESIAN_POINT ( 'NONE',  ( 4.999999999999999112, 0.0000000000000000000, 4.000000000000000000 ) ) ;
#318 = COORDINATED_UNIVERSAL_TIME_OFFSET ( 2, 0, .AHEAD. ) ;
#319 = EDGE_CURVE ( 'NONE', #846, #152, #855, .T. ) ;
#320 = AXIS2_PLACEMENT_3D ( 'NONE', #189, #992, #90 ) ;
#321 = DIRECTION ( 'NONE',  ( 1.000000000000000000, 0.0000000000000000000, 0.0000000000000000000 ) ) ;
#322 = VECTOR ( 'NONE', #20, 1000.000000000000000 ) ;
#323 = EDGE_CURVE ( 'NONE', #696, #280, #138, .T. ) ;
#324 = ORIENTED_EDGE ( 'NONE', *, *, #273, .F. ) ;
#325 = CARTESIAN_POINT ( 'NONE',  ( -4.000000000000000000, -2.500000000000000000, -5.500000000000000000 ) ) ;
#326 = ORIENTED_EDGE ( 'NONE', *, *, #192, .T. ) ;
#327 = VERTEX_POINT ( 'NONE', #757 ) ;
#328 = CARTESIAN_POINT ( 'NONE',  ( -5.500000000000000000, -0.5000000000000000000, 4.000000000000000000 ) ) ;
#329 = LINE ( 'NONE', #943, #519 ) ;
#330 = CIRCLE ( 'NONE', #331, 0.8000000000000003775 ) ;
#331 = AXIS2_PLACEMENT_3D ( 'NONE', #453, #199, #11 ) ;
#332 = DIRECTION ( 'NONE',  ( -0.0000000000000000000, -0.0000000000000000000, -1.000000000000000000 ) ) ;
#333 = CIRCLE ( 'NONE', #746, 0.5000000000000004441 ) ;
#334 = EDGE_CURVE ( 'NONE', #30, #937, #623, .T. ) ;
#335 = APPROVAL ( #234, 'UNSPECIFIED' ) ;
#336 = DIRECTION ( 'NONE',  ( 0.0000000000000000000, -1.000000000000000000, 0.0000000000000000000 ) ) ;
#337 = CARTESIAN_POINT ( 'NONE',  ( 5.799999999999999822, -2.500000000000000000, 4.000000000000000000 ) ) ;
#338 = CARTESIAN_POINT ( 'NONE',  ( -4.000000000000000000, -0.5000000000000000000, 4.000000000000000000 ) ) ;
#339 = CARTESIAN_POINT ( 'NONE',  ( 4.000000000000000000, 0.2999999999999999334, -4.000000000000000000 ) ) ;
#340 = CARTESIAN_POINT ( 'NONE',  ( 4.000000000000000000, -2.500000000000000000, -4.000000000000000000 ) ) ;
#341 = DIRECTION ( 'NONE',  ( 0.0000000000000000000, 1.000000000000000000, 0.0000000000000000000 ) ) ;
#342 = ORIENTED_EDGE ( 'NONE', *, *, #663, .T. ) ;
#343 = CC_DESIGN_PERSON_AND_ORGANIZATION_ASSIGNMENT ( #963, #490, ( #1015 ) ) ;
#344 = CARTESIAN_POINT ( 'NONE',  ( -4.000000000000000000, 0.0000000000000000000, -4.000000000000000000 ) ) ;
#345 = DIRECTION ( 'NONE',  ( -0.0000000000000000000, 1.000000000000000000, -0.0000000000000000000 ) ) ;
#346 = CYLINDRICAL_SURFACE ( 'NONE', #1131, 1.799999999999999600 ) ;
#347 = ORIENTED_EDGE ( 'NONE', *, *, #754, .T. ) ;
#348 = VERTEX_POINT ( 'NONE', #1082 ) ;
#349 = AXIS2_PLACEMENT_3D ( 'NONE', #710, #161, #880 ) ;
#350 = ORIENTED_EDGE ( 'NONE', *, *, #102, .T. ) ;
#351 = DIRECTION ( 'NONE',  ( -0.0000000000000000000, 1.000000000000000000, -0.0000000000000000000 ) ) ;
#352 = ORIENTED_EDGE ( 'NONE', *, *, #102, .F. ) ;
#353 = PLANE ( 'NONE',  #973 ) ;
#354 = EDGE_CURVE ( 'NONE', #214, #726, #1123, .T. ) ;
#355 = CARTESIAN_POINT ( 'NONE',  ( 4.000000000000000000, 0.2999999999999999334, 4.999999999999999112 ) ) ;
#356 = EDGE_CURVE ( 'NONE', #47, #700, #947, .T. ) ;
#357 = DIRECTION ( 'NONE',  ( 0.0000000000000000000, -1.000000000000000000, 0.0000000000000000000 ) ) ;
#358 = LINE ( 'NONE', #634, #552 ) ;
#359 = ORIENTED_EDGE ( 'NONE', *, *, #754, .F. ) ;
#360 = CARTESIAN_POINT ( 'NONE',  ( 4.000000000000000000, 0.0000000000000000000, 4.999999999999999112 ) ) ;
#361 = FACE_OUTER_BOUND ( 'NONE', #652, .T. ) ;
#362 = DIRECTION ( 'NONE',  ( 1.000000000000000000, 0.0000000000000000000, 0.0000000000000000000 ) ) ;
#363 = ORIENTED_EDGE ( 'NONE', *, *, #62, .F. ) ;
#364 = ADVANCED_FACE ( 'NONE', ( #5 ), #353, .T. ) ;
#365 = CARTESIAN_POINT ( 'NONE',  ( 5.799999999999999822, -0.5000000000000000000, -4.000000000000000000 ) ) ;
#366 = CARTESIAN_POINT ( 'NONE',  ( 4.000000000000000000, -2.500000000000000000, 4.000000000000000000 ) ) ;
#367 = EDGE_LOOP ( 'NONE', ( #1130, #439, #183, #187 ) ) ;
#368 = VECTOR ( 'NONE', #545, 1000.000000000000000 ) ;
#369 = EDGE_CURVE ( 'NONE', #327, #961, #330, .T. ) ;
#370 = AXIS2_PLACEMENT_3D ( 'NONE', #909, #184, #1069 ) ;
#371 = DIRECTION ( 'NONE',  ( -0.0000000000000000000, 1.000000000000000000, -0.0000000000000000000 ) ) ;
#372 = ADVANCED_FACE ( 'NONE', ( #162 ), #194, .T. ) ;
#373 = CARTESIAN_POINT ( 'NONE',  ( 4.000000000000000000, 0.0000000000000000000, -4.000000000000000000 ) ) ;
#374 = LOCAL_TIME ( 10, 2, 1.000000000000000000, #149 ) ;
#375 = FACE_OUTER_BOUND ( 'NONE', #1152, .T. ) ;
#376 = ORIENTED_EDGE ( 'NONE', *, *, #800, .F. ) ;
#377 = ORIENTED_EDGE ( 'NONE', *, *, #833, .T. ) ;
#378 = CARTESIAN_POINT ( 'NONE',  ( -4.000000000000000000, -2.500000000000000000, -4.000000000000000000 ) ) ;
#379 = DIRECTION ( 'NONE',  ( -0.0000000000000000000, -1.000000000000000000, -0.0000000000000000000 ) ) ;
#380 = CARTESIAN_POINT ( 'NONE',  ( -5.799999999999999822, 0.0000000000000000000, -4.000000000000000000 ) ) ;
#381 = DIRECTION ( 'NONE',  ( 0.0000000000000000000, -0.0000000000000000000, -1.000000000000000000 ) ) ;
#382 = DIRECTION ( 'NONE',  ( -1.000000000000000000, -0.0000000000000000000, -0.0000000000000000000 ) ) ;
#383 = VERTEX_POINT ( 'NONE', #360 ) ;
#384 = EDGE_CURVE ( 'NONE', #972, #348, #358, .T. ) ;
#385 = CARTESIAN_POINT ( 'NONE',  ( -4.000000000000000000, -0.5000000000000000000, -5.500000000000000000 ) ) ;
#386 = CARTESIAN_POINT ( 'NONE',  ( 4.000000000000000000, 0.0000000000000000000, 5.500000000000000000 ) ) ;
#387 = DIRECTION ( 'NONE',  ( -0.0000000000000000000, 0.0000000000000000000, -1.000000000000000000 ) ) ;
#388 = FACE_OUTER_BOUND ( 'NONE', #758, .T. ) ;
#389 = ORIENTED_EDGE ( 'NONE', *, *, #705, .T. ) ;
#390 = ORIENTED_EDGE ( 'NONE', *, *, #145, .F. ) ;
#391 = VECTOR ( 'NONE', #573, 1000.000000000000000 ) ;
#392 = PLANE ( 'NONE',  #690 ) ;
#393 = VERTEX_POINT ( 'NONE', #1078 ) ;
#394 = AXIS2_PLACEMENT_3D ( 'NONE', #338, #1068, #808 ) ;
#395 = EDGE_CURVE ( 'NONE', #711, #52, #433, .T. ) ;
#396 = CC_DESIGN_APPROVAL ( #335, ( #288 ) ) ;
#397 = APPROVAL_ROLE ( '' ) ;
#398 = CARTESIAN_POINT ( 'NONE',  ( -4.000000000000000000, -2.500000000000000000, 4.000000000000000000 ) ) ;
#399 = ORIENTED_EDGE ( 'NONE', *, *, #251, .T. ) ;
#400 = ORIENTED_EDGE ( 'NONE', *, *, #193, .T. ) ;
#401 = FACE_OUTER_BOUND ( 'NONE', #857, .T. ) ;
#402 = VECTOR ( 'NONE', #762, 1000.000000000000000 ) ;
#403 = AXIS2_PLACEMENT_3D ( 'NONE', #1154, #1112, #664 ) ;
#404 = APPROVAL_DATE_TIME ( #1070, #648 ) ;
#405 = FACE_OUTER_BOUND ( 'NONE', #1066, .T. ) ;
#406 = VERTEX_POINT ( 'NONE', #277 ) ;
#407 = ORIENTED_EDGE ( 'NONE', *, *, #1169, .T. ) ;
#408 = APPLICATION_CONTEXT ( 'configuration controlled 3d designs of mechanical parts and assemblies' ) ;
#409 = DIRECTION ( 'NONE',  ( -1.000000000000000000, -0.0000000000000000000, -0.0000000000000000000 ) ) ;
#410 = VERTEX_POINT ( 'NONE', #4 ) ;
#411 = ORIENTED_EDGE ( 'NONE', *, *, #267, .F. ) ;
#412 = AXIS2_PLACEMENT_3D ( 'NONE', #801, #611, #991 ) ;
#413 = DIRECTION ( 'NONE',  ( -0.0000000000000000000, -0.0000000000000000000, -1.000000000000000000 ) ) ;
#414 = FACE_OUTER_BOUND ( 'NONE', #592, .T. ) ;
#415 = ORIENTED_EDGE ( 'NONE', *, *, #619, .F. ) ;
#416 = EDGE_CURVE ( 'NONE', #603, #214, #1047, .T. ) ;
#417 = ORIENTED_EDGE ( 'NONE', *, *, #23, .T. ) ;
#418 = CIRCLE ( 'NONE', #1109, 1.799999999999999156 ) ;
#419 = DIRECTION ( 'NONE',  ( -1.000000000000000000, 0.0000000000000000000, -0.0000000000000000000 ) ) ;
#420 = ORIENTED_EDGE ( 'NONE', *, *, #434, .T. ) ;
#421 = DIRECTION ( 'NONE',  ( -1.000000000000000000, -0.0000000000000000000, 0.0000000000000000000 ) ) ;
#422 = FACE_OUTER_BOUND ( 'NONE', #1171, .T. ) ;
#423 = DIRECTION ( 'NONE',  ( 0.0000000000000000000, 0.0000000000000000000, 1.000000000000000000 ) ) ;
#424 = DIRECTION ( 'NONE',  ( 0.0000000000000000000, 0.0000000000000000000, -1.000000000000000000 ) ) ;
#425 = CARTESIAN_POINT ( 'NONE',  ( 4.000000000000000000, 0.2999999999999999334, 4.000000000000000000 ) ) ;
#426 = DIRECTION ( 'NONE',  ( -1.000000000000000000, 0.0000000000000000000, 0.0000000000000000000 ) ) ;
#427 = ORIENTED_EDGE ( 'NONE', *, *, #232, .T. ) ;
#428 = ORIENTED_EDGE ( 'NONE', *, *, #209, .F. ) ;
#429 = FACE_OUTER_BOUND ( 'NONE', #535, .T. ) ;
#430 = CIRCLE ( 'NONE', #1145, 0.5000000000000004441 ) ;
#431 = DIRECTION ( 'NONE',  ( -0.0000000000000000000, -1.000000000000000000, -0.0000000000000000000 ) ) ;
#432 = CIRCLE ( 'NONE', #586, 1.499999999999999556 ) ;
#433 = CIRCLE ( 'NONE', #230, 0.8000000000000003775 ) ;
#434 = EDGE_CURVE ( 'NONE', #842, #468, #1055, .T. ) ;
#435 = AXIS2_PLACEMENT_3D ( 'NONE', #825, #279, #97 ) ;
#436 = VERTEX_POINT ( 'NONE', #1107 ) ;
#437 = ORIENTED_EDGE ( 'NONE', *, *, #454, .T. ) ;
#438 = ORIENTED_EDGE ( 'NONE', *, *, #505, .T. ) ;
#439 = ORIENTED_EDGE ( 'NONE', *, *, #747, .F. ) ;
#440 = CALENDAR_DATE ( 2020, 6, 10 ) ;
#441 = ORIENTED_EDGE ( 'NONE', *, *, #647, .F. ) ;
#442 = CARTESIAN_POINT ( 'NONE',  ( -4.000000000000000000, -0.5000000000000000000, -4.000000000000000000 ) ) ;
#443 = CARTESIAN_POINT ( 'NONE',  ( 4.000000000000000000, -2.500000000000000000, 5.500000000000000000 ) ) ;
#444 = EDGE_CURVE ( 'NONE', #842, #449, #915, .T. ) ;
#445 = CARTESIAN_POINT ( 'NONE',  ( 4.000000000000000000, -2.500000000000000000, 5.500000000000000000 ) ) ;
#446 = CARTESIAN_POINT ( 'NONE',  ( -5.500000000000000000, -0.5000000000000000000, 0.0000000000000000000 ) ) ;
#447 = DIRECTION ( 'NONE',  ( 0.0000000000000000000, -1.000000000000000000, 0.0000000000000000000 ) ) ;
#448 = VECTOR ( 'NONE', #650, 1000.000000000000000 ) ;
#449 = VERTEX_POINT ( 'NONE', #74 ) ;
#450 = VECTOR ( 'NONE', #130, 1000.000000000000000 ) ;
#451 = ADVANCED_FACE ( 'NONE', ( #388 ), #968, .T. ) ;
#452 = FACE_OUTER_BOUND ( 'NONE', #1073, .T. ) ;
#453 = CARTESIAN_POINT ( 'NONE',  ( -4.000000000000000000, -0.5000000000000000000, -4.999999999999999112 ) ) ;
#454 = EDGE_CURVE ( 'NONE', #152, #696, #829, .T. ) ;
#455 = CC_DESIGN_PERSON_AND_ORGANIZATION_ASSIGNMENT ( #938, #136, ( #288 ) ) ;
#456 = ORIENTED_EDGE ( 'NONE', *, *, #530, .F. ) ;
#457 = VERTEX_POINT ( 'NONE', #888 ) ;
#458 = VECTOR ( 'NONE', #617, 1000.000000000000000 ) ;
#459 = ADVANCED_FACE ( 'NONE', ( #375 ), #680, .T. ) ;
#460 = DIRECTION ( 'NONE',  ( -1.000000000000000000, 0.0000000000000000000, 0.0000000000000000000 ) ) ;
#461 = CIRCLE ( 'NONE', #553, 0.8000000000000003775 ) ;
#462 = FACE_OUTER_BOUND ( 'NONE', #126, .T. ) ;
#463 = ORIENTED_EDGE ( 'NONE', *, *, #153, .T. ) ;
#464 = DIRECTION ( 'NONE',  ( 0.0000000000000000000, 0.0000000000000000000, -1.000000000000000000 ) ) ;
#465 = ORIENTED_EDGE ( 'NONE', *, *, #985, .T. ) ;
#466 = DIRECTION ( 'NONE',  ( 0.0000000000000000000, 0.0000000000000000000, 1.000000000000000000 ) ) ;
#467 = AXIS2_PLACEMENT_3D ( 'NONE', #491, #137, #687 ) ;
#468 = VERTEX_POINT ( 'NONE', #1058 ) ;
#469 = DIRECTION ( 'NONE',  ( 0.0000000000000000000, 0.0000000000000000000, -1.000000000000000000 ) ) ;
#470 = DIRECTION ( 'NONE',  ( -0.0000000000000000000, -1.000000000000000000, -0.0000000000000000000 ) ) ;
#471 = ORIENTED_EDGE ( 'NONE', *, *, #945, .T. ) ;
#472 = CARTESIAN_POINT ( 'NONE',  ( 4.999999999999999112, -0.5000000000000000000, 4.000000000000000000 ) ) ;
#473 = ADVANCED_FACE ( 'NONE', ( #1071 ), #150, .T. ) ;
#474 = DIRECTION ( 'NONE',  ( 0.0000000000000000000, 0.0000000000000000000, 1.000000000000000000 ) ) ;
#475 = CARTESIAN_POINT ( 'NONE',  ( -4.999999999999999112, -0.5000000000000000000, -4.000000000000000000 ) ) ;
#476 = CARTESIAN_POINT ( 'NONE',  ( 4.000000000000000000, 0.0000000000000000000, -4.999999999999999112 ) ) ;
#477 = AXIS2_PLACEMENT_3D ( 'NONE', #749, #12, #564 ) ;
#478 = CC_DESIGN_SECURITY_CLASSIFICATION ( #1015, ( #288 ) ) ;
#479 = CARTESIAN_POINT ( 'NONE',  ( 4.000000000000000000, -2.500000000000000000, 5.500000000000000000 ) ) ;
#480 = CARTESIAN_POINT ( 'NONE',  ( 4.000000000000000000, 0.2999999999999999334, -4.999999999999999112 ) ) ;
#481 = DIRECTION ( 'NONE',  ( 0.0000000000000000000, 0.0000000000000000000, -1.000000000000000000 ) ) ;
#482 = LINE ( 'NONE', #1095, #225 ) ;
#483 = DIRECTION ( 'NONE',  ( -1.000000000000000000, 0.0000000000000000000, 0.0000000000000000000 ) ) ;
#484 = VECTOR ( 'NONE', #89, 1000.000000000000000 ) ;
#485 = CARTESIAN_POINT ( 'NONE',  ( -4.000000000000000000, 0.0000000000000000000, 4.000000000000000000 ) ) ;
#486 = EDGE_CURVE ( 'NONE', #436, #842, #638, .T. ) ;
#487 = VERTEX_POINT ( 'NONE', #179 ) ;
#488 = DIRECTION ( 'NONE',  ( 1.000000000000000000, 0.0000000000000000000, -0.0000000000000000000 ) ) ;
#489 = EDGE_CURVE ( 'NONE', #1124, #152, #105, .T. ) ;
#490 = PERSON_AND_ORGANIZATION_ROLE ( 'classification_officer' ) ;
#491 = CARTESIAN_POINT ( 'NONE',  ( 4.000000000000000000, -0.5000000000000000000, 4.999999999999999112 ) ) ;
#492 = ADVANCED_FACE ( 'NONE', ( #405 ), #173, .T. ) ;
#493 = ORIENTED_EDGE ( 'NONE', *, *, #833, .F. ) ;
#494 = DIRECTION ( 'NONE',  ( 0.0000000000000000000, 0.0000000000000000000, 1.000000000000000000 ) ) ;
#495 = ORIENTED_EDGE ( 'NONE', *, *, #166, .F. ) ;
#496 = CYLINDRICAL_SURFACE ( 'NONE', #320, 1.499999999999999556 ) ;
#497 = AXIS2_PLACEMENT_3D ( 'NONE', #123, #766, #28 ) ;
#498 = VECTOR ( 'NONE', #662, 1000.000000000000000 ) ;
#499 = LINE ( 'NONE', #1100, #1089 ) ;
#500 = ORIENTED_EDGE ( 'NONE', *, *, #454, .F. ) ;
#501 = EDGE_CURVE ( 'NONE', #923, #449, #996, .T. ) ;
#502 = AXIS2_PLACEMENT_3D ( 'NONE', #73, #714, #987 ) ;
#503 = ORIENTED_EDGE ( 'NONE', *, *, #131, .T. ) ;
#504 = APPROVAL_STATUS ( 'not_yet_approved' ) ;
#505 = EDGE_CURVE ( 'NONE', #457, #923, #900, .T. ) ;
#506 = LINE ( 'NONE', #160, #181 ) ;
#507 = CYLINDRICAL_SURFACE ( 'NONE', #119, 0.5000000000000004441 ) ;
#508 = VERTEX_POINT ( 'NONE', #970 ) ;
#509 = CARTESIAN_POINT ( 'NONE',  ( 4.000000000000000000, -0.5000000000000000000, 4.000000000000000000 ) ) ;
#510 = ORIENTED_EDGE ( 'NONE', *, *, #100, .F. ) ;
#511 = DIRECTION ( 'NONE',  ( 0.0000000000000000000, 0.0000000000000000000, -1.000000000000000000 ) ) ;
#512 = FACE_OUTER_BOUND ( 'NONE', #830, .T. ) ;
#513 = DIRECTION ( 'NONE',  ( 0.0000000000000000000, 0.0000000000000000000, 1.000000000000000000 ) ) ;
#514 = TOROIDAL_SURFACE ( 'NONE', #803, 0.9999999999999991118, 0.5000000000000000000 ) ;
#515 = CARTESIAN_POINT ( 'NONE',  ( 4.000000000000000000, -0.5000000000000000000, 4.999999999999999112 ) ) ;
#516 = AXIS2_PLACEMENT_3D ( 'NONE', #641, #547, #995 ) ;
#517 = CARTESIAN_POINT ( 'NONE',  ( 5.799999999999999822, 0.0000000000000000000, 0.0000000000000000000 ) ) ;
#518 = EDGE_CURVE ( 'NONE', #9, #164, #738, .T. ) ;
#519 = VECTOR ( 'NONE', #1034, 1000.000000000000000 ) ;
#520 = AXIS2_PLACEMENT_3D ( 'NONE', #2, #351, #608 ) ;
#521 = LOCAL_TIME ( 10, 2, 1.000000000000000000, #1103 ) ;
#522 = CIRCLE ( 'NONE', #349, 0.8000000000000003775 ) ;
#523 = ORIENTED_EDGE ( 'NONE', *, *, #705, .F. ) ;
#524 = DIRECTION ( 'NONE',  ( 1.000000000000000000, -0.0000000000000000000, -0.0000000000000000000 ) ) ;
#525 = CARTESIAN_POINT ( 'NONE',  ( 4.000000000000000000, -2.500000000000000000, 4.000000000000000000 ) ) ;
#526 = DIRECTION ( 'NONE',  ( -0.0000000000000000000, 0.0000000000000000000, -1.000000000000000000 ) ) ;
#527 = CALENDAR_DATE ( 2020, 6, 10 ) ;
#528 = CARTESIAN_POINT ( 'NONE',  ( -4.000000000000000000, -2.500000000000000000, -5.500000000000000000 ) ) ;
#529 = DIRECTION ( 'NONE',  ( -0.0000000000000000000, 1.000000000000000000, -0.0000000000000000000 ) ) ;
#530 = EDGE_CURVE ( 'NONE', #410, #856, #506, .T. ) ;
#531 = DIRECTION ( 'NONE',  ( 0.0000000000000000000, -1.000000000000000000, 0.0000000000000000000 ) ) ;
#532 = ADVANCED_FACE ( 'NONE', ( #659 ), #1053, .T. ) ;
#533 = LINE ( 'NONE', #791, #58 ) ;
#534 = PRODUCT_DEFINITION ( 'UNKNOWN', '', #288, #607 ) ;
#535 = EDGE_LOOP ( 'NONE', ( #893, #182, #660, #870 ) ) ;
#536 = DIRECTION ( 'NONE',  ( -0.0000000000000000000, -1.000000000000000000, -0.0000000000000000000 ) ) ;
#537 = VECTOR ( 'NONE', #616, 1000.000000000000000 ) ;
#538 = CARTESIAN_POINT ( 'NONE',  ( 4.000000000000000000, 0.2999999999999999334, 4.999999999999999112 ) ) ;
#539 = ADVANCED_FACE ( 'NONE', ( #1104 ), #1046, .T. ) ;
#540 = EDGE_LOOP ( 'NONE', ( #1012, #428, #688, #1087 ) ) ;
#541 = PERSON_AND_ORGANIZATION ( #93, #899 ) ;
#542 = CARTESIAN_POINT ( 'NONE',  ( 4.000000000000000000, -0.5000000000000000000, -5.500000000000000000 ) ) ;
#543 = EDGE_CURVE ( 'NONE', #726, #863, #877, .T. ) ;
#544 = EDGE_LOOP ( 'NONE', ( #572, #1072, #741, #916 ) ) ;
#545 = DIRECTION ( 'NONE',  ( 1.000000000000000000, 0.0000000000000000000, 0.0000000000000000000 ) ) ;
#546 = EDGE_CURVE ( 'NONE', #52, #410, #1025, .T. ) ;
#547 = DIRECTION ( 'NONE',  ( 0.0000000000000000000, -0.0000000000000000000, -1.000000000000000000 ) ) ;
#548 = ADVANCED_FACE ( 'NONE', ( #118 ), #255, .T. ) ;
#549 = LINE ( 'NONE', #274, #17 ) ;
#550 = FACE_OUTER_BOUND ( 'NONE', #544, .T. ) ;
#551 = DIRECTION ( 'NONE',  ( 0.0000000000000000000, -1.000000000000000000, 0.0000000000000000000 ) ) ;
#552 = VECTOR ( 'NONE', #1005, 1000.000000000000000 ) ;
#553 = AXIS2_PLACEMENT_3D ( 'NONE', #308, #227, #127 ) ;
#554 = DIRECTION ( 'NONE',  ( 0.0000000000000000000, 0.0000000000000000000, -1.000000000000000000 ) ) ;
#555 = DIRECTION ( 'NONE',  ( 0.0000000000000000000, 1.000000000000000000, 0.0000000000000000000 ) ) ;
#556 = LOCAL_TIME ( 10, 2, 1.000000000000000000, #54 ) ;
#557 = CARTESIAN_POINT ( 'NONE',  ( 5.500000000000000000, -2.500000000000000000, -4.000000000000000000 ) ) ;
#558 = CARTESIAN_POINT ( 'NONE',  ( 4.000000000000000000, -0.5000000000000000000, -4.999999999999999112 ) ) ;
#559 = DIRECTION ( 'NONE',  ( -0.0000000000000000000, -0.0000000000000000000, -1.000000000000000000 ) ) ;
#560 = EDGE_CURVE ( 'NONE', #775, #47, #301, .T. ) ;
#561 = AXIS2_PLACEMENT_3D ( 'NONE', #268, #83, #257 ) ;
#562 = CARTESIAN_POINT ( 'NONE',  ( 4.999999999999999112, 0.0000000000000000000, -4.000000000000000000 ) ) ;
#563 = CARTESIAN_POINT ( 'NONE',  ( -5.500000000000000000, 0.0000000000000000000, 0.0000000000000000000 ) ) ;
#564 = DIRECTION ( 'NONE',  ( 0.0000000000000000000, -0.0000000000000000000, -1.000000000000000000 ) ) ;
#565 = LINE ( 'NONE', #380, #601 ) ;
#566 = DIRECTION ( 'NONE',  ( -1.000000000000000000, 0.0000000000000000000, 0.0000000000000000000 ) ) ;
#567 = ORIENTED_EDGE ( 'NONE', *, *, #905, .F. ) ;
#568 = CARTESIAN_POINT ( 'NONE',  ( -4.000000000000000000, 0.2999999999999999334, -4.000000000000000000 ) ) ;
#569 = DIRECTION ( 'NONE',  ( 0.0000000000000000000, 0.0000000000000000000, -1.000000000000000000 ) ) ;
#570 = CARTESIAN_POINT ( 'NONE',  ( -4.999999999999999112, 0.0000000000000000000, -4.000000000000000000 ) ) ;
#571 = EDGE_CURVE ( 'NONE', #961, #863, #533, .T. ) ;
#572 = ORIENTED_EDGE ( 'NONE', *, *, #287, .T. ) ;
#573 = DIRECTION ( 'NONE',  ( -1.000000000000000000, -0.0000000000000000000, 0.0000000000000000000 ) ) ;
#574 = DIRECTION ( 'NONE',  ( 0.0000000000000000000, 0.0000000000000000000, -1.000000000000000000 ) ) ;
#575 = DIRECTION ( 'NONE',  ( 1.000000000000000000, 0.0000000000000000000, 0.0000000000000000000 ) ) ;
#576 = FACE_OUTER_BOUND ( 'NONE', #593, .T. ) ;
#577 = CARTESIAN_POINT ( 'NONE',  ( -4.999999999999999112, -0.5000000000000000000, 0.0000000000000000000 ) ) ;
#578 = CARTESIAN_POINT ( 'NONE',  ( -5.799999999999999822, -0.4999999999999998890, 0.0000000000000000000 ) ) ;
#579 = DIRECTION ( 'NONE',  ( -1.000000000000000000, -0.0000000000000000000, -0.0000000000000000000 ) ) ;
#580 = LINE ( 'NONE', #216, #498 ) ;
#581 = FACE_OUTER_BOUND ( 'NONE', #984, .T. ) ;
#582 = LINE ( 'NONE', #675, #450 ) ;
#583 = DIRECTION ( 'NONE',  ( -1.000000000000000000, 0.0000000000000000000, 0.0000000000000000000 ) ) ;
#584 = AXIS2_PLACEMENT_3D ( 'NONE', #80, #988, #426 ) ;
#585 = EDGE_CURVE ( 'NONE', #976, #508, #71, .T. ) ;
#586 = AXIS2_PLACEMENT_3D ( 'NONE', #967, #536, #362 ) ;
#587 = DATE_TIME_ROLE ( 'creation_date' ) ;
#588 = VERTEX_POINT ( 'NONE', #981 ) ;
#589 = EDGE_CURVE ( 'NONE', #63, #280, #1009, .T. ) ;
#590 = CARTESIAN_POINT ( 'NONE',  ( 4.999999999999999112, 0.2999999999999999334, -4.000000000000000000 ) ) ;
#591 = VECTOR ( 'NONE', #839, 1000.000000000000000 ) ;
#592 = EDGE_LOOP ( 'NONE', ( #342, #1085, #495, #263 ) ) ;
#593 = EDGE_LOOP ( 'NONE', ( #139, #204, #1162, #716 ) ) ;
#594 =( NAMED_UNIT ( * ) SI_UNIT ( $, .STERADIAN. ) SOLID_ANGLE_UNIT ( ) );
#595 = ORIENTED_EDGE ( 'NONE', *, *, #273, .T. ) ;
#596 = CARTESIAN_POINT ( 'NONE',  ( 4.999999999999999112, -0.5000000000000000000, 4.000000000000000000 ) ) ;
#597 = CYLINDRICAL_SURFACE ( 'NONE', #1041, 0.5000000000000004441 ) ;
#598 = DIRECTION ( 'NONE',  ( 0.0000000000000000000, 0.0000000000000000000, -1.000000000000000000 ) ) ;
#599 = EDGE_CURVE ( 'NONE', #449, #1096, #784, .T. ) ;
#600 = EDGE_CURVE ( 'NONE', #842, #937, #315, .T. ) ;
#601 = VECTOR ( 'NONE', #843, 1000.000000000000000 ) ;
#602 = ORIENTED_EDGE ( 'NONE', *, *, #918, .F. ) ;
#603 = VERTEX_POINT ( 'NONE', #269 ) ;
#604 = DIRECTION ( 'NONE',  ( 0.0000000000000000000, 0.0000000000000000000, 1.000000000000000000 ) ) ;
#605 = EDGE_LOOP ( 'NONE', ( #176, #146, #614, #347 ) ) ;
#606 = DIRECTION ( 'NONE',  ( 0.0000000000000000000, 1.000000000000000000, 0.0000000000000000000 ) ) ;
#607 = DESIGN_CONTEXT ( 'detailed design', #408, 'design' ) ;
#608 = DIRECTION ( 'NONE',  ( 0.0000000000000000000, 0.0000000000000000000, 1.000000000000000000 ) ) ;
#609 = DIRECTION ( 'NONE',  ( -6.123233995736766036E-17, 0.0000000000000000000, -1.000000000000000000 ) ) ;
#610 = AXIS2_PLACEMENT_3D ( 'NONE', #224, #946, #1031 ) ;
#611 = DIRECTION ( 'NONE',  ( -0.0000000000000000000, -1.000000000000000000, -0.0000000000000000000 ) ) ;
#612 = CARTESIAN_POINT ( 'NONE',  ( 4.000000000000000000, -0.5000000000000000000, 4.000000000000000000 ) ) ;
#613 = ORIENTED_EDGE ( 'NONE', *, *, #319, .F. ) ;
#614 = ORIENTED_EDGE ( 'NONE', *, *, #489, .T. ) ;
#615 = CIRCLE ( 'NONE', #835, 0.9999999999999991118 ) ;
#616 = DIRECTION ( 'NONE',  ( -1.000000000000000000, 0.0000000000000000000, 0.0000000000000000000 ) ) ;
#617 = DIRECTION ( 'NONE',  ( 0.0000000000000000000, -0.0000000000000000000, -1.000000000000000000 ) ) ;
#618 = CARTESIAN_POINT ( 'NONE',  ( 4.000000000000000000, 0.0000000000000000000, 4.000000000000000000 ) ) ;
#619 = EDGE_CURVE ( 'NONE', #696, #726, #50, .T. ) ;
#620 = FACE_OUTER_BOUND ( 'NONE', #243, .T. ) ;
#621 = AXIS2_PLACEMENT_3D ( 'NONE', #886, #1160, #424 ) ;
#622 = APPROVAL_PERSON_ORGANIZATION ( #658, #648, #1146 ) ;
#623 = CIRCLE ( 'NONE', #919, 0.5000000000000004441 ) ;
#624 = VERTEX_POINT ( 'NONE', #632 ) ;
#625 = ORIENTED_EDGE ( 'NONE', *, *, #543, .T. ) ;
#626 = DIRECTION ( 'NONE',  ( 0.0000000000000000000, -1.000000000000000000, 0.0000000000000000000 ) ) ;
#627 = DIRECTION ( 'NONE',  ( -1.000000000000000000, -0.0000000000000000000, 0.0000000000000000000 ) ) ;
#628 = EDGE_LOOP ( 'NONE', ( #1155, #195, #217, #748 ) ) ;
#629 = ORIENTED_EDGE ( 'NONE', *, *, #334, .F. ) ;
#630 = PERSON_AND_ORGANIZATION ( #93, #899 ) ;
#631 = CARTESIAN_POINT ( 'NONE',  ( 4.000000000000000000, -0.5000000000000000000, 5.500000000000000000 ) ) ;
#632 = CARTESIAN_POINT ( 'NONE',  ( -4.000000000000000000, -2.500000000000000000, 5.799999999999999822 ) ) ;
#633 = EDGE_CURVE ( 'NONE', #775, #639, #955, .T. ) ;
#634 = CARTESIAN_POINT ( 'NONE',  ( 4.000000000000000000, -0.4999999999999998890, 5.799999999999999822 ) ) ;
#635 = CARTESIAN_POINT ( 'NONE',  ( 5.500000000000000000, -2.500000000000000000, -4.000000000000000000 ) ) ;
#636 = DIRECTION ( 'NONE',  ( 0.0000000000000000000, -1.000000000000000000, 0.0000000000000000000 ) ) ;
#637 = CARTESIAN_POINT ( 'NONE',  ( -4.000000000000000000, -0.5000000000000000000, 4.999999999999999112 ) ) ;
#638 = CIRCLE ( 'NONE', #584, 0.5000000000000004441 ) ;
#639 = VERTEX_POINT ( 'NONE', #538 ) ;
#640 = ORIENTED_EDGE ( 'NONE', *, *, #1119, .T. ) ;
#641 = CARTESIAN_POINT ( 'NONE',  ( -4.999999999999999112, -0.5000000000000000000, 0.0000000000000000000 ) ) ;
#642 = LINE ( 'NONE', #645, #239 ) ;
#643 = ORIENTED_EDGE ( 'NONE', *, *, #81, .T. ) ;
#644 = ADVANCED_FACE ( 'NONE', ( #693 ), #496, .F. ) ;
#645 = CARTESIAN_POINT ( 'NONE',  ( -4.000000000000000000, 0.0000000000000000000, 5.799999999999999822 ) ) ;
#646 = CIRCLE ( 'NONE', #467, 0.5000000000000004441 ) ;
#647 = EDGE_CURVE ( 'NONE', #383, #222, #549, .T. ) ;
#648 = APPROVAL ( #504, 'UNSPECIFIED' ) ;
#649 = CARTESIAN_POINT ( 'NONE',  ( 4.999999999999999112, 0.2999999999999999334, 0.0000000000000000000 ) ) ;
#650 = DIRECTION ( 'NONE',  ( 0.0000000000000000000, -1.000000000000000000, 0.0000000000000000000 ) ) ;
#651 = ORIENTED_EDGE ( 'NONE', *, *, #822, .T. ) ;
#652 = EDGE_LOOP ( 'NONE', ( #681, #324, #1033, #163 ) ) ;
#653 = VECTOR ( 'NONE', #740, 1000.000000000000000 ) ;
#654 = DIRECTION ( 'NONE',  ( 0.0000000000000000000, 0.0000000000000000000, -1.000000000000000000 ) ) ;
#655 = LINE ( 'NONE', #212, #402 ) ;
#656 = DIRECTION ( 'NONE',  ( -0.0000000000000000000, -1.000000000000000000, -0.0000000000000000000 ) ) ;
#657 = CARTESIAN_POINT ( 'NONE',  ( 5.799999999999999822, -0.4999999999999998890, 0.0000000000000000000 ) ) ;
#658 = PERSON_AND_ORGANIZATION ( #93, #899 ) ;
#659 = FACE_OUTER_BOUND ( 'NONE', #892, .T. ) ;
#660 = ORIENTED_EDGE ( 'NONE', *, *, #585, .F. ) ;
#661 = VERTEX_POINT ( 'NONE', #904 ) ;
#662 = DIRECTION ( 'NONE',  ( -0.0000000000000000000, -0.0000000000000000000, -1.000000000000000000 ) ) ;
#663 = EDGE_CURVE ( 'NONE', #410, #624, #206, .T. ) ;
#664 = DIRECTION ( 'NONE',  ( 1.000000000000000000, 0.0000000000000000000, 0.0000000000000000000 ) ) ;
#665 = DIRECTION ( 'NONE',  ( 0.0000000000000000000, -1.000000000000000000, 0.0000000000000000000 ) ) ;
#666 = CARTESIAN_POINT ( 'NONE',  ( 4.000000000000000000, -2.500000000000000000, -5.500000000000000000 ) ) ;
#667 = PLANE ( 'NONE',  #285 ) ;
#668 = ORIENTED_EDGE ( 'NONE', *, *, #518, .T. ) ;
#669 = ORIENTED_EDGE ( 'NONE', *, *, #875, .T. ) ;
#670 = APPROVAL_PERSON_ORGANIZATION ( #294, #335, #1137 ) ;
#671 = PLANE ( 'NONE',  #111 ) ;
#672 = DIRECTION ( 'NONE',  ( -1.000000000000000000, 0.0000000000000000000, 0.0000000000000000000 ) ) ;
#673 = CARTESIAN_POINT ( 'NONE',  ( 5.799999999999999822, -0.5000000000000000000, 4.000000000000000000 ) ) ;
#674 = ADVANCED_FACE ( 'NONE', ( #429 ), #265, .T. ) ;
#675 = CARTESIAN_POINT ( 'NONE',  ( -5.500000000000000000, -2.500000000000000000, 0.0000000000000000000 ) ) ;
#676 = DIRECTION ( 'NONE',  ( 0.0000000000000000000, -1.000000000000000000, 0.0000000000000000000 ) ) ;
#677 = CARTESIAN_POINT ( 'NONE',  ( 4.000000000000000000, 0.0000000000000000000, 4.000000000000000000 ) ) ;
#678 = CARTESIAN_POINT ( 'NONE',  ( 4.999999999999999112, 0.2999999999999999334, 4.000000000000000000 ) ) ;
#679 = DIRECTION ( 'NONE',  ( 0.0000000000000000000, -0.0000000000000000000, -1.000000000000000000 ) ) ;
#680 = TOROIDAL_SURFACE ( 'NONE', #1088, 0.9999999999999991118, 0.7999999999999999334 ) ;
#681 = ORIENTED_EDGE ( 'NONE', *, *, #253, .F. ) ;
#682 = ORIENTED_EDGE ( 'NONE', *, *, #633, .F. ) ;
#683 = AXIS2_PLACEMENT_3D ( 'NONE', #366, #1017, #464 ) ;
#684 = ADVANCED_FACE ( 'NONE', ( #717 ), #259, .F. ) ;
#685 = CARTESIAN_POINT ( 'NONE',  ( -4.000000000000000000, -2.500000000000000000, -4.000000000000000000 ) ) ;
#686 = EDGE_CURVE ( 'NONE', #47, #972, #1134, .T. ) ;
#687 = DIRECTION ( 'NONE',  ( 0.0000000000000000000, 0.0000000000000000000, 1.000000000000000000 ) ) ;
#688 = ORIENTED_EDGE ( 'NONE', *, *, #1135, .T. ) ;
#689 = FACE_OUTER_BOUND ( 'NONE', #932, .T. ) ;
#690 = AXIS2_PLACEMENT_3D ( 'NONE', #860, #1040, #494 ) ;
#691 = ORIENTED_EDGE ( 'NONE', *, *, #395, .T. ) ;
#692 = ORIENTED_EDGE ( 'NONE', *, *, #501, .F. ) ;
#693 = FACE_OUTER_BOUND ( 'NONE', #628, .T. ) ;
#694 = CIRCLE ( 'NONE', #403, 0.5000000000000004441 ) ;
#695 = VECTOR ( 'NONE', #419, 1000.000000000000000 ) ;
#696 = VERTEX_POINT ( 'NONE', #171 ) ;
#697 = ORIENTED_EDGE ( 'NONE', *, *, #356, .T. ) ;
#698 = AXIS2_PLACEMENT_3D ( 'NONE', #872, #966, #409 ) ;
#699 = DIRECTION ( 'NONE',  ( 0.0000000000000000000, 0.0000000000000000000, 1.000000000000000000 ) ) ;
#700 = VERTEX_POINT ( 'NONE', #337 ) ;
#701 = ORIENTED_EDGE ( 'NONE', *, *, #444, .F. ) ;
#702 = ORIENTED_EDGE ( 'NONE', *, *, #6, .T. ) ;
#703 = CARTESIAN_POINT ( 'NONE',  ( 0.0000000000000000000, 0.0000000000000000000, 0.0000000000000000000 ) ) ;
#704 = ADVANCED_BREP_SHAPE_REPRESENTATION ( 'MS110-10C', ( #155, #854 ), #1176 ) ;
#705 = EDGE_CURVE ( 'NONE', #436, #30, #1164, .T. ) ;
#706 = CARTESIAN_POINT ( 'NONE',  ( 4.999999999999999112, 0.0000000000000000000, 0.0000000000000000000 ) ) ;
#707 = VECTOR ( 'NONE', #96, 1000.000000000000000 ) ;
#708 = ORIENTED_EDGE ( 'NONE', *, *, #585, .T. ) ;
#709 = LINE ( 'NONE', #479, #391 ) ;
#710 = CARTESIAN_POINT ( 'NONE',  ( 4.000000000000000000, -0.5000000000000000000, 4.999999999999999112 ) ) ;
#711 = VERTEX_POINT ( 'NONE', #1173 ) ;
#712 = CARTESIAN_POINT ( 'NONE',  ( 4.000000000000000000, -2.500000000000000000, 5.799999999999999822 ) ) ;
#713 = AXIS2_PLACEMENT_3D ( 'NONE', #618, #1167, #897 ) ;
#714 = DIRECTION ( 'NONE',  ( -0.0000000000000000000, 1.000000000000000000, 0.0000000000000000000 ) ) ;
#715 = VERTEX_POINT ( 'NONE', #727 ) ;
#716 = ORIENTED_EDGE ( 'NONE', *, *, #889, .T. ) ;
#717 = FACE_OUTER_BOUND ( 'NONE', #750, .T. ) ;
#718 = EDGE_CURVE ( 'NONE', #222, #449, #1099, .T. ) ;
#719 = AXIS2_PLACEMENT_3D ( 'NONE', #515, #421, #68 ) ;
#720 = CIRCLE ( 'NONE', #1061, 1.799999999999999156 ) ;
#721 = PLANE ( 'NONE',  #561 ) ;
#722 = DIRECTION ( 'NONE',  ( -1.000000000000000000, -0.0000000000000000000, -0.0000000000000000000 ) ) ;
#723 = CARTESIAN_POINT ( 'NONE',  ( -4.000000000000000000, -0.5000000000000000000, 4.000000000000000000 ) ) ;
#724 = LINE ( 'NONE', #929, #785 ) ;
#725 = ORIENTED_EDGE ( 'NONE', *, *, #86, .T. ) ;
#726 = VERTEX_POINT ( 'NONE', #528 ) ;
#727 = CARTESIAN_POINT ( 'NONE',  ( -4.999999999999999112, 0.2999999999999999334, -4.000000000000000000 ) ) ;
#728 = DIRECTION ( 'NONE',  ( 0.0000000000000000000, 0.0000000000000000000, -1.000000000000000000 ) ) ;
#729 = ORIENTED_EDGE ( 'NONE', *, *, #310, .F. ) ;
#730 = COORDINATED_UNIVERSAL_TIME_OFFSET ( 2, 0, .AHEAD. ) ;
#731 = AXIS2_PLACEMENT_3D ( 'NONE', #1117, #36, #944 ) ;
#732 = ORIENTED_EDGE ( 'NONE', *, *, #128, .T. ) ;
#733 = CARTESIAN_POINT ( 'NONE',  ( 4.000000000000000000, -0.5000000000000000000, -4.000000000000000000 ) ) ;
#734 = DIRECTION ( 'NONE',  ( 0.0000000000000000000, 0.0000000000000000000, 1.000000000000000000 ) ) ;
#735 = ADVANCED_FACE ( 'NONE', ( #864 ), #745, .F. ) ;
#736 = AXIS2_PLACEMENT_3D ( 'NONE', #77, #336, #903 ) ;
#737 = DIRECTION ( 'NONE',  ( -6.123233995736766036E-17, 0.0000000000000000000, 1.000000000000000000 ) ) ;
#738 = LINE ( 'NONE', #706, #770 ) ;
#739 = CIRCLE ( 'NONE', #939, 0.9999999999999991118 ) ;
#740 = DIRECTION ( 'NONE',  ( 1.000000000000000000, 0.0000000000000000000, 0.0000000000000000000 ) ) ;
#741 = ORIENTED_EDGE ( 'NONE', *, *, #1050, .F. ) ;
#742 = DIRECTION ( 'NONE',  ( -1.000000000000000000, 0.0000000000000000000, 0.0000000000000000000 ) ) ;
#743 = EDGE_CURVE ( 'NONE', #1124, #700, #177, .T. ) ;
#744 = AXIS2_PLACEMENT_3D ( 'NONE', #934, #371, #466 ) ;
#745 = PLANE ( 'NONE',  #435 ) ;
#746 = AXIS2_PLACEMENT_3D ( 'NONE', #1018, #200, #469 ) ;
#747 = EDGE_CURVE ( 'NONE', #923, #976, #286, .T. ) ;
#748 = ORIENTED_EDGE ( 'NONE', *, *, #599, .T. ) ;
#749 = CARTESIAN_POINT ( 'NONE',  ( -5.500000000000000000, -2.500000000000000000, 0.0000000000000000000 ) ) ;
#750 = EDGE_LOOP ( 'NONE', ( #1163, #1143, #13, #465 ) ) ;
#751 = VECTOR ( 'NONE', #84, 1000.000000000000000 ) ;
#752 = DIRECTION ( 'NONE',  ( -0.0000000000000000000, -1.000000000000000000, -0.0000000000000000000 ) ) ;
#753 = FACE_OUTER_BOUND ( 'NONE', #245, .T. ) ;
#754 = EDGE_CURVE ( 'NONE', #152, #63, #894, .T. ) ;
#755 = LINE ( 'NONE', #1175, #983 ) ;
#756 = CARTESIAN_POINT ( 'NONE',  ( -4.000000000000000000, -0.5000000000000000000, -5.799999999999999822 ) ) ;
#757 = CARTESIAN_POINT ( 'NONE',  ( -4.000000000000000000, 0.2999999999999999334, -4.999999999999999112 ) ) ;
#758 = EDGE_LOOP ( 'NONE', ( #1125, #363, #376, #732 ) ) ;
#759 = DIRECTION ( 'NONE',  ( 0.0000000000000000000, 0.0000000000000000000, 1.000000000000000000 ) ) ;
#760 = PLANE ( 'NONE',  #477 ) ;
#761 = ORIENTED_EDGE ( 'NONE', *, *, #543, .F. ) ;
#762 = DIRECTION ( 'NONE',  ( -0.0000000000000000000, 0.0000000000000000000, -1.000000000000000000 ) ) ;
#763 = DIRECTION ( 'NONE',  ( -0.0000000000000000000, 1.000000000000000000, -0.0000000000000000000 ) ) ;
#764 = CARTESIAN_POINT ( 'NONE',  ( -4.000000000000000000, 0.0000000000000000000, -4.000000000000000000 ) ) ;
#765 = DIRECTION ( 'NONE',  ( 0.0000000000000000000, -0.0000000000000000000, -1.000000000000000000 ) ) ;
#766 = DIRECTION ( 'NONE',  ( -0.0000000000000000000, -0.0000000000000000000, -1.000000000000000000 ) ) ;
#767 = DIRECTION ( 'NONE',  ( 0.0000000000000000000, 0.0000000000000000000, 1.000000000000000000 ) ) ;
#768 = CARTESIAN_POINT ( 'NONE',  ( 5.799999999999999822, 0.0000000000000000000, -4.000000000000000000 ) ) ;
#769 = DIRECTION ( 'NONE',  ( -0.0000000000000000000, -1.000000000000000000, -0.0000000000000000000 ) ) ;
#770 = VECTOR ( 'NONE', #413, 1000.000000000000000 ) ;
#771 = EDGE_CURVE ( 'NONE', #639, #393, #927, .T. ) ;
#772 = ORIENTED_EDGE ( 'NONE', *, *, #62, .T. ) ;
#773 = FACE_OUTER_BOUND ( 'NONE', #605, .T. ) ;
#774 = CARTESIAN_POINT ( 'NONE',  ( -4.999999999999999112, -0.5000000000000000000, -4.000000000000000000 ) ) ;
#775 = VERTEX_POINT ( 'NONE', #678 ) ;
#776 = ADVANCED_FACE ( 'NONE', ( #780 ), #721, .T. ) ;
#777 = DIRECTION ( 'NONE',  ( -0.0000000000000000000, 1.000000000000000000, 0.0000000000000000000 ) ) ;
#778 = LINE ( 'NONE', #476, #974 ) ;
#779 = ADVANCED_FACE ( 'NONE', ( #401 ), #895, .T. ) ;
#780 = FACE_OUTER_BOUND ( 'NONE', #1076, .T. ) ;
#781 = PERSON_AND_ORGANIZATION_ROLE ( 'creator' ) ;
#782 = CARTESIAN_POINT ( 'NONE',  ( 4.000000000000000000, -0.5000000000000000000, 4.000000000000000000 ) ) ;
#783 = FACE_OUTER_BOUND ( 'NONE', #788, .T. ) ;
#784 = LINE ( 'NONE', #811, #980 ) ;
#785 = VECTOR ( 'NONE', #551, 1000.000000000000000 ) ;
#786 = EDGE_CURVE ( 'NONE', #508, #624, #1035, .T. ) ;
#787 = AXIS2_PLACEMENT_3D ( 'NONE', #340, #345, #734 ) ;
#788 = EDGE_LOOP ( 'NONE', ( #701, #202, #643, #798 ) ) ;
#789 = LOCAL_TIME ( 10, 2, 1.000000000000000000, #730 ) ;
#790 = AXIS2_PLACEMENT_3D ( 'NONE', #782, #951, #312 ) ;
#791 = CARTESIAN_POINT ( 'NONE',  ( -4.000000000000000000, 0.0000000000000000000, -5.799999999999999822 ) ) ;
#792 = APPLICATION_CONTEXT ( 'configuration controlled 3d designs of mechanical parts and assemblies' ) ;
#793 = DIRECTION ( 'NONE',  ( -0.0000000000000000000, -1.000000000000000000, -0.0000000000000000000 ) ) ;
#794 = VECTOR ( 'NONE', #793, 1000.000000000000000 ) ;
#795 = ORIENTED_EDGE ( 'NONE', *, *, #384, .F. ) ;
#796 = AXIS2_PLACEMENT_3D ( 'NONE', #733, #271, #94 ) ;
#797 = DIRECTION ( 'NONE',  ( -0.0000000000000000000, 0.0000000000000000000, -1.000000000000000000 ) ) ;
#798 = ORIENTED_EDGE ( 'NONE', *, *, #718, .T. ) ;
#799 = ORIENTED_EDGE ( 'NONE', *, *, #1051, .T. ) ;
#800 = EDGE_CURVE ( 'NONE', #1174, #1141, #615, .T. ) ;
#801 = CARTESIAN_POINT ( 'NONE',  ( -4.000000000000000000, -0.5000000000000000000, -4.000000000000000000 ) ) ;
#802 = AXIS2_PLACEMENT_3D ( 'NONE', #685, #1023, #125 ) ;
#803 = AXIS2_PLACEMENT_3D ( 'NONE', #175, #606, #511 ) ;
#804 = VECTOR ( 'NONE', #72, 1000.000000000000000 ) ;
#805 = VECTOR ( 'NONE', #676, 1000.000000000000000 ) ;
#806 = VECTOR ( 'NONE', #357, 1000.000000000000000 ) ;
#807 = CARTESIAN_POINT ( 'NONE',  ( 4.000000000000000000, 0.0000000000000000000, -5.500000000000000000 ) ) ;
#808 = DIRECTION ( 'NONE',  ( -1.000000000000000000, 0.0000000000000000000, 0.0000000000000000000 ) ) ;
#809 = APPROVAL_PERSON_ORGANIZATION ( #541, #247, #397 ) ;
#810 = CARTESIAN_POINT ( 'NONE',  ( -4.000000000000000000, -2.500000000000000000, -5.799999999999999822 ) ) ;
#811 = CARTESIAN_POINT ( 'NONE',  ( -4.000000000000000000, 0.0000000000000000000, 5.500000000000000000 ) ) ;
#812 = ORIENTED_EDGE ( 'NONE', *, *, #518, .F. ) ;
#813 = CARTESIAN_POINT ( 'NONE',  ( 4.000000000000000000, -2.500000000000000000, -5.799999999999999822 ) ) ;
#814 = DIRECTION ( 'NONE',  ( 1.000000000000000000, 0.0000000000000000000, 0.0000000000000000000 ) ) ;
#815 = AXIS2_PLACEMENT_3D ( 'NONE', #66, #524, #1165 ) ;
#816 = CARTESIAN_POINT ( 'NONE',  ( 4.000000000000000000, 0.0000000000000000000, -5.799999999999999822 ) ) ;
#817 = DIRECTION ( 'NONE',  ( 0.0000000000000000000, 0.0000000000000000000, 1.000000000000000000 ) ) ;
#818 = VECTOR ( 'NONE', #876, 1000.000000000000000 ) ;
#819 = ORIENTED_EDGE ( 'NONE', *, *, #1121, .F. ) ;
#820 = PRODUCT ( 'MS110-10C', 'MS110-10C', '', ( #148 ) ) ;
#821 = EDGE_LOOP ( 'NONE', ( #24, #427, #971, #196, #503, #241, #682, #114 ) ) ;
#822 = EDGE_CURVE ( 'NONE', #937, #214, #237, .T. ) ;
#823 = CARTESIAN_POINT ( 'NONE',  ( -5.500000000000000000, 0.0000000000000000000, 4.000000000000000000 ) ) ;
#824 = ORIENTED_EDGE ( 'NONE', *, *, #599, .F. ) ;
#825 = CARTESIAN_POINT ( 'NONE',  ( 4.000000000000000000, 0.0000000000000000000, -5.500000000000000000 ) ) ;
#826 = ADVANCED_FACE ( 'NONE', ( #98 ), #514, .F. ) ;
#827 = CARTESIAN_POINT ( 'NONE',  ( -4.000000000000000000, 0.0000000000000000000, -5.500000000000000000 ) ) ;
#828 = CARTESIAN_POINT ( 'NONE',  ( 5.799999999999999822, 0.0000000000000000000, 4.000000000000000000 ) ) ;
#829 = CIRCLE ( 'NONE', #21, 1.499999999999999556 ) ;
#830 = EDGE_LOOP ( 'NONE', ( #954, #629, #523, #837 ) ) ;
#831 = ORIENTED_EDGE ( 'NONE', *, *, #1014, .F. ) ;
#832 = AXIS2_PLACEMENT_3D ( 'NONE', #509, #159, #248 ) ;
#833 = EDGE_CURVE ( 'NONE', #603, #696, #977, .T. ) ;
#834 = ADVANCED_FACE ( 'NONE', ( #313 ), #1008, .F. ) ;
#835 = AXIS2_PLACEMENT_3D ( 'NONE', #339, #264, #170 ) ;
#836 = DIRECTION ( 'NONE',  ( -0.0000000000000000000, -0.0000000000000000000, -1.000000000000000000 ) ) ;
#837 = ORIENTED_EDGE ( 'NONE', *, *, #486, .T. ) ;
#838 = ADVANCED_FACE ( 'NONE', ( #48 ), #960, .F. ) ;
#839 = DIRECTION ( 'NONE',  ( -1.000000000000000000, -0.0000000000000000000, 0.0000000000000000000 ) ) ;
#840 = AXIS2_PLACEMENT_3D ( 'NONE', #677, #769, #1024 ) ;
#841 = CIRCLE ( 'NONE', #853, 1.799999999999999600 ) ;
#842 = VERTEX_POINT ( 'NONE', #328 ) ;
#843 = DIRECTION ( 'NONE',  ( -0.0000000000000000000, -1.000000000000000000, -0.0000000000000000000 ) ) ;
#844 = ORIENTED_EDGE ( 'NONE', *, *, #43, .F. ) ;
#845 = DIRECTION ( 'NONE',  ( -1.000000000000000000, -0.0000000000000000000, -0.0000000000000000000 ) ) ;
#846 = VERTEX_POINT ( 'NONE', #883 ) ;
#847 = DIRECTION ( 'NONE',  ( -1.000000000000000000, 0.0000000000000000000, 0.0000000000000000000 ) ) ;
#848 = CARTESIAN_POINT ( 'NONE',  ( -4.000000000000000000, -0.5000000000000000000, 4.000000000000000000 ) ) ;
#849 = CC_DESIGN_DATE_AND_TIME_ASSIGNMENT ( #1006, #587, ( #534 ) ) ;
#850 = DIRECTION ( 'NONE',  ( 0.0000000000000000000, 1.000000000000000000, 0.0000000000000000000 ) ) ;
#851 = DIRECTION ( 'NONE',  ( 0.0000000000000000000, 0.0000000000000000000, 1.000000000000000000 ) ) ;
#852 = EDGE_CURVE ( 'NONE', #393, #348, #22, .T. ) ;
#853 = AXIS2_PLACEMENT_3D ( 'NONE', #378, #470, #109 ) ;
#854 = AXIS2_PLACEMENT_3D ( 'NONE', #703, #699, #321 ) ;
#855 = LINE ( 'NONE', #113, #448 ) ;
#856 = VERTEX_POINT ( 'NONE', #1172 ) ;
#857 = EDGE_LOOP ( 'NONE', ( #1026, #602, #812, #1098, #151, #859, #389, #201 ) ) ;
#858 = CYLINDRICAL_SURFACE ( 'NONE', #104, 0.8000000000000003775 ) ;
#859 = ORIENTED_EDGE ( 'NONE', *, *, #81, .F. ) ;
#860 = CARTESIAN_POINT ( 'NONE',  ( -4.000000000000000000, -2.500000000000000000, 4.000000000000000000 ) ) ;
#861 = AXIS2_PLACEMENT_3D ( 'NONE', #398, #1128, #583 ) ;
#862 = ORIENTED_EDGE ( 'NONE', *, *, #589, .F. ) ;
#863 = VERTEX_POINT ( 'NONE', #810 ) ;
#864 = FACE_OUTER_BOUND ( 'NONE', #1059, .T. ) ;
#865 = CIRCLE ( 'NONE', #610, 0.9999999999999991118 ) ;
#866 = CALENDAR_DATE ( 2020, 6, 10 ) ;
#867 = VECTOR ( 'NONE', #281, 1000.000000000000000 ) ;
#868 = AXIS2_PLACEMENT_3D ( 'NONE', #344, #1054, #513 ) ;
#869 = ORIENTED_EDGE ( 'NONE', *, *, #369, .F. ) ;
#870 = ORIENTED_EDGE ( 'NONE', *, *, #957, .F. ) ;
#871 = PERSON_AND_ORGANIZATION_ROLE ( 'design_owner' ) ;
#872 = CARTESIAN_POINT ( 'NONE',  ( 4.000000000000000000, -2.500000000000000000, -5.500000000000000000 ) ) ;
#873 = ORIENTED_EDGE ( 'NONE', *, *, #251, .F. ) ;
#874 = EDGE_LOOP ( 'NONE', ( #651, #831, #174, #88 ) ) ;
#875 = EDGE_CURVE ( 'NONE', #406, #856, #881, .T. ) ;
#876 = DIRECTION ( 'NONE',  ( 0.0000000000000000000, 0.0000000000000000000, -1.000000000000000000 ) ) ;
#877 = LINE ( 'NONE', #325, #818 ) ;
#878 = ORIENTED_EDGE ( 'NONE', *, *, #985, .F. ) ;
#879 = ORIENTED_EDGE ( 'NONE', *, *, #589, .T. ) ;
#880 = DIRECTION ( 'NONE',  ( 0.0000000000000000000, 0.0000000000000000000, -1.000000000000000000 ) ) ;
#881 = LINE ( 'NONE', #986, #537 ) ;
#882 = ORIENTED_EDGE ( 'NONE', *, *, #1121, .T. ) ;
#883 = CARTESIAN_POINT ( 'NONE',  ( 5.500000000000000000, -0.5000000000000000000, -4.000000000000000000 ) ) ;
#884 = CARTESIAN_POINT ( 'NONE',  ( 5.500000000000000000, -2.500000000000000000, 0.0000000000000000000 ) ) ;
#885 = ORIENTED_EDGE ( 'NONE', *, *, #686, .T. ) ;
#886 = CARTESIAN_POINT ( 'NONE',  ( 4.000000000000000000, 0.0000000000000000000, 4.000000000000000000 ) ) ;
#887 = AXIS2_PLACEMENT_3D ( 'NONE', #517, #1161, #526 ) ;
#888 = CARTESIAN_POINT ( 'NONE',  ( 5.500000000000000000, -0.5000000000000000000, 4.000000000000000000 ) ) ;
#889 = EDGE_CURVE ( 'NONE', #639, #972, #522, .T. ) ;
#890 = AXIS2_PLACEMENT_3D ( 'NONE', #442, #1, #1075 ) ;
#891 = ORIENTED_EDGE ( 'NONE', *, *, #416, .T. ) ;
#892 = EDGE_LOOP ( 'NONE', ( #669, #1148, #761, #1003 ) ) ;
#893 = ORIENTED_EDGE ( 'NONE', *, *, #743, .T. ) ;
#894 = LINE ( 'NONE', #635, #653 ) ;
#895 = PLANE ( 'NONE',  #736 ) ;
#896 = CARTESIAN_POINT ( 'NONE',  ( 4.000000000000000000, -2.500000000000000000, -5.500000000000000000 ) ) ;
#897 = DIRECTION ( 'NONE',  ( 0.0000000000000000000, 0.0000000000000000000, -1.000000000000000000 ) ) ;
#898 = LINE ( 'NONE', #480, #289 ) ;
#899 = ORGANIZATION ( 'UNSPECIFIED', 'UNSPECIFIED', '' ) ;
#900 = CIRCLE ( 'NONE', #832, 1.499999999999999556 ) ;
#901 = ORIENTED_EDGE ( 'NONE', *, *, #145, .T. ) ;
#902 = ORIENTED_EDGE ( 'NONE', *, *, #889, .F. ) ;
#903 = DIRECTION ( 'NONE',  ( 0.0000000000000000000, -0.0000000000000000000, -1.000000000000000000 ) ) ;
#904 = CARTESIAN_POINT ( 'NONE',  ( 4.000000000000000000, -0.5000000000000000000, -5.799999999999999822 ) ) ;
#905 = EDGE_CURVE ( 'NONE', #280, #863, #305, .T. ) ;
#906 = ORIENTED_EDGE ( 'NONE', *, *, #718, .F. ) ;
#907 = ORIENTED_EDGE ( 'NONE', *, *, #942, .F. ) ;
#908 = APPROVAL_DATE_TIME ( #1113, #247 ) ;
#909 = CARTESIAN_POINT ( 'NONE',  ( 4.000000000000000000, 0.0000000000000000000, -4.000000000000000000 ) ) ;
#910 = EDGE_LOOP ( 'NONE', ( #795, #902, #303, #948 ) ) ;
#911 = DIRECTION ( 'NONE',  ( 0.0000000000000000000, 0.0000000000000000000, -1.000000000000000000 ) ) ;
#912 = AXIS2_PLACEMENT_3D ( 'NONE', #425, #1080, #911 ) ;
#913 = ADVANCED_FACE ( 'NONE', ( #361 ), #51, .T. ) ;
#914 = CARTESIAN_POINT ( 'NONE',  ( 5.500000000000000000, -2.500000000000000000, 4.000000000000000000 ) ) ;
#915 = CIRCLE ( 'NONE', #394, 1.499999999999999556 ) ;
#916 = ORIENTED_EDGE ( 'NONE', *, *, #560, .T. ) ;
#917 = CLOSED_SHELL ( 'NONE', ( #229, #779, #1000, #776, #548, #297, #135, #172, #451, #492, #108, #735, #14, #1079, #684, #186, #1027, #674, #364, #27, #1091, #473, #3, #112, #834, #838, #826, #978, #532, #913, #931, #539, #372, #302, #993, #99, #85, #8, #275, #459, #644, #191 ) ) ;
#918 = EDGE_CURVE ( 'NONE', #164, #588, #1010, .T. ) ;
#919 = AXIS2_PLACEMENT_3D ( 'NONE', #774, #759, #742 ) ;
#920 = CC_DESIGN_PERSON_AND_ORGANIZATION_ASSIGNMENT ( #197, #871, ( #820 ) ) ;
#921 = ORIENTED_EDGE ( 'NONE', *, *, #905, .T. ) ;
#922 = DIRECTION ( 'NONE',  ( -1.000000000000000000, -0.0000000000000000000, -0.0000000000000000000 ) ) ;
#923 = VERTEX_POINT ( 'NONE', #631 ) ;
#924 = DIRECTION ( 'NONE',  ( -1.000000000000000000, -0.0000000000000000000, 0.0000000000000000000 ) ) ;
#925 = ORIENTED_EDGE ( 'NONE', *, *, #64, .F. ) ;
#926 = ORIENTED_EDGE ( 'NONE', *, *, #323, .T. ) ;
#927 = LINE ( 'NONE', #355, #751 ) ;
#928 = LINE ( 'NONE', #768, #805 ) ;
#929 = CARTESIAN_POINT ( 'NONE',  ( -5.500000000000000000, 0.0000000000000000000, -4.000000000000000000 ) ) ;
#930 = PLANE ( 'NONE',  #1013 ) ;
#931 = ADVANCED_FACE ( 'NONE', ( #60 ), #1139, .T. ) ;
#932 = EDGE_LOOP ( 'NONE', ( #1111, #878, #417, #292 ) ) ;
#933 = ORIENTED_EDGE ( 'NONE', *, *, #131, .F. ) ;
#934 = CARTESIAN_POINT ( 'NONE',  ( 4.000000000000000000, 0.0000000000000000000, -4.000000000000000000 ) ) ;
#935 = DIRECTION ( 'NONE',  ( 0.0000000000000000000, 1.000000000000000000, 0.0000000000000000000 ) ) ;
#936 = ORIENTED_EDGE ( 'NONE', *, *, #1051, .F. ) ;
#937 = VERTEX_POINT ( 'NONE', #994 ) ;
#938 = PERSON_AND_ORGANIZATION ( #93, #899 ) ;
#939 = AXIS2_PLACEMENT_3D ( 'NONE', #764, #379, #1106 ) ;
#940 = CC_DESIGN_APPROVAL ( #247, ( #1015 ) ) ;
#941 = ORIENTED_EDGE ( 'NONE', *, *, #267, .T. ) ;
#942 = EDGE_CURVE ( 'NONE', #457, #1124, #755, .T. ) ;
#943 = CARTESIAN_POINT ( 'NONE',  ( 4.000000000000000000, 0.0000000000000000000, 5.799999999999999822 ) ) ;
#944 = DIRECTION ( 'NONE',  ( -1.000000000000000000, 0.0000000000000000000, 0.0000000000000000000 ) ) ;
#945 = EDGE_CURVE ( 'NONE', #661, #280, #316, .T. ) ;
#946 = DIRECTION ( 'NONE',  ( -0.0000000000000000000, 1.000000000000000000, 0.0000000000000000000 ) ) ;
#947 = LINE ( 'NONE', #828, #867 ) ;
#948 = ORIENTED_EDGE ( 'NONE', *, *, #852, .T. ) ;
#949 = VECTOR ( 'NONE', #847, 1000.000000000000000 ) ;
#950 = ORIENTED_EDGE ( 'NONE', *, *, #166, .T. ) ;
#951 = DIRECTION ( 'NONE',  ( 0.0000000000000000000, 1.000000000000000000, 0.0000000000000000000 ) ) ;
#952 = SECURITY_CLASSIFICATION_LEVEL ( 'unclassified' ) ;
#953 = ORIENTED_EDGE ( 'NONE', *, *, #167, .T. ) ;
#954 = ORIENTED_EDGE ( 'NONE', *, *, #600, .T. ) ;
#955 = CIRCLE ( 'NONE', #912, 0.9999999999999991118 ) ;
#956 = AXIS2_PLACEMENT_3D ( 'NONE', #1116, #32, #381 ) ;
#957 = EDGE_CURVE ( 'NONE', #1124, #976, #432, .T. ) ;
#958 = CYLINDRICAL_SURFACE ( 'NONE', #744, 1.799999999999999600 ) ;
#959 = AXIS2_PLACEMENT_3D ( 'NONE', #1016, #665, #836 ) ;
#960 = CYLINDRICAL_SURFACE ( 'NONE', #621, 1.499999999999999556 ) ;
#961 = VERTEX_POINT ( 'NONE', #756 ) ;
#962 = ORIENTED_EDGE ( 'NONE', *, *, #221, .F. ) ;
#963 = PERSON_AND_ORGANIZATION ( #93, #899 ) ;
#964 = ORIENTED_EDGE ( 'NONE', *, *, #232, .F. ) ;
#965 = AXIS2_PLACEMENT_3D ( 'NONE', #141, #579, #1126 ) ;
#966 = DIRECTION ( 'NONE',  ( 0.0000000000000000000, -1.000000000000000000, 0.0000000000000000000 ) ) ;
#967 = CARTESIAN_POINT ( 'NONE',  ( 4.000000000000000000, -2.500000000000000000, 4.000000000000000000 ) ) ;
#968 = TOROIDAL_SURFACE ( 'NONE', #101, 0.9999999999999991118, 0.7999999999999999334 ) ;
#969 = TOROIDAL_SURFACE ( 'NONE', #44, 0.9999999999999991118, 0.5000000000000000000 ) ;
#970 = CARTESIAN_POINT ( 'NONE',  ( 4.000000000000000000, -2.500000000000000000, 5.799999999999999822 ) ) ;
#971 = ORIENTED_EDGE ( 'NONE', *, *, #1135, .F. ) ;
#972 = VERTEX_POINT ( 'NONE', #1021 ) ;
#973 = AXIS2_PLACEMENT_3D ( 'NONE', #445, #447, #1002 ) ;
#974 = VECTOR ( 'NONE', #382, 1000.000000000000000 ) ;
#975 = DIRECTION ( 'NONE',  ( 0.0000000000000000000, -1.000000000000000000, 0.0000000000000000000 ) ) ;
#976 = VERTEX_POINT ( 'NONE', #1083 ) ;
#977 = LINE ( 'NONE', #807, #69 ) ;
#978 = ADVANCED_FACE ( 'NONE', ( #1057 ), #760, .T. ) ;
#979 = CYLINDRICAL_SURFACE ( 'NONE', #1097, 0.5000000000000004441 ) ;
#980 = VECTOR ( 'NONE', #531, 1000.000000000000000 ) ;
#981 = CARTESIAN_POINT ( 'NONE',  ( 4.000000000000000000, 0.0000000000000000000, -4.999999999999999112 ) ) ;
#982 = DIRECTION ( 'NONE',  ( -0.0000000000000000000, 1.000000000000000000, -0.0000000000000000000 ) ) ;
#983 = VECTOR ( 'NONE', #626, 1000.000000000000000 ) ;
#984 = EDGE_LOOP ( 'NONE', ( #326, #311, #55, #998 ) ) ;
#985 = EDGE_CURVE ( 'NONE', #588, #603, #75, .T. ) ;
#986 = CARTESIAN_POINT ( 'NONE',  ( -5.500000000000000000, -2.500000000000000000, -4.000000000000000000 ) ) ;
#987 = DIRECTION ( 'NONE',  ( 0.0000000000000000000, 0.0000000000000000000, -1.000000000000000000 ) ) ;
#988 = DIRECTION ( 'NONE',  ( 0.0000000000000000000, 0.0000000000000000000, 1.000000000000000000 ) ) ;
#989 = CALENDAR_DATE ( 2020, 6, 10 ) ;
#990 = ORIENTED_EDGE ( 'NONE', *, *, #852, .F. ) ;
#991 = DIRECTION ( 'NONE',  ( -1.000000000000000000, 0.0000000000000000000, 0.0000000000000000000 ) ) ;
#992 = DIRECTION ( 'NONE',  ( 0.0000000000000000000, 1.000000000000000000, 0.0000000000000000000 ) ) ;
#993 = ADVANCED_FACE ( 'NONE', ( #35 ), #969, .F. ) ;
#994 = CARTESIAN_POINT ( 'NONE',  ( -5.500000000000000000, -0.5000000000000000000, -4.000000000000000000 ) ) ;
#995 = DIRECTION ( 'NONE',  ( 1.000000000000000000, 0.0000000000000000000, 0.0000000000000000000 ) ) ;
#996 = LINE ( 'NONE', #293, #591 ) ;
#997 = EDGE_CURVE ( 'NONE', #30, #1056, #739, .T. ) ;
#998 = ORIENTED_EDGE ( 'NONE', *, *, #1001, .T. ) ;
#999 = VECTOR ( 'NONE', #1094, 1000.000000000000000 ) ;
#1000 = ADVANCED_FACE ( 'NONE', ( #773 ), #207, .T. ) ;
#1001 = EDGE_CURVE ( 'NONE', #937, #406, #724, .T. ) ;
#1002 = DIRECTION ( 'NONE',  ( -1.000000000000000000, -0.0000000000000000000, 0.0000000000000000000 ) ) ;
#1003 = ORIENTED_EDGE ( 'NONE', *, *, #192, .F. ) ;
#1004 = CIRCLE ( 'NONE', #840, 0.9999999999999991118 ) ;
#1005 = DIRECTION ( 'NONE',  ( -1.000000000000000000, -0.0000000000000000000, 0.0000000000000000000 ) ) ;
#1006 = DATE_AND_TIME ( #276, #521 ) ;
#1007 = CARTESIAN_POINT ( 'NONE',  ( -4.000000000000000000, 0.0000000000000000000, -4.999999999999999112 ) ) ;
#1008 = CYLINDRICAL_SURFACE ( 'NONE', #719, 0.5000000000000004441 ) ;
#1009 = CIRCLE ( 'NONE', #787, 1.799999999999999600 ) ;
#1010 = CIRCLE ( 'NONE', #370, 0.9999999999999991118 ) ;
#1011 = DIRECTION ( 'NONE',  ( 0.0000000000000000000, 0.0000000000000000000, 1.000000000000000000 ) ) ;
#1012 = ORIENTED_EDGE ( 'NONE', *, *, #1064, .F. ) ;
#1013 = AXIS2_PLACEMENT_3D ( 'NONE', #299, #569, #1115 ) ;
#1014 = EDGE_CURVE ( 'NONE', #1056, #214, #333, .T. ) ;
#1015 = SECURITY_CLASSIFICATION ( '', '', #952 ) ;
#1016 = CARTESIAN_POINT ( 'NONE',  ( 5.500000000000000000, -2.500000000000000000, 0.0000000000000000000 ) ) ;
#1017 = DIRECTION ( 'NONE',  ( -0.0000000000000000000, -1.000000000000000000, -0.0000000000000000000 ) ) ;
#1018 = CARTESIAN_POINT ( 'NONE',  ( -4.000000000000000000, -0.5000000000000000000, -4.999999999999999112 ) ) ;
#1019 = CARTESIAN_POINT ( 'NONE',  ( 4.000000000000000000, -2.500000000000000000, -5.799999999999999822 ) ) ;
#1020 = AXIS2_PLACEMENT_3D ( 'NONE', #485, #777, #228 ) ;
#1021 = CARTESIAN_POINT ( 'NONE',  ( 4.000000000000000000, -0.5000000000000000000, 5.799999999999999822 ) ) ;
#1022 = CARTESIAN_POINT ( 'NONE',  ( -4.000000000000000000, 0.0000000000000000000, 4.000000000000000000 ) ) ;
#1023 = DIRECTION ( 'NONE',  ( -0.0000000000000000000, -1.000000000000000000, -0.0000000000000000000 ) ) ;
#1024 = DIRECTION ( 'NONE',  ( 1.000000000000000000, 0.0000000000000000000, 0.0000000000000000000 ) ) ;
#1025 = LINE ( 'NONE', #1147, #794 ) ;
#1026 = ORIENTED_EDGE ( 'NONE', *, *, #23, .F. ) ;
#1027 = ADVANCED_FACE ( 'NONE', ( #291 ), #507, .F. ) ;
#1028 = CARTESIAN_POINT ( 'NONE',  ( -4.000000000000000000, -2.500000000000000000, 5.500000000000000000 ) ) ;
#1029 = PLANE ( 'NONE',  #731 ) ;
#1030 = ORIENTED_EDGE ( 'NONE', *, *, #209, .T. ) ;
#1031 = DIRECTION ( 'NONE',  ( 0.0000000000000000000, 0.0000000000000000000, -1.000000000000000000 ) ) ;
#1032 = APPROVAL_DATE_TIME ( #1077, #335 ) ;
#1033 = ORIENTED_EDGE ( 'NONE', *, *, #1064, .T. ) ;
#1034 = DIRECTION ( 'NONE',  ( -0.0000000000000000000, -1.000000000000000000, -0.0000000000000000000 ) ) ;
#1035 = LINE ( 'NONE', #712, #804 ) ;
#1036 = AXIS2_PLACEMENT_3D ( 'NONE', #568, #124, #767 ) ;
#1037 = CARTESIAN_POINT ( 'NONE',  ( 4.000000000000000000, -0.5000000000000000000, -4.999999999999999112 ) ) ;
#1038 = FACE_OUTER_BOUND ( 'NONE', #821, .T. ) ;
#1039 = LINE ( 'NONE', #657, #1084 ) ;
#1040 = DIRECTION ( 'NONE',  ( 0.0000000000000000000, -1.000000000000000000, 0.0000000000000000000 ) ) ;
#1041 = AXIS2_PLACEMENT_3D ( 'NONE', #1037, #1157, #604 ) ;
#1042 = VERTEX_POINT ( 'NONE', #365 ) ;
#1043 = APPROVAL_STATUS ( 'not_yet_approved' ) ;
#1044 = AXIS2_PLACEMENT_3D ( 'NONE', #558, #29, #26 ) ;
#1045 = APPLICATION_PROTOCOL_DEFINITION ( 'international standard', 'config_control_design', 1994, #408 ) ;
#1046 = PLANE ( 'NONE',  #246 ) ;
#1047 = LINE ( 'NONE', #542, #707 ) ;
#1048 = ORIENTED_EDGE ( 'NONE', *, *, #571, .F. ) ;
#1049 = ORIENTED_EDGE ( 'NONE', *, *, #319, .T. ) ;
#1050 = EDGE_CURVE ( 'NONE', #775, #1174, #252, .T. ) ;
#1051 = EDGE_CURVE ( 'NONE', #661, #961, #499, .T. ) ;
#1052 = ORIENTED_EDGE ( 'NONE', *, *, #945, .F. ) ;
#1053 = PLANE ( 'NONE',  #1090 ) ;
#1054 = DIRECTION ( 'NONE',  ( 0.0000000000000000000, 1.000000000000000000, 0.0000000000000000000 ) ) ;
#1055 = LINE ( 'NONE', #823, #1140 ) ;
#1056 = VERTEX_POINT ( 'NONE', #1007 ) ;
#1057 = FACE_OUTER_BOUND ( 'NONE', #215, .T. ) ;
#1058 = CARTESIAN_POINT ( 'NONE',  ( -5.500000000000000000, -2.500000000000000000, 4.000000000000000000 ) ) ;
#1059 = EDGE_LOOP ( 'NONE', ( #415, #493, #891, #1159 ) ) ;
#1060 = LOCAL_TIME ( 10, 2, 1.000000000000000000, #318 ) ;
#1061 = AXIS2_PLACEMENT_3D ( 'NONE', #25, #1102, #654 ) ;
#1062 = PRODUCT_DEFINITION_SHAPE ( 'NONE', 'NONE',  #534 ) ;
#1063 = DIRECTION ( 'NONE',  ( 1.000000000000000000, 0.0000000000000000000, 0.0000000000000000000 ) ) ;
#1064 = EDGE_CURVE ( 'NONE', #487, #961, #418, .T. ) ;
#1065 = AXIS2_PLACEMENT_3D ( 'NONE', #373, #15, #1011 ) ;
#1066 = EDGE_LOOP ( 'NONE', ( #953, #962, #92, #697 ) ) ;
#1067 = DIRECTION ( 'NONE',  ( 0.0000000000000000000, 0.0000000000000000000, -1.000000000000000000 ) ) ;
#1068 = DIRECTION ( 'NONE',  ( -0.0000000000000000000, 1.000000000000000000, 0.0000000000000000000 ) ) ;
#1069 = DIRECTION ( 'NONE',  ( 1.000000000000000000, 0.0000000000000000000, 0.0000000000000000000 ) ) ;
#1070 = DATE_AND_TIME ( #866, #374 ) ;
#1071 = FACE_OUTER_BOUND ( 'NONE', #142, .T. ) ;
#1072 = ORIENTED_EDGE ( 'NONE', *, *, #128, .F. ) ;
#1073 = EDGE_LOOP ( 'NONE', ( #95, #702, #941, #236 ) ) ;
#1074 = AXIS2_PLACEMENT_3D ( 'NONE', #386, #1122, #483 ) ;
#1075 = DIRECTION ( 'NONE',  ( 0.0000000000000000000, 0.0000000000000000000, 1.000000000000000000 ) ) ;
#1076 = EDGE_LOOP ( 'NONE', ( #359, #437, #926, #862 ) ) ;
#1077 = DATE_AND_TIME ( #527, #1060 ) ;
#1078 = CARTESIAN_POINT ( 'NONE',  ( -4.000000000000000000, 0.2999999999999999334, 4.999999999999999112 ) ) ;
#1079 = ADVANCED_FACE ( 'NONE', ( #462 ), #106, .F. ) ;
#1080 = DIRECTION ( 'NONE',  ( -0.0000000000000000000, -1.000000000000000000, -0.0000000000000000000 ) ) ;
#1081 = DIRECTION ( 'NONE',  ( 0.0000000000000000000, -1.000000000000000000, 0.0000000000000000000 ) ) ;
#1082 = CARTESIAN_POINT ( 'NONE',  ( -4.000000000000000000, -0.5000000000000000000, 5.799999999999999822 ) ) ;
#1083 = CARTESIAN_POINT ( 'NONE',  ( 4.000000000000000000, -2.500000000000000000, 5.500000000000000000 ) ) ;
#1084 = VECTOR ( 'NONE', #559, 1000.000000000000000 ) ;
#1085 = ORIENTED_EDGE ( 'NONE', *, *, #1086, .F. ) ;
#1086 = EDGE_CURVE ( 'NONE', #348, #624, #642, .T. ) ;
#1087 = ORIENTED_EDGE ( 'NONE', *, *, #369, .T. ) ;
#1088 = AXIS2_PLACEMENT_3D ( 'NONE', #723, #341, #728 ) ;
#1089 = VECTOR ( 'NONE', #922, 1000.000000000000000 ) ;
#1090 = AXIS2_PLACEMENT_3D ( 'NONE', #61, #156, #797 ) ;
#1091 = ADVANCED_FACE ( 'NONE', ( #7 ), #858, .T. ) ;
#1092 = DIRECTION ( 'NONE',  ( 0.0000000000000000000, 0.0000000000000000000, 1.000000000000000000 ) ) ;
#1093 = ORIENTED_EDGE ( 'NONE', *, *, #875, .F. ) ;
#1094 = DIRECTION ( 'NONE',  ( -0.0000000000000000000, -0.0000000000000000000, -1.000000000000000000 ) ) ;
#1095 = CARTESIAN_POINT ( 'NONE',  ( -4.000000000000000000, -2.500000000000000000, 5.500000000000000000 ) ) ;
#1096 = VERTEX_POINT ( 'NONE', #1028 ) ;
#1097 = AXIS2_PLACEMENT_3D ( 'NONE', #577, #679, #133 ) ;
#1098 = ORIENTED_EDGE ( 'NONE', *, *, #43, .T. ) ;
#1099 = CIRCLE ( 'NONE', #57, 0.5000000000000004441 ) ;
#1100 = CARTESIAN_POINT ( 'NONE',  ( 4.000000000000000000, -0.4999999999999998890, -5.799999999999999822 ) ) ;
#1101 = CIRCLE ( 'NONE', #1156, 0.8000000000000003775 ) ;
#1102 = DIRECTION ( 'NONE',  ( -0.0000000000000000000, 1.000000000000000000, 0.0000000000000000000 ) ) ;
#1103 = COORDINATED_UNIVERSAL_TIME_OFFSET ( 2, 0, .AHEAD. ) ;
#1104 = FACE_OUTER_BOUND ( 'NONE', #1129, .T. ) ;
#1105 = ORIENTED_EDGE ( 'NONE', *, *, #786, .F. ) ;
#1106 = DIRECTION ( 'NONE',  ( -1.000000000000000000, 0.0000000000000000000, 0.0000000000000000000 ) ) ;
#1107 = CARTESIAN_POINT ( 'NONE',  ( -4.999999999999999112, 0.0000000000000000000, 4.000000000000000000 ) ) ;
#1108 = ORIENTED_EDGE ( 'NONE', *, *, #1158, .T. ) ;
#1109 = AXIS2_PLACEMENT_3D ( 'NONE', #107, #752, #295 ) ;
#1110 = EDGE_LOOP ( 'NONE', ( #407, #188, #121, #420 ) ) ;
#1111 = ORIENTED_EDGE ( 'NONE', *, *, #416, .F. ) ;
#1112 = DIRECTION ( 'NONE',  ( -0.0000000000000000000, -0.0000000000000000000, -1.000000000000000000 ) ) ;
#1113 = DATE_AND_TIME ( #989, #556 ) ;
#1114 = CARTESIAN_POINT ( 'NONE',  ( -5.500000000000000000, -2.500000000000000000, 4.000000000000000000 ) ) ;
#1115 = DIRECTION ( 'NONE',  ( -1.000000000000000000, 0.0000000000000000000, -0.0000000000000000000 ) ) ;
#1116 = CARTESIAN_POINT ( 'NONE',  ( 4.000000000000000000, 0.2999999999999999889, -4.000000000000000000 ) ) ;
#1117 = CARTESIAN_POINT ( 'NONE',  ( 4.000000000000000000, 0.0000000000000000000, 5.799999999999999822 ) ) ;
#1118 = UNCERTAINTY_MEASURE_WITH_UNIT (LENGTH_MEASURE( 1.000000000000000082E-05 ), #154, 'distance_accuracy_value', 'NONE');
#1119 = EDGE_CURVE ( 'NONE', #468, #410, #165, .T. ) ;
#1120 = CARTESIAN_POINT ( 'NONE',  ( 5.500000000000000000, 0.0000000000000000000, 0.0000000000000000000 ) ) ;
#1121 = EDGE_CURVE ( 'NONE', #976, #1096, #709, .T. ) ;
#1122 = DIRECTION ( 'NONE',  ( 0.0000000000000000000, 0.0000000000000000000, 1.000000000000000000 ) ) ;
#1123 = LINE ( 'NONE', #827, #806 ) ;
#1124 = VERTEX_POINT ( 'NONE', #304 ) ;
#1125 = ORIENTED_EDGE ( 'NONE', *, *, #100, .T. ) ;
#1126 = DIRECTION ( 'NONE',  ( 0.0000000000000000000, 0.0000000000000000000, 1.000000000000000000 ) ) ;
#1127 = ORIENTED_EDGE ( 'NONE', *, *, #323, .F. ) ;
#1128 = DIRECTION ( 'NONE',  ( -0.0000000000000000000, 1.000000000000000000, 0.0000000000000000000 ) ) ;
#1129 = EDGE_LOOP ( 'NONE', ( #456, #1144, #399, #595 ) ) ;
#1130 = ORIENTED_EDGE ( 'NONE', *, *, #957, .T. ) ;
#1131 = AXIS2_PLACEMENT_3D ( 'NONE', #1022, #935, #296 ) ;
#1132 = ORIENTED_EDGE ( 'NONE', *, *, #501, .T. ) ;
#1133 = EDGE_LOOP ( 'NONE', ( #438, #925, #844, #350 ) ) ;
#1134 = CIRCLE ( 'NONE', #211, 1.799999999999999156 ) ;
#1135 = EDGE_CURVE ( 'NONE', #715, #327, #262, .T. ) ;
#1136 = CC_DESIGN_PERSON_AND_ORGANIZATION_ASSIGNMENT ( #630, #46, ( #288 ) ) ;
#1137 = APPROVAL_ROLE ( '' ) ;
#1138 = CYLINDRICAL_SURFACE ( 'NONE', #78, 0.8000000000000003775 ) ;
#1139 = TOROIDAL_SURFACE ( 'NONE', #890, 0.9999999999999991118, 0.7999999999999999334 ) ;
#1140 = VECTOR ( 'NONE', #636, 1000.000000000000000 ) ;
#1141 = VERTEX_POINT ( 'NONE', #223 ) ;
#1142 = ORIENTED_EDGE ( 'NONE', *, *, #356, .F. ) ;
#1143 = ORIENTED_EDGE ( 'NONE', *, *, #86, .F. ) ;
#1144 = ORIENTED_EDGE ( 'NONE', *, *, #546, .F. ) ;
#1145 = AXIS2_PLACEMENT_3D ( 'NONE', #472, #481, #575 ) ;
#1146 = APPROVAL_ROLE ( '' ) ;
#1147 = CARTESIAN_POINT ( 'NONE',  ( -5.799999999999999822, 0.0000000000000000000, 4.000000000000000000 ) ) ;
#1148 = ORIENTED_EDGE ( 'NONE', *, *, #253, .T. ) ;
#1149 = CARTESIAN_POINT ( 'NONE',  ( -5.799999999999999822, 0.0000000000000000000, 0.0000000000000000000 ) ) ;
#1150 = DIRECTION ( 'NONE',  ( -1.000000000000000000, 0.0000000000000000000, 0.0000000000000000000 ) ) ;
#1151 = FACE_OUTER_BOUND ( 'NONE', #205, .T. ) ;
#1152 = EDGE_LOOP ( 'NONE', ( #950, #990, #933, #691 ) ) ;
#1153 = ORIENTED_EDGE ( 'NONE', *, *, #747, .T. ) ;
#1154 = CARTESIAN_POINT ( 'NONE',  ( 4.999999999999999112, -0.5000000000000000000, -4.000000000000000000 ) ) ;
#1155 = ORIENTED_EDGE ( 'NONE', *, *, #6, .F. ) ;
#1156 = AXIS2_PLACEMENT_3D ( 'NONE', #475, #134, #672 ) ;
#1157 = DIRECTION ( 'NONE',  ( -1.000000000000000000, -0.0000000000000000000, -0.0000000000000000000 ) ) ;
#1158 = EDGE_CURVE ( 'NONE', #846, #603, #140, .T. ) ;
#1159 = ORIENTED_EDGE ( 'NONE', *, *, #354, .T. ) ;
#1160 = DIRECTION ( 'NONE',  ( 0.0000000000000000000, 1.000000000000000000, 0.0000000000000000000 ) ) ;
#1161 = DIRECTION ( 'NONE',  ( 1.000000000000000000, 0.0000000000000000000, -0.0000000000000000000 ) ) ;
#1162 = ORIENTED_EDGE ( 'NONE', *, *, #633, .T. ) ;
#1163 = ORIENTED_EDGE ( 'NONE', *, *, #1158, .F. ) ;
#1164 = LINE ( 'NONE', #79, #458 ) ;
#1165 = DIRECTION ( 'NONE',  ( 0.0000000000000000000, 0.0000000000000000000, -1.000000000000000000 ) ) ;
#1166 = DIRECTION ( 'NONE',  ( 0.0000000000000000000, -1.000000000000000000, 0.0000000000000000000 ) ) ;
#1167 = DIRECTION ( 'NONE',  ( 0.0000000000000000000, 1.000000000000000000, 0.0000000000000000000 ) ) ;
#1168 = LINE ( 'NONE', #578, #278 ) ;
#1169 = EDGE_CURVE ( 'NONE', #468, #406, #582, .T. ) ;
#1170 = ORIENTED_EDGE ( 'NONE', *, *, #1169, .F. ) ;
#1171 = EDGE_LOOP ( 'NONE', ( #1105, #39, #270, #256 ) ) ;
#1172 = CARTESIAN_POINT ( 'NONE',  ( -5.799999999999999822, -2.500000000000000000, -4.000000000000000000 ) ) ;
#1173 = CARTESIAN_POINT ( 'NONE',  ( -4.999999999999999112, 0.2999999999999999334, 4.000000000000000000 ) ) ;
#1174 = VERTEX_POINT ( 'NONE', #590 ) ;
#1175 = CARTESIAN_POINT ( 'NONE',  ( 5.500000000000000000, 0.0000000000000000000, 4.000000000000000000 ) ) ;
#1176 =( GEOMETRIC_REPRESENTATION_CONTEXT ( 3 ) GLOBAL_UNCERTAINTY_ASSIGNED_CONTEXT ( ( #1118 ) ) GLOBAL_UNIT_ASSIGNED_CONTEXT ( ( #154, #244, #594 ) ) REPRESENTATION_CONTEXT ( 'NONE', 'WORKASPACE' ) );
#1177 = ORIENTED_EDGE ( 'NONE', *, *, #530, .T. ) ;
ENDSEC;
END-ISO-10303-21;
