<svg xmlns="http://www.w3.org/2000/svg" viewBox="-11.73 -8.636 23.46 17.826" width="1600" height="1215.7545"><rect x="-11.73" y="-8.636" width="23.46" height="17.826" fill="#F5F4EF"/><g transform="translate(0 0)" class="unit" data-unit="1"><rect x="-7.62" y="-5.08" width="15.24" height="10.16" fill="#FFFFC2" stroke="#840000" stroke-width="0.254" stroke-linecap="round" stroke-linejoin="round"/><path d="M-10.16 -2.54L-7.62 -2.54" stroke="#840000" stroke-width="0.1524" stroke-linecap="round"/><circle cx="-10.16" cy="-2.54" r="0.25" fill="none" stroke="#840000" stroke-width="0.05" opacity="0.6"/><text transform="translate(-7.112 -2.54)" font-family="DejaVu Sans, Arial, sans-serif" font-size="1.7397" fill="#006464" text-anchor="start"><tspan x="0" y="0.635">VIN</tspan></text><text transform="translate(-8.89 -2.84)" font-family="DejaVu Sans, Arial, sans-serif" font-size="1.7397" fill="#A90000" text-anchor="middle"><tspan x="0" y="0">1</tspan></text><path d="M0 7.62L0 5.08" stroke="#840000" stroke-width="0.1524" stroke-linecap="round"/><circle cx="0" cy="7.62" r="0.25" fill="none" stroke="#840000" stroke-width="0.05" opacity="0.6"/><text transform="translate(0 4.572) rotate(-90)" font-family="DejaVu Sans, Arial, sans-serif" font-size="1.7397" fill="#006464" text-anchor="start"><tspan x="0" y="0.635">GND</tspan></text><text transform="translate(-0.3 6.35) rotate(-90)" font-family="DejaVu Sans, Arial, sans-serif" font-size="1.7397" fill="#A90000" text-anchor="middle"><tspan x="0" y="0">2</tspan></text><path d="M-10.16 2.54L-7.62 2.54" stroke="#840000" stroke-width="0.1524" stroke-linecap="round"/><circle cx="-10.16" cy="2.54" r="0.25" fill="none" stroke="#840000" stroke-width="0.05" opacity="0.6"/><text transform="translate(-7.112 2.54)" font-family="DejaVu Sans, Arial, sans-serif" font-size="1.7397" fill="#006464" text-anchor="start"><tspan x="0" y="0.635">ON</tspan></text><text transform="translate(-8.89 2.24)" font-family="DejaVu Sans, Arial, sans-serif" font-size="1.7397" fill="#A90000" text-anchor="middle"><tspan x="0" y="0">3</tspan></text><path d="M-10.16 0L-7.62 0" stroke="#840000" stroke-width="0.1524" stroke-linecap="round"/><circle cx="-10.16" cy="0" r="0.25" fill="none" stroke="#840000" stroke-width="0.05" opacity="0.6"/><text transform="translate(-7.112 0)" font-family="DejaVu Sans, Arial, sans-serif" font-size="1.7397" fill="#006464" text-anchor="start"><tspan x="0" y="0.635">CT</tspan></text><text transform="translate(-8.89 -0.3)" font-family="DejaVu Sans, Arial, sans-serif" font-size="1.7397" fill="#A90000" text-anchor="middle"><tspan x="0" y="0">4</tspan></text><path d="M10.16 2.54L7.62 2.54" stroke="#840000" stroke-width="0.1524" stroke-linecap="round"/><circle cx="10.16" cy="2.54" r="0.25" fill="none" stroke="#840000" stroke-width="0.05" opacity="0.6"/><text transform="translate(7.112 2.54)" font-family="DejaVu Sans, Arial, sans-serif" font-size="1.7397" fill="#006464" text-anchor="end"><tspan x="0" y="0.635">QOD</tspan></text><text transform="translate(8.89 2.24)" font-family="DejaVu Sans, Arial, sans-serif" font-size="1.7397" fill="#A90000" text-anchor="middle"><tspan x="0" y="0">5</tspan></text><path d="M10.16 -2.54L7.62 -2.54" stroke="#840000" stroke-width="0.1524" stroke-linecap="round"/><circle cx="10.16" cy="-2.54" r="0.25" fill="none" stroke="#840000" stroke-width="0.05" opacity="0.6"/><text transform="translate(7.112 -2.54)" font-family="DejaVu Sans, Arial, sans-serif" font-size="1.7397" fill="#006464" text-anchor="end"><tspan x="0" y="0.635">VOUT</tspan></text><text transform="translate(8.89 -2.84)" font-family="DejaVu Sans, Arial, sans-serif" font-size="1.7397" fill="#A90000" text-anchor="middle"><tspan x="0" y="0">6</tspan></text><text transform="translate(-6.35 -6.35)" font-family="DejaVu Sans, Arial, sans-serif" font-size="1.7397" fill="#006464" text-anchor="middle"><tspan x="0" y="0.635">U?</tspan></text><text transform="translate(2.54 -6.35)" font-family="DejaVu Sans, Arial, sans-serif" font-size="1.7397" fill="#006464" text-anchor="middle"><tspan x="0" y="0.635">TPS22918DBV</tspan></text></g></svg>