<svg xmlns="http://www.w3.org/2000/svg" viewBox="-20.4676 -26.2636 40.9352 52.5272" width="1246.9029" height="1600"><rect x="-20.4676" y="-26.2636" width="40.9352" height="52.5272" fill="#F5F4EF"/><g transform="translate(0 0)" class="unit" data-unit="1"><rect x="-15.24" y="-17.78" width="30.48" height="35.56" fill="#FFFFC2" stroke="#840000" stroke-width="0.254" stroke-linecap="round" stroke-linejoin="round"/><path d="M0 -20.32L0 -17.78" stroke="#840000" stroke-width="0.1524" stroke-linecap="round"/><circle cx="0" cy="-20.32" r="0.25" fill="none" stroke="#840000" stroke-width="0.05" opacity="0.6"/><text transform="translate(0 -17.272) rotate(-90)" font-family="DejaVu Sans, Arial, sans-serif" font-size="1.7397" fill="#006464" text-anchor="end"><tspan x="0" y="0.635">5V</tspan></text><text transform="translate(-0.3 -19.05) rotate(-90)" font-family="DejaVu Sans, Arial, sans-serif" font-size="1.7397" fill="#A90000" text-anchor="middle"><tspan x="0" y="0">1</tspan></text><path d="M0 20.32L0 17.78" stroke="#840000" stroke-width="0.1524" stroke-linecap="round"/><circle cx="0" cy="20.32" r="0.25" fill="none" stroke="#840000" stroke-width="0.05" opacity="0.6"/><text transform="translate(0 17.272) rotate(-90)" font-family="DejaVu Sans, Arial, sans-serif" font-size="1.7397" fill="#006464" text-anchor="start"><tspan x="0" y="0.635">GND</tspan></text><text transform="translate(-0.3 19.05) rotate(-90)" font-family="DejaVu Sans, Arial, sans-serif" font-size="1.7397" fill="#A90000" text-anchor="middle"><tspan x="0" y="0">2</tspan></text><path d="M17.78 -15.24L15.24 -15.24" stroke="#840000" stroke-width="0.1524" stroke-linecap="round"/><circle cx="17.78" cy="-15.24" r="0.25" fill="none" stroke="#840000" stroke-width="0.05" opacity="0.6"/><text transform="translate(14.732 -15.24)" font-family="DejaVu Sans, Arial, sans-serif" font-size="1.7397" fill="#006464" text-anchor="end"><tspan x="0" y="0.635">3V3</tspan></text><text transform="translate(16.51 -15.54)" font-family="DejaVu Sans, Arial, sans-serif" font-size="1.7397" fill="#A90000" text-anchor="middle"><tspan x="0" y="0">3</tspan></text><path d="M17.78 15.24L15.24 15.24" stroke="#840000" stroke-width="0.1524" stroke-linecap="round"/><circle cx="17.78" cy="15.24" r="0.25" fill="none" stroke="#840000" stroke-width="0.05" opacity="0.6"/><text transform="translate(14.732 15.24)" font-family="DejaVu Sans, Arial, sans-serif" font-size="1.7397" fill="#006464" text-anchor="end"><tspan x="0" y="0.635">GP29/ADC3</tspan></text><text transform="translate(16.51 14.94)" font-family="DejaVu Sans, Arial, sans-serif" font-size="1.7397" fill="#A90000" text-anchor="middle"><tspan x="0" y="0">4</tspan></text><path d="M17.78 12.7L15.24 12.7" stroke="#840000" stroke-width="0.1524" stroke-linecap="round"/><circle cx="17.78" cy="12.7" r="0.25" fill="none" stroke="#840000" stroke-width="0.05" opacity="0.6"/><text transform="translate(14.732 12.7)" font-family="DejaVu Sans, Arial, sans-serif" font-size="1.7397" fill="#006464" text-anchor="end"><tspan x="0" y="0.635">GP28/ADC2</tspan></text><text transform="translate(16.51 12.4)" font-family="DejaVu Sans, Arial, sans-serif" font-size="1.7397" fill="#A90000" text-anchor="middle"><tspan x="0" y="0">5</tspan></text><path d="M17.78 10.16L15.24 10.16" stroke="#840000" stroke-width="0.1524" stroke-linecap="round"/><circle cx="17.78" cy="10.16" r="0.25" fill="none" stroke="#840000" stroke-width="0.05" opacity="0.6"/><text transform="translate(14.732 10.16)" font-family="DejaVu Sans, Arial, sans-serif" font-size="1.7397" fill="#006464" text-anchor="end"><tspan x="0" y="0.635">GP27/ADC1</tspan></text><text transform="translate(16.51 9.86)" font-family="DejaVu Sans, Arial, sans-serif" font-size="1.7397" fill="#A90000" text-anchor="middle"><tspan x="0" y="0">6</tspan></text><path d="M17.78 7.62L15.24 7.62" stroke="#840000" stroke-width="0.1524" stroke-linecap="round"/><circle cx="17.78" cy="7.62" r="0.25" fill="none" stroke="#840000" stroke-width="0.05" opacity="0.6"/><text transform="translate(14.732 7.62)" font-family="DejaVu Sans, Arial, sans-serif" font-size="1.7397" fill="#006464" text-anchor="end"><tspan x="0" y="0.635">GP26/ADC0</tspan></text><text transform="translate(16.51 7.32)" font-family="DejaVu Sans, Arial, sans-serif" font-size="1.7397" fill="#A90000" text-anchor="middle"><tspan x="0" y="0">7</tspan></text><path d="M17.78 5.08L15.24 5.08" stroke="#840000" stroke-width="0.1524" stroke-linecap="round"/><circle cx="17.78" cy="5.08" r="0.25" fill="none" stroke="#840000" stroke-width="0.05" opacity="0.6"/><text transform="translate(14.732 5.08)" font-family="DejaVu Sans, Arial, sans-serif" font-size="1.7397" fill="#006464" text-anchor="end"><tspan x="0" y="0.635">GP15</tspan></text><text transform="translate(16.51 4.78)" font-family="DejaVu Sans, Arial, sans-serif" font-size="1.7397" fill="#A90000" text-anchor="middle"><tspan x="0" y="0">8</tspan></text><path d="M17.78 2.54L15.24 2.54" stroke="#840000" stroke-width="0.1524" stroke-linecap="round"/><circle cx="17.78" cy="2.54" r="0.25" fill="none" stroke="#840000" stroke-width="0.05" opacity="0.6"/><text transform="translate(14.732 2.54)" font-family="DejaVu Sans, Arial, sans-serif" font-size="1.7397" fill="#006464" text-anchor="end"><tspan x="0" y="0.635">GP14</tspan></text><text transform="translate(16.51 2.24)" font-family="DejaVu Sans, Arial, sans-serif" font-size="1.7397" fill="#A90000" text-anchor="middle"><tspan x="0" y="0">9</tspan></text><path d="M17.78 0L15.24 0" stroke="#840000" stroke-width="0.1524" stroke-linecap="round"/><circle cx="17.78" cy="0" r="0.25" fill="none" stroke="#840000" stroke-width="0.05" opacity="0.6"/><text transform="translate(14.732 0)" font-family="DejaVu Sans, Arial, sans-serif" font-size="1.7397" fill="#006464" text-anchor="end"><tspan x="0" y="0.635">GP13</tspan></text><text transform="translate(16.51 -0.3)" font-family="DejaVu Sans, Arial, sans-serif" font-size="1.7397" fill="#A90000" text-anchor="middle"><tspan x="0" y="0">10</tspan></text><path d="M17.78 -2.54L15.24 -2.54" stroke="#840000" stroke-width="0.1524" stroke-linecap="round"/><circle cx="17.78" cy="-2.54" r="0.25" fill="none" stroke="#840000" stroke-width="0.05" opacity="0.6"/><text transform="translate(14.732 -2.54)" font-family="DejaVu Sans, Arial, sans-serif" font-size="1.7397" fill="#006464" text-anchor="end"><tspan x="0" y="0.635">GP12</tspan></text><text transform="translate(16.51 -2.84)" font-family="DejaVu Sans, Arial, sans-serif" font-size="1.7397" fill="#A90000" text-anchor="middle"><tspan x="0" y="0">11</tspan></text><path d="M17.78 -5.08L15.24 -5.08" stroke="#840000" stroke-width="0.1524" stroke-linecap="round"/><circle cx="17.78" cy="-5.08" r="0.25" fill="none" stroke="#840000" stroke-width="0.05" opacity="0.6"/><text transform="translate(14.732 -5.08)" font-family="DejaVu Sans, Arial, sans-serif" font-size="1.7397" fill="#006464" text-anchor="end"><tspan x="0" y="0.635">GP11</tspan></text><text transform="translate(16.51 -5.38)" font-family="DejaVu Sans, Arial, sans-serif" font-size="1.7397" fill="#A90000" text-anchor="middle"><tspan x="0" y="0">12</tspan></text><path d="M17.78 -7.62L15.24 -7.62" stroke="#840000" stroke-width="0.1524" stroke-linecap="round"/><circle cx="17.78" cy="-7.62" r="0.25" fill="none" stroke="#840000" stroke-width="0.05" opacity="0.6"/><text transform="translate(14.732 -7.62)" font-family="DejaVu Sans, Arial, sans-serif" font-size="1.7397" fill="#006464" text-anchor="end"><tspan x="0" y="0.635">GP10</tspan></text><text transform="translate(16.51 -7.92)" font-family="DejaVu Sans, Arial, sans-serif" font-size="1.7397" fill="#A90000" text-anchor="middle"><tspan x="0" y="0">13</tspan></text><path d="M-17.78 15.24L-15.24 15.24" stroke="#840000" stroke-width="0.1524" stroke-linecap="round"/><circle cx="-17.78" cy="15.24" r="0.25" fill="none" stroke="#840000" stroke-width="0.05" opacity="0.6"/><text transform="translate(-14.732 15.24)" font-family="DejaVu Sans, Arial, sans-serif" font-size="1.7397" fill="#006464" text-anchor="start"><tspan x="0" y="0.635">GP9</tspan></text><text transform="translate(-16.51 14.94)" font-family="DejaVu Sans, Arial, sans-serif" font-size="1.7397" fill="#A90000" text-anchor="middle"><tspan x="0" y="0">14</tspan></text><path d="M-17.78 12.7L-15.24 12.7" stroke="#840000" stroke-width="0.1524" stroke-linecap="round"/><circle cx="-17.78" cy="12.7" r="0.25" fill="none" stroke="#840000" stroke-width="0.05" opacity="0.6"/><text transform="translate(-14.732 12.7)" font-family="DejaVu Sans, Arial, sans-serif" font-size="1.7397" fill="#006464" text-anchor="start"><tspan x="0" y="0.635">GP8</tspan></text><text transform="translate(-16.51 12.4)" font-family="DejaVu Sans, Arial, sans-serif" font-size="1.7397" fill="#A90000" text-anchor="middle"><tspan x="0" y="0">15</tspan></text><path d="M-17.78 10.16L-15.24 10.16" stroke="#840000" stroke-width="0.1524" stroke-linecap="round"/><circle cx="-17.78" cy="10.16" r="0.25" fill="none" stroke="#840000" stroke-width="0.05" opacity="0.6"/><text transform="translate(-14.732 10.16)" font-family="DejaVu Sans, Arial, sans-serif" font-size="1.7397" fill="#006464" text-anchor="start"><tspan x="0" y="0.635">GP7</tspan></text><text transform="translate(-16.51 9.86)" font-family="DejaVu Sans, Arial, sans-serif" font-size="1.7397" fill="#A90000" text-anchor="middle"><tspan x="0" y="0">16</tspan></text><path d="M-17.78 7.62L-15.24 7.62" stroke="#840000" stroke-width="0.1524" stroke-linecap="round"/><circle cx="-17.78" cy="7.62" r="0.25" fill="none" stroke="#840000" stroke-width="0.05" opacity="0.6"/><text transform="translate(-14.732 7.62)" font-family="DejaVu Sans, Arial, sans-serif" font-size="1.7397" fill="#006464" text-anchor="start"><tspan x="0" y="0.635">GP6</tspan></text><text transform="translate(-16.51 7.32)" font-family="DejaVu Sans, Arial, sans-serif" font-size="1.7397" fill="#A90000" text-anchor="middle"><tspan x="0" y="0">17</tspan></text><path d="M-17.78 5.08L-15.24 5.08" stroke="#840000" stroke-width="0.1524" stroke-linecap="round"/><circle cx="-17.78" cy="5.08" r="0.25" fill="none" stroke="#840000" stroke-width="0.05" opacity="0.6"/><text transform="translate(-14.732 5.08)" font-family="DejaVu Sans, Arial, sans-serif" font-size="1.7397" fill="#006464" text-anchor="start"><tspan x="0" y="0.635">GP5</tspan></text><text transform="translate(-16.51 4.78)" font-family="DejaVu Sans, Arial, sans-serif" font-size="1.7397" fill="#A90000" text-anchor="middle"><tspan x="0" y="0">18</tspan></text><path d="M-17.78 2.54L-15.24 2.54" stroke="#840000" stroke-width="0.1524" stroke-linecap="round"/><circle cx="-17.78" cy="2.54" r="0.25" fill="none" stroke="#840000" stroke-width="0.05" opacity="0.6"/><text transform="translate(-14.732 2.54)" font-family="DejaVu Sans, Arial, sans-serif" font-size="1.7397" fill="#006464" text-anchor="start"><tspan x="0" y="0.635">GP4</tspan></text><text transform="translate(-16.51 2.24)" font-family="DejaVu Sans, Arial, sans-serif" font-size="1.7397" fill="#A90000" text-anchor="middle"><tspan x="0" y="0">19</tspan></text><path d="M-17.78 0L-15.24 0" stroke="#840000" stroke-width="0.1524" stroke-linecap="round"/><circle cx="-17.78" cy="0" r="0.25" fill="none" stroke="#840000" stroke-width="0.05" opacity="0.6"/><text transform="translate(-14.732 0)" font-family="DejaVu Sans, Arial, sans-serif" font-size="1.7397" fill="#006464" text-anchor="start"><tspan x="0" y="0.635">GP3</tspan></text><text transform="translate(-16.51 -0.3)" font-family="DejaVu Sans, Arial, sans-serif" font-size="1.7397" fill="#A90000" text-anchor="middle"><tspan x="0" y="0">20</tspan></text><path d="M-17.78 -2.54L-15.24 -2.54" stroke="#840000" stroke-width="0.1524" stroke-linecap="round"/><circle cx="-17.78" cy="-2.54" r="0.25" fill="none" stroke="#840000" stroke-width="0.05" opacity="0.6"/><text transform="translate(-14.732 -2.54)" font-family="DejaVu Sans, Arial, sans-serif" font-size="1.7397" fill="#006464" text-anchor="start"><tspan x="0" y="0.635">GP2</tspan></text><text transform="translate(-16.51 -2.84)" font-family="DejaVu Sans, Arial, sans-serif" font-size="1.7397" fill="#A90000" text-anchor="middle"><tspan x="0" y="0">21</tspan></text><path d="M-17.78 -5.08L-15.24 -5.08" stroke="#840000" stroke-width="0.1524" stroke-linecap="round"/><circle cx="-17.78" cy="-5.08" r="0.25" fill="none" stroke="#840000" stroke-width="0.05" opacity="0.6"/><text transform="translate(-14.732 -5.08)" font-family="DejaVu Sans, Arial, sans-serif" font-size="1.7397" fill="#006464" text-anchor="start"><tspan x="0" y="0.635">GP1</tspan></text><text transform="translate(-16.51 -5.38)" font-family="DejaVu Sans, Arial, sans-serif" font-size="1.7397" fill="#A90000" text-anchor="middle"><tspan x="0" y="0">22</tspan></text><path d="M-17.78 -7.62L-15.24 -7.62" stroke="#840000" stroke-width="0.1524" stroke-linecap="round"/><circle cx="-17.78" cy="-7.62" r="0.25" fill="none" stroke="#840000" stroke-width="0.05" opacity="0.6"/><text transform="translate(-14.732 -7.62)" font-family="DejaVu Sans, Arial, sans-serif" font-size="1.7397" fill="#006464" text-anchor="start"><tspan x="0" y="0.635">GP0</tspan></text><text transform="translate(-16.51 -7.92)" font-family="DejaVu Sans, Arial, sans-serif" font-size="1.7397" fill="#A90000" text-anchor="middle"><tspan x="0" y="0">23</tspan></text><text transform="translate(-10.16 -22.86)" font-family="DejaVu Sans, Arial, sans-serif" font-size="1.7397" fill="#006464" text-anchor="start"><tspan x="0" y="0.635">U?</tspan></text><text transform="translate(-10.16 22.86)" font-family="DejaVu Sans, Arial, sans-serif" font-size="1.7397" fill="#006464" text-anchor="start"><tspan x="0" y="0.635">RP2040-Zero</tspan></text></g></svg>