ISO-10303-21;
HEADER;
/* Generated by software containing ST-Developer
 * from STEP Tools, Inc. (www.steptools.com) 
 */
/* OPTION: using custom renumber hook */

FILE_DESCRIPTION(
/* description */ ('STEP AP242 Edition 2',
'CAx-IF Rec.Pracs.---Representation and Presentation of Product Manufa
cturing Information (PMI)---4.0---2014-10-13',
'CAx-IF Rec.Pracs.---3D Tessellated Geometry---0.4---2014-09-14','2;1',
'CAx-IF Rec.Pracs.---User Defined Attributes---1.5---2016-08-15'),
/* implementation_level */ '2;1');

FILE_NAME(
/* name */ 'SH1421-C',
/* time_stamp */ '2026-04-26T08:19:48Z',
/* author */ (''),
/* organization */ (''),
/* preprocessor_version */ 'ST-DEVELOPER v20',
/* originating_system */ 'ONSHAPE BY PTC INC, 1.214',
/* authorisation */ '  ');

FILE_SCHEMA (('AP242_MANAGED_MODEL_BASED_3D_ENGINEERING_MIM_LF { 1 0 10303 442 3 1 4 }'));
ENDSEC;

DATA;
#10=SHAPE_REPRESENTATION_RELATIONSHIP('','',#835,#11);
#11=ADVANCED_BREP_SHAPE_REPRESENTATION('',(#833),#1385);
#12=CYLINDRICAL_SURFACE('',#868,0.0004);
#13=CYLINDRICAL_SURFACE('',#869,0.0002);
#14=CYLINDRICAL_SURFACE('',#883,0.0004);
#15=CYLINDRICAL_SURFACE('',#884,0.0002);
#16=CYLINDRICAL_SURFACE('',#898,0.0004);
#17=CYLINDRICAL_SURFACE('',#899,0.0002);
#18=CYLINDRICAL_SURFACE('',#906,0.0004);
#19=CYLINDRICAL_SURFACE('',#907,0.0002);
#20=LINE('',#1162,#104);
#21=LINE('',#1165,#105);
#22=LINE('',#1167,#106);
#23=LINE('',#1169,#107);
#24=LINE('',#1171,#108);
#25=LINE('',#1173,#109);
#26=LINE('',#1177,#110);
#27=LINE('',#1180,#111);
#28=LINE('',#1181,#112);
#29=LINE('',#1183,#113);
#30=LINE('',#1185,#114);
#31=LINE('',#1187,#115);
#32=LINE('',#1189,#116);
#33=LINE('',#1191,#117);
#34=LINE('',#1193,#118);
#35=LINE('',#1195,#119);
#36=LINE('',#1197,#120);
#37=LINE('',#1203,#121);
#38=LINE('',#1205,#122);
#39=LINE('',#1208,#123);
#40=LINE('',#1210,#124);
#41=LINE('',#1212,#125);
#42=LINE('',#1214,#126);
#43=LINE('',#1217,#127);
#44=LINE('',#1219,#128);
#45=LINE('',#1221,#129);
#46=LINE('',#1223,#130);
#47=LINE('',#1226,#131);
#48=LINE('',#1228,#132);
#49=LINE('',#1230,#133);
#50=LINE('',#1232,#134);
#51=LINE('',#1235,#135);
#52=LINE('',#1237,#136);
#53=LINE('',#1239,#137);
#54=LINE('',#1241,#138);
#55=LINE('',#1242,#139);
#56=LINE('',#1244,#140);
#57=LINE('',#1247,#141);
#58=LINE('',#1249,#142);
#59=LINE('',#1251,#143);
#60=LINE('',#1253,#144);
#61=LINE('',#1254,#145);
#62=LINE('',#1256,#146);
#63=LINE('',#1266,#147);
#64=LINE('',#1269,#148);
#65=LINE('',#1272,#149);
#66=LINE('',#1278,#150);
#67=LINE('',#1281,#151);
#68=LINE('',#1283,#152);
#69=LINE('',#1285,#153);
#70=LINE('',#1287,#154);
#71=LINE('',#1290,#155);
#72=LINE('',#1292,#156);
#73=LINE('',#1294,#157);
#74=LINE('',#1296,#158);
#75=LINE('',#1297,#159);
#76=LINE('',#1299,#160);
#77=LINE('',#1302,#161);
#78=LINE('',#1304,#162);
#79=LINE('',#1306,#163);
#80=LINE('',#1308,#164);
#81=LINE('',#1309,#165);
#82=LINE('',#1311,#166);
#83=LINE('',#1313,#167);
#84=LINE('',#1318,#168);
#85=LINE('',#1324,#169);
#86=LINE('',#1327,#170);
#87=LINE('',#1329,#171);
#88=LINE('',#1331,#172);
#89=LINE('',#1333,#173);
#90=LINE('',#1336,#174);
#91=LINE('',#1338,#175);
#92=LINE('',#1340,#176);
#93=LINE('',#1342,#177);
#94=LINE('',#1343,#178);
#95=LINE('',#1345,#179);
#96=LINE('',#1348,#180);
#97=LINE('',#1350,#181);
#98=LINE('',#1352,#182);
#99=LINE('',#1354,#183);
#100=LINE('',#1355,#184);
#101=LINE('',#1357,#185);
#102=LINE('',#1359,#186);
#103=LINE('',#1365,#187);
#104=VECTOR('',#923,1.);
#105=VECTOR('',#924,1.);
#106=VECTOR('',#925,1.);
#107=VECTOR('',#926,1.);
#108=VECTOR('',#927,1.);
#109=VECTOR('',#928,1.);
#110=VECTOR('',#933,1.);
#111=VECTOR('',#934,1.);
#112=VECTOR('',#935,1.);
#113=VECTOR('',#938,1.);
#114=VECTOR('',#939,1.);
#115=VECTOR('',#940,1.);
#116=VECTOR('',#943,1.);
#117=VECTOR('',#946,1.);
#118=VECTOR('',#947,1.);
#119=VECTOR('',#948,1.);
#120=VECTOR('',#951,1.);
#121=VECTOR('',#958,1.);
#122=VECTOR('',#961,1.);
#123=VECTOR('',#962,1.);
#124=VECTOR('',#963,1.);
#125=VECTOR('',#964,1.);
#126=VECTOR('',#967,1.);
#127=VECTOR('',#968,1.);
#128=VECTOR('',#969,1.);
#129=VECTOR('',#970,1.);
#130=VECTOR('',#973,1.);
#131=VECTOR('',#974,1.);
#132=VECTOR('',#975,1.);
#133=VECTOR('',#976,1.);
#134=VECTOR('',#979,1.);
#135=VECTOR('',#980,1.);
#136=VECTOR('',#981,1.);
#137=VECTOR('',#982,1.);
#138=VECTOR('',#985,1.);
#139=VECTOR('',#986,1.);
#140=VECTOR('',#989,1.);
#141=VECTOR('',#990,1.);
#142=VECTOR('',#991,1.);
#143=VECTOR('',#992,1.);
#144=VECTOR('',#995,1.);
#145=VECTOR('',#996,1.);
#146=VECTOR('',#999,1.);
#147=VECTOR('',#1010,1.);
#148=VECTOR('',#1015,1.);
#149=VECTOR('',#1020,1.);
#150=VECTOR('',#1031,1.);
#151=VECTOR('',#1032,1.);
#152=VECTOR('',#1033,1.);
#153=VECTOR('',#1034,1.);
#154=VECTOR('',#1037,1.);
#155=VECTOR('',#1038,1.);
#156=VECTOR('',#1039,1.);
#157=VECTOR('',#1040,1.);
#158=VECTOR('',#1043,1.);
#159=VECTOR('',#1044,1.);
#160=VECTOR('',#1047,1.);
#161=VECTOR('',#1048,1.);
#162=VECTOR('',#1049,1.);
#163=VECTOR('',#1050,1.);
#164=VECTOR('',#1053,1.);
#165=VECTOR('',#1054,1.);
#166=VECTOR('',#1057,1.);
#167=VECTOR('',#1060,1.);
#168=VECTOR('',#1069,1.);
#169=VECTOR('',#1080,1.);
#170=VECTOR('',#1081,1.);
#171=VECTOR('',#1082,1.);
#172=VECTOR('',#1083,1.);
#173=VECTOR('',#1086,1.);
#174=VECTOR('',#1087,1.);
#175=VECTOR('',#1088,1.);
#176=VECTOR('',#1089,1.);
#177=VECTOR('',#1092,1.);
#178=VECTOR('',#1093,1.);
#179=VECTOR('',#1096,1.);
#180=VECTOR('',#1097,1.);
#181=VECTOR('',#1098,1.);
#182=VECTOR('',#1099,1.);
#183=VECTOR('',#1102,1.);
#184=VECTOR('',#1103,1.);
#185=VECTOR('',#1106,1.);
#186=VECTOR('',#1109,1.);
#187=VECTOR('',#1120,1.);
#188=PLANE('',#839);
#189=PLANE('',#841);
#190=PLANE('',#842);
#191=PLANE('',#843);
#192=PLANE('',#844);
#193=PLANE('',#845);
#194=PLANE('',#846);
#195=PLANE('',#849);
#196=PLANE('',#850);
#197=PLANE('',#851);
#198=PLANE('',#852);
#199=PLANE('',#853);
#200=PLANE('',#854);
#201=PLANE('',#855);
#202=PLANE('',#856);
#203=PLANE('',#859);
#204=PLANE('',#862);
#205=PLANE('',#865);
#206=PLANE('',#870);
#207=PLANE('',#871);
#208=PLANE('',#872);
#209=PLANE('',#873);
#210=PLANE('',#874);
#211=PLANE('',#875);
#212=PLANE('',#876);
#213=PLANE('',#877);
#214=PLANE('',#880);
#215=PLANE('',#885);
#216=PLANE('',#886);
#217=PLANE('',#887);
#218=PLANE('',#888);
#219=PLANE('',#889);
#220=PLANE('',#890);
#221=PLANE('',#891);
#222=PLANE('',#892);
#223=PLANE('',#895);
#224=PLANE('',#900);
#225=PLANE('',#903);
#226=ORIENTED_EDGE('',*,*,#442,.F.);
#227=ORIENTED_EDGE('',*,*,#442,.T.);
#228=ORIENTED_EDGE('',*,*,#443,.T.);
#229=ORIENTED_EDGE('',*,*,#444,.T.);
#230=ORIENTED_EDGE('',*,*,#445,.T.);
#231=ORIENTED_EDGE('',*,*,#446,.F.);
#232=ORIENTED_EDGE('',*,*,#447,.F.);
#233=ORIENTED_EDGE('',*,*,#448,.T.);
#234=ORIENTED_EDGE('',*,*,#449,.F.);
#235=ORIENTED_EDGE('',*,*,#450,.T.);
#236=ORIENTED_EDGE('',*,*,#451,.T.);
#237=ORIENTED_EDGE('',*,*,#443,.F.);
#238=ORIENTED_EDGE('',*,*,#452,.F.);
#239=ORIENTED_EDGE('',*,*,#453,.F.);
#240=ORIENTED_EDGE('',*,*,#454,.F.);
#241=ORIENTED_EDGE('',*,*,#455,.T.);
#242=ORIENTED_EDGE('',*,*,#447,.T.);
#243=ORIENTED_EDGE('',*,*,#455,.F.);
#244=ORIENTED_EDGE('',*,*,#456,.T.);
#245=ORIENTED_EDGE('',*,*,#452,.T.);
#246=ORIENTED_EDGE('',*,*,#448,.F.);
#247=ORIENTED_EDGE('',*,*,#457,.F.);
#248=ORIENTED_EDGE('',*,*,#458,.T.);
#249=ORIENTED_EDGE('',*,*,#459,.T.);
#250=ORIENTED_EDGE('',*,*,#445,.F.);
#251=ORIENTED_EDGE('',*,*,#460,.F.);
#252=ORIENTED_EDGE('',*,*,#453,.T.);
#253=ORIENTED_EDGE('',*,*,#446,.T.);
#254=ORIENTED_EDGE('',*,*,#459,.F.);
#255=ORIENTED_EDGE('',*,*,#461,.T.);
#256=ORIENTED_EDGE('',*,*,#462,.F.);
#257=ORIENTED_EDGE('',*,*,#450,.F.);
#258=ORIENTED_EDGE('',*,*,#456,.F.);
#259=ORIENTED_EDGE('',*,*,#454,.T.);
#260=ORIENTED_EDGE('',*,*,#460,.T.);
#261=ORIENTED_EDGE('',*,*,#458,.F.);
#262=ORIENTED_EDGE('',*,*,#463,.F.);
#263=ORIENTED_EDGE('',*,*,#464,.F.);
#264=ORIENTED_EDGE('',*,*,#465,.T.);
#265=ORIENTED_EDGE('',*,*,#466,.T.);
#266=ORIENTED_EDGE('',*,*,#467,.F.);
#267=ORIENTED_EDGE('',*,*,#468,.T.);
#268=ORIENTED_EDGE('',*,*,#469,.T.);
#269=ORIENTED_EDGE('',*,*,#470,.F.);
#270=ORIENTED_EDGE('',*,*,#471,.F.);
#271=ORIENTED_EDGE('',*,*,#472,.F.);
#272=ORIENTED_EDGE('',*,*,#473,.T.);
#273=ORIENTED_EDGE('',*,*,#474,.T.);
#274=ORIENTED_EDGE('',*,*,#475,.F.);
#275=ORIENTED_EDGE('',*,*,#476,.F.);
#276=ORIENTED_EDGE('',*,*,#477,.T.);
#277=ORIENTED_EDGE('',*,*,#478,.T.);
#278=ORIENTED_EDGE('',*,*,#479,.F.);
#279=ORIENTED_EDGE('',*,*,#478,.F.);
#280=ORIENTED_EDGE('',*,*,#480,.T.);
#281=ORIENTED_EDGE('',*,*,#475,.T.);
#282=ORIENTED_EDGE('',*,*,#481,.F.);
#283=ORIENTED_EDGE('',*,*,#482,.F.);
#284=ORIENTED_EDGE('',*,*,#483,.F.);
#285=ORIENTED_EDGE('',*,*,#484,.T.);
#286=ORIENTED_EDGE('',*,*,#485,.T.);
#287=ORIENTED_EDGE('',*,*,#486,.F.);
#288=ORIENTED_EDGE('',*,*,#476,.T.);
#289=ORIENTED_EDGE('',*,*,#487,.T.);
#290=ORIENTED_EDGE('',*,*,#484,.F.);
#291=ORIENTED_EDGE('',*,*,#485,.F.);
#292=ORIENTED_EDGE('',*,*,#487,.F.);
#293=ORIENTED_EDGE('',*,*,#479,.T.);
#294=ORIENTED_EDGE('',*,*,#481,.T.);
#295=ORIENTED_EDGE('',*,*,#474,.F.);
#296=ORIENTED_EDGE('',*,*,#488,.F.);
#297=ORIENTED_EDGE('',*,*,#489,.T.);
#298=ORIENTED_EDGE('',*,*,#490,.F.);
#299=ORIENTED_EDGE('',*,*,#491,.T.);
#300=ORIENTED_EDGE('',*,*,#492,.T.);
#301=ORIENTED_EDGE('',*,*,#483,.T.);
#302=ORIENTED_EDGE('',*,*,#493,.T.);
#303=ORIENTED_EDGE('',*,*,#472,.T.);
#304=ORIENTED_EDGE('',*,*,#480,.F.);
#305=ORIENTED_EDGE('',*,*,#477,.F.);
#306=ORIENTED_EDGE('',*,*,#486,.T.);
#307=ORIENTED_EDGE('',*,*,#473,.F.);
#308=ORIENTED_EDGE('',*,*,#494,.F.);
#309=ORIENTED_EDGE('',*,*,#495,.T.);
#310=ORIENTED_EDGE('',*,*,#496,.T.);
#311=ORIENTED_EDGE('',*,*,#497,.F.);
#312=ORIENTED_EDGE('',*,*,#498,.T.);
#313=ORIENTED_EDGE('',*,*,#482,.T.);
#314=ORIENTED_EDGE('',*,*,#499,.F.);
#315=ORIENTED_EDGE('',*,*,#499,.T.);
#316=ORIENTED_EDGE('',*,*,#488,.T.);
#317=ORIENTED_EDGE('',*,*,#496,.F.);
#318=ORIENTED_EDGE('',*,*,#466,.F.);
#319=ORIENTED_EDGE('',*,*,#498,.F.);
#320=ORIENTED_EDGE('',*,*,#470,.T.);
#321=ORIENTED_EDGE('',*,*,#494,.T.);
#322=ORIENTED_EDGE('',*,*,#493,.F.);
#323=ORIENTED_EDGE('',*,*,#500,.F.);
#324=ORIENTED_EDGE('',*,*,#501,.T.);
#325=ORIENTED_EDGE('',*,*,#502,.T.);
#326=ORIENTED_EDGE('',*,*,#503,.F.);
#327=ORIENTED_EDGE('',*,*,#504,.F.);
#328=ORIENTED_EDGE('',*,*,#505,.T.);
#329=ORIENTED_EDGE('',*,*,#506,.T.);
#330=ORIENTED_EDGE('',*,*,#507,.F.);
#331=ORIENTED_EDGE('',*,*,#506,.F.);
#332=ORIENTED_EDGE('',*,*,#508,.T.);
#333=ORIENTED_EDGE('',*,*,#503,.T.);
#334=ORIENTED_EDGE('',*,*,#509,.F.);
#335=ORIENTED_EDGE('',*,*,#510,.F.);
#336=ORIENTED_EDGE('',*,*,#511,.F.);
#337=ORIENTED_EDGE('',*,*,#512,.T.);
#338=ORIENTED_EDGE('',*,*,#513,.T.);
#339=ORIENTED_EDGE('',*,*,#514,.F.);
#340=ORIENTED_EDGE('',*,*,#504,.T.);
#341=ORIENTED_EDGE('',*,*,#515,.T.);
#342=ORIENTED_EDGE('',*,*,#512,.F.);
#343=ORIENTED_EDGE('',*,*,#513,.F.);
#344=ORIENTED_EDGE('',*,*,#515,.F.);
#345=ORIENTED_EDGE('',*,*,#507,.T.);
#346=ORIENTED_EDGE('',*,*,#509,.T.);
#347=ORIENTED_EDGE('',*,*,#502,.F.);
#348=ORIENTED_EDGE('',*,*,#516,.F.);
#349=ORIENTED_EDGE('',*,*,#511,.T.);
#350=ORIENTED_EDGE('',*,*,#517,.T.);
#351=ORIENTED_EDGE('',*,*,#500,.T.);
#352=ORIENTED_EDGE('',*,*,#508,.F.);
#353=ORIENTED_EDGE('',*,*,#505,.F.);
#354=ORIENTED_EDGE('',*,*,#514,.T.);
#355=ORIENTED_EDGE('',*,*,#501,.F.);
#356=ORIENTED_EDGE('',*,*,#518,.F.);
#357=ORIENTED_EDGE('',*,*,#497,.T.);
#358=ORIENTED_EDGE('',*,*,#519,.T.);
#359=ORIENTED_EDGE('',*,*,#520,.F.);
#360=ORIENTED_EDGE('',*,*,#521,.T.);
#361=ORIENTED_EDGE('',*,*,#510,.T.);
#362=ORIENTED_EDGE('',*,*,#522,.F.);
#363=ORIENTED_EDGE('',*,*,#522,.T.);
#364=ORIENTED_EDGE('',*,*,#516,.T.);
#365=ORIENTED_EDGE('',*,*,#519,.F.);
#366=ORIENTED_EDGE('',*,*,#465,.F.);
#367=ORIENTED_EDGE('',*,*,#521,.F.);
#368=ORIENTED_EDGE('',*,*,#471,.T.);
#369=ORIENTED_EDGE('',*,*,#518,.T.);
#370=ORIENTED_EDGE('',*,*,#517,.F.);
#371=ORIENTED_EDGE('',*,*,#523,.T.);
#372=ORIENTED_EDGE('',*,*,#524,.T.);
#373=ORIENTED_EDGE('',*,*,#525,.F.);
#374=ORIENTED_EDGE('',*,*,#526,.F.);
#375=ORIENTED_EDGE('',*,*,#527,.F.);
#376=ORIENTED_EDGE('',*,*,#528,.F.);
#377=ORIENTED_EDGE('',*,*,#529,.T.);
#378=ORIENTED_EDGE('',*,*,#530,.T.);
#379=ORIENTED_EDGE('',*,*,#529,.F.);
#380=ORIENTED_EDGE('',*,*,#531,.T.);
#381=ORIENTED_EDGE('',*,*,#526,.T.);
#382=ORIENTED_EDGE('',*,*,#532,.F.);
#383=ORIENTED_EDGE('',*,*,#533,.F.);
#384=ORIENTED_EDGE('',*,*,#534,.T.);
#385=ORIENTED_EDGE('',*,*,#535,.T.);
#386=ORIENTED_EDGE('',*,*,#536,.F.);
#387=ORIENTED_EDGE('',*,*,#537,.F.);
#388=ORIENTED_EDGE('',*,*,#527,.T.);
#389=ORIENTED_EDGE('',*,*,#538,.T.);
#390=ORIENTED_EDGE('',*,*,#535,.F.);
#391=ORIENTED_EDGE('',*,*,#525,.T.);
#392=ORIENTED_EDGE('',*,*,#539,.T.);
#393=ORIENTED_EDGE('',*,*,#536,.T.);
#394=ORIENTED_EDGE('',*,*,#538,.F.);
#395=ORIENTED_EDGE('',*,*,#530,.F.);
#396=ORIENTED_EDGE('',*,*,#532,.T.);
#397=ORIENTED_EDGE('',*,*,#523,.F.);
#398=ORIENTED_EDGE('',*,*,#531,.F.);
#399=ORIENTED_EDGE('',*,*,#528,.T.);
#400=ORIENTED_EDGE('',*,*,#537,.T.);
#401=ORIENTED_EDGE('',*,*,#534,.F.);
#402=ORIENTED_EDGE('',*,*,#540,.F.);
#403=ORIENTED_EDGE('',*,*,#495,.F.);
#404=ORIENTED_EDGE('',*,*,#541,.F.);
#405=ORIENTED_EDGE('',*,*,#533,.T.);
#406=ORIENTED_EDGE('',*,*,#542,.T.);
#407=ORIENTED_EDGE('',*,*,#524,.F.);
#408=ORIENTED_EDGE('',*,*,#543,.T.);
#409=ORIENTED_EDGE('',*,*,#544,.T.);
#410=ORIENTED_EDGE('',*,*,#545,.F.);
#411=ORIENTED_EDGE('',*,*,#545,.T.);
#412=ORIENTED_EDGE('',*,*,#467,.T.);
#413=ORIENTED_EDGE('',*,*,#542,.F.);
#414=ORIENTED_EDGE('',*,*,#539,.F.);
#415=ORIENTED_EDGE('',*,*,#543,.F.);
#416=ORIENTED_EDGE('',*,*,#540,.T.);
#417=ORIENTED_EDGE('',*,*,#541,.T.);
#418=ORIENTED_EDGE('',*,*,#469,.F.);
#419=ORIENTED_EDGE('',*,*,#544,.F.);
#420=ORIENTED_EDGE('',*,*,#546,.F.);
#421=ORIENTED_EDGE('',*,*,#457,.T.);
#422=ORIENTED_EDGE('',*,*,#547,.T.);
#423=ORIENTED_EDGE('',*,*,#451,.F.);
#424=ORIENTED_EDGE('',*,*,#548,.T.);
#425=ORIENTED_EDGE('',*,*,#520,.T.);
#426=ORIENTED_EDGE('',*,*,#549,.F.);
#427=ORIENTED_EDGE('',*,*,#549,.T.);
#428=ORIENTED_EDGE('',*,*,#464,.T.);
#429=ORIENTED_EDGE('',*,*,#547,.F.);
#430=ORIENTED_EDGE('',*,*,#444,.F.);
#431=ORIENTED_EDGE('',*,*,#548,.F.);
#432=ORIENTED_EDGE('',*,*,#463,.T.);
#433=ORIENTED_EDGE('',*,*,#546,.T.);
#434=ORIENTED_EDGE('',*,*,#468,.F.);
#435=ORIENTED_EDGE('',*,*,#492,.F.);
#436=ORIENTED_EDGE('',*,*,#489,.F.);
#437=ORIENTED_EDGE('',*,*,#462,.T.);
#438=ORIENTED_EDGE('',*,*,#449,.T.);
#439=ORIENTED_EDGE('',*,*,#491,.F.);
#440=ORIENTED_EDGE('',*,*,#490,.T.);
#441=ORIENTED_EDGE('',*,*,#461,.F.);
#442=EDGE_CURVE('',#550,#550,#614,.T.);
#443=EDGE_CURVE('',#551,#552,#20,.F.);
#444=EDGE_CURVE('',#552,#553,#21,.T.);
#445=EDGE_CURVE('',#553,#554,#22,.F.);
#446=EDGE_CURVE('',#555,#554,#23,.T.);
#447=EDGE_CURVE('',#556,#555,#24,.T.);
#448=EDGE_CURVE('',#556,#551,#25,.F.);
#449=EDGE_CURVE('',#557,#557,#615,.T.);
#450=EDGE_CURVE('',#558,#559,#26,.F.);
#451=EDGE_CURVE('',#559,#552,#27,.T.);
#452=EDGE_CURVE('',#558,#551,#28,.T.);
#453=EDGE_CURVE('',#560,#555,#29,.T.);
#454=EDGE_CURVE('',#561,#560,#30,.T.);
#455=EDGE_CURVE('',#561,#556,#31,.F.);
#456=EDGE_CURVE('',#561,#558,#32,.F.);
#457=EDGE_CURVE('',#562,#553,#33,.T.);
#458=EDGE_CURVE('',#562,#563,#34,.F.);
#459=EDGE_CURVE('',#563,#554,#35,.F.);
#460=EDGE_CURVE('',#560,#563,#36,.T.);
#461=EDGE_CURVE('',#564,#564,#616,.F.);
#462=EDGE_CURVE('',#565,#565,#617,.T.);
#463=EDGE_CURVE('',#559,#562,#37,.T.);
#464=EDGE_CURVE('',#566,#567,#38,.F.);
#465=EDGE_CURVE('',#566,#568,#39,.T.);
#466=EDGE_CURVE('',#568,#569,#40,.T.);
#467=EDGE_CURVE('',#567,#569,#41,.F.);
#468=EDGE_CURVE('',#570,#571,#42,.F.);
#469=EDGE_CURVE('',#571,#572,#43,.F.);
#470=EDGE_CURVE('',#573,#572,#44,.T.);
#471=EDGE_CURVE('',#570,#573,#45,.T.);
#472=EDGE_CURVE('',#574,#575,#46,.F.);
#473=EDGE_CURVE('',#574,#576,#47,.T.);
#474=EDGE_CURVE('',#576,#577,#48,.F.);
#475=EDGE_CURVE('',#575,#577,#49,.F.);
#476=EDGE_CURVE('',#578,#579,#50,.F.);
#477=EDGE_CURVE('',#578,#580,#51,.T.);
#478=EDGE_CURVE('',#580,#581,#52,.T.);
#479=EDGE_CURVE('',#579,#581,#53,.T.);
#480=EDGE_CURVE('',#580,#575,#54,.T.);
#481=EDGE_CURVE('',#581,#577,#55,.T.);
#482=EDGE_CURVE('',#582,#583,#56,.T.);
#483=EDGE_CURVE('',#584,#582,#57,.F.);
#484=EDGE_CURVE('',#584,#585,#58,.T.);
#485=EDGE_CURVE('',#585,#583,#59,.F.);
#486=EDGE_CURVE('',#578,#584,#60,.F.);
#487=EDGE_CURVE('',#579,#585,#61,.F.);
#488=EDGE_CURVE('',#583,#576,#62,.T.);
#489=EDGE_CURVE('',#586,#586,#618,.T.);
#490=EDGE_CURVE('',#587,#587,#619,.T.);
#491=EDGE_CURVE('',#588,#588,#620,.T.);
#492=EDGE_CURVE('',#589,#589,#621,.T.);
#493=EDGE_CURVE('',#582,#574,#63,.T.);
#494=EDGE_CURVE('',#572,#574,#622,.T.);
#495=EDGE_CURVE('',#572,#569,#64,.F.);
#496=EDGE_CURVE('',#569,#576,#623,.T.);
#497=EDGE_CURVE('',#573,#568,#65,.T.);
#498=EDGE_CURVE('',#573,#582,#624,.T.);
#499=EDGE_CURVE('',#568,#583,#625,.T.);
#500=EDGE_CURVE('',#590,#591,#66,.F.);
#501=EDGE_CURVE('',#590,#592,#67,.T.);
#502=EDGE_CURVE('',#592,#593,#68,.F.);
#503=EDGE_CURVE('',#591,#593,#69,.F.);
#504=EDGE_CURVE('',#594,#595,#70,.F.);
#505=EDGE_CURVE('',#594,#596,#71,.T.);
#506=EDGE_CURVE('',#596,#597,#72,.T.);
#507=EDGE_CURVE('',#595,#597,#73,.T.);
#508=EDGE_CURVE('',#596,#591,#74,.T.);
#509=EDGE_CURVE('',#597,#593,#75,.T.);
#510=EDGE_CURVE('',#598,#599,#76,.T.);
#511=EDGE_CURVE('',#600,#598,#77,.F.);
#512=EDGE_CURVE('',#600,#601,#78,.T.);
#513=EDGE_CURVE('',#601,#599,#79,.F.);
#514=EDGE_CURVE('',#594,#600,#80,.F.);
#515=EDGE_CURVE('',#595,#601,#81,.F.);
#516=EDGE_CURVE('',#599,#592,#82,.T.);
#517=EDGE_CURVE('',#598,#590,#83,.T.);
#518=EDGE_CURVE('',#573,#590,#626,.T.);
#519=EDGE_CURVE('',#568,#592,#627,.T.);
#520=EDGE_CURVE('',#570,#566,#84,.F.);
#521=EDGE_CURVE('',#570,#598,#628,.T.);
#522=EDGE_CURVE('',#566,#599,#629,.T.);
#523=EDGE_CURVE('',#602,#603,#85,.F.);
#524=EDGE_CURVE('',#603,#604,#86,.T.);
#525=EDGE_CURVE('',#605,#604,#87,.F.);
#526=EDGE_CURVE('',#602,#605,#88,.T.);
#527=EDGE_CURVE('',#606,#607,#89,.T.);
#528=EDGE_CURVE('',#608,#606,#90,.T.);
#529=EDGE_CURVE('',#608,#609,#91,.F.);
#530=EDGE_CURVE('',#609,#607,#92,.T.);
#531=EDGE_CURVE('',#608,#602,#93,.F.);
#532=EDGE_CURVE('',#609,#605,#94,.F.);
#533=EDGE_CURVE('',#610,#611,#95,.T.);
#534=EDGE_CURVE('',#610,#612,#96,.F.);
#535=EDGE_CURVE('',#612,#613,#97,.F.);
#536=EDGE_CURVE('',#611,#613,#98,.F.);
#537=EDGE_CURVE('',#606,#612,#99,.T.);
#538=EDGE_CURVE('',#607,#613,#100,.T.);
#539=EDGE_CURVE('',#604,#611,#101,.T.);
#540=EDGE_CURVE('',#603,#610,#102,.T.);
#541=EDGE_CURVE('',#610,#572,#630,.T.);
#542=EDGE_CURVE('',#611,#569,#631,.T.);
#543=EDGE_CURVE('',#603,#571,#632,.T.);
#544=EDGE_CURVE('',#571,#567,#103,.T.);
#545=EDGE_CURVE('',#604,#567,#633,.T.);
#546=EDGE_CURVE('',#562,#571,#634,.T.);
#547=EDGE_CURVE('',#553,#567,#635,.T.);
#548=EDGE_CURVE('',#559,#570,#636,.T.);
#549=EDGE_CURVE('',#552,#566,#637,.T.);
#550=VERTEX_POINT('',#1160);
#551=VERTEX_POINT('',#1163);
#552=VERTEX_POINT('',#1164);
#553=VERTEX_POINT('',#1166);
#554=VERTEX_POINT('',#1168);
#555=VERTEX_POINT('',#1170);
#556=VERTEX_POINT('',#1172);
#557=VERTEX_POINT('',#1175);
#558=VERTEX_POINT('',#1178);
#559=VERTEX_POINT('',#1179);
#560=VERTEX_POINT('',#1184);
#561=VERTEX_POINT('',#1186);
#562=VERTEX_POINT('',#1192);
#563=VERTEX_POINT('',#1194);
#564=VERTEX_POINT('',#1200);
#565=VERTEX_POINT('',#1202);
#566=VERTEX_POINT('',#1206);
#567=VERTEX_POINT('',#1207);
#568=VERTEX_POINT('',#1209);
#569=VERTEX_POINT('',#1211);
#570=VERTEX_POINT('',#1215);
#571=VERTEX_POINT('',#1216);
#572=VERTEX_POINT('',#1218);
#573=VERTEX_POINT('',#1220);
#574=VERTEX_POINT('',#1224);
#575=VERTEX_POINT('',#1225);
#576=VERTEX_POINT('',#1227);
#577=VERTEX_POINT('',#1229);
#578=VERTEX_POINT('',#1233);
#579=VERTEX_POINT('',#1234);
#580=VERTEX_POINT('',#1236);
#581=VERTEX_POINT('',#1238);
#582=VERTEX_POINT('',#1245);
#583=VERTEX_POINT('',#1246);
#584=VERTEX_POINT('',#1248);
#585=VERTEX_POINT('',#1250);
#586=VERTEX_POINT('',#1258);
#587=VERTEX_POINT('',#1260);
#588=VERTEX_POINT('',#1263);
#589=VERTEX_POINT('',#1265);
#590=VERTEX_POINT('',#1279);
#591=VERTEX_POINT('',#1280);
#592=VERTEX_POINT('',#1282);
#593=VERTEX_POINT('',#1284);
#594=VERTEX_POINT('',#1288);
#595=VERTEX_POINT('',#1289);
#596=VERTEX_POINT('',#1291);
#597=VERTEX_POINT('',#1293);
#598=VERTEX_POINT('',#1300);
#599=VERTEX_POINT('',#1301);
#600=VERTEX_POINT('',#1303);
#601=VERTEX_POINT('',#1305);
#602=VERTEX_POINT('',#1325);
#603=VERTEX_POINT('',#1326);
#604=VERTEX_POINT('',#1328);
#605=VERTEX_POINT('',#1330);
#606=VERTEX_POINT('',#1334);
#607=VERTEX_POINT('',#1335);
#608=VERTEX_POINT('',#1337);
#609=VERTEX_POINT('',#1339);
#610=VERTEX_POINT('',#1346);
#611=VERTEX_POINT('',#1347);
#612=VERTEX_POINT('',#1349);
#613=VERTEX_POINT('',#1351);
#614=CIRCLE('',#838,0.0002);
#615=CIRCLE('',#840,0.0002);
#616=CIRCLE('',#847,0.000346410161513774);
#617=CIRCLE('',#848,0.000346410161513774);
#618=CIRCLE('',#857,0.0002);
#619=CIRCLE('',#858,0.0002);
#620=CIRCLE('',#860,0.000346410161513775);
#621=CIRCLE('',#861,0.000346410161513775);
#622=CIRCLE('',#863,0.0002);
#623=CIRCLE('',#864,0.0004);
#624=CIRCLE('',#866,0.0002);
#625=CIRCLE('',#867,0.0004);
#626=CIRCLE('',#878,0.0002);
#627=CIRCLE('',#879,0.0004);
#628=CIRCLE('',#881,0.0002);
#629=CIRCLE('',#882,0.0004);
#630=CIRCLE('',#893,0.0002);
#631=CIRCLE('',#894,0.0004);
#632=CIRCLE('',#896,0.0002);
#633=CIRCLE('',#897,0.0004);
#634=CIRCLE('',#901,0.0002);
#635=CIRCLE('',#902,0.0004);
#636=CIRCLE('',#904,0.0002);
#637=CIRCLE('',#905,0.0004);
#638=EDGE_LOOP('',(#226));
#639=EDGE_LOOP('',(#227));
#640=EDGE_LOOP('',(#228,#229,#230,#231,#232,#233));
#641=EDGE_LOOP('',(#234));
#642=EDGE_LOOP('',(#235,#236,#237,#238));
#643=EDGE_LOOP('',(#239,#240,#241,#242));
#644=EDGE_LOOP('',(#243,#244,#245,#246));
#645=EDGE_LOOP('',(#247,#248,#249,#250));
#646=EDGE_LOOP('',(#251,#252,#253,#254));
#647=EDGE_LOOP('',(#255));
#648=EDGE_LOOP('',(#256));
#649=EDGE_LOOP('',(#257,#258,#259,#260,#261,#262));
#650=EDGE_LOOP('',(#263,#264,#265,#266));
#651=EDGE_LOOP('',(#267,#268,#269,#270));
#652=EDGE_LOOP('',(#271,#272,#273,#274));
#653=EDGE_LOOP('',(#275,#276,#277,#278));
#654=EDGE_LOOP('',(#279,#280,#281,#282));
#655=EDGE_LOOP('',(#283,#284,#285,#286));
#656=EDGE_LOOP('',(#287,#288,#289,#290));
#657=EDGE_LOOP('',(#291,#292,#293,#294,#295,#296));
#658=EDGE_LOOP('',(#297));
#659=EDGE_LOOP('',(#298));
#660=EDGE_LOOP('',(#299));
#661=EDGE_LOOP('',(#300));
#662=EDGE_LOOP('',(#301,#302,#303,#304,#305,#306));
#663=EDGE_LOOP('',(#307,#308,#309,#310));
#664=EDGE_LOOP('',(#311,#312,#313,#314));
#665=EDGE_LOOP('',(#315,#316,#317,#318));
#666=EDGE_LOOP('',(#319,#320,#321,#322));
#667=EDGE_LOOP('',(#323,#324,#325,#326));
#668=EDGE_LOOP('',(#327,#328,#329,#330));
#669=EDGE_LOOP('',(#331,#332,#333,#334));
#670=EDGE_LOOP('',(#335,#336,#337,#338));
#671=EDGE_LOOP('',(#339,#340,#341,#342));
#672=EDGE_LOOP('',(#343,#344,#345,#346,#347,#348));
#673=EDGE_LOOP('',(#349,#350,#351,#352,#353,#354));
#674=EDGE_LOOP('',(#355,#356,#357,#358));
#675=EDGE_LOOP('',(#359,#360,#361,#362));
#676=EDGE_LOOP('',(#363,#364,#365,#366));
#677=EDGE_LOOP('',(#367,#368,#369,#370));
#678=EDGE_LOOP('',(#371,#372,#373,#374));
#679=EDGE_LOOP('',(#375,#376,#377,#378));
#680=EDGE_LOOP('',(#379,#380,#381,#382));
#681=EDGE_LOOP('',(#383,#384,#385,#386));
#682=EDGE_LOOP('',(#387,#388,#389,#390));
#683=EDGE_LOOP('',(#391,#392,#393,#394,#395,#396));
#684=EDGE_LOOP('',(#397,#398,#399,#400,#401,#402));
#685=EDGE_LOOP('',(#403,#404,#405,#406));
#686=EDGE_LOOP('',(#407,#408,#409,#410));
#687=EDGE_LOOP('',(#411,#412,#413,#414));
#688=EDGE_LOOP('',(#415,#416,#417,#418));
#689=EDGE_LOOP('',(#419,#420,#421,#422));
#690=EDGE_LOOP('',(#423,#424,#425,#426));
#691=EDGE_LOOP('',(#427,#428,#429,#430));
#692=EDGE_LOOP('',(#431,#432,#433,#434));
#693=EDGE_LOOP('',(#435));
#694=EDGE_LOOP('',(#436));
#695=EDGE_LOOP('',(#437));
#696=EDGE_LOOP('',(#438));
#697=EDGE_LOOP('',(#439));
#698=EDGE_LOOP('',(#440));
#699=EDGE_LOOP('',(#441));
#700=FACE_BOUND('',#638,.T.);
#701=FACE_BOUND('',#639,.T.);
#702=FACE_BOUND('',#640,.T.);
#703=FACE_BOUND('',#641,.T.);
#704=FACE_BOUND('',#642,.T.);
#705=FACE_BOUND('',#643,.T.);
#706=FACE_BOUND('',#644,.T.);
#707=FACE_BOUND('',#645,.T.);
#708=FACE_BOUND('',#646,.T.);
#709=FACE_BOUND('',#647,.T.);
#710=FACE_BOUND('',#648,.T.);
#711=FACE_BOUND('',#649,.T.);
#712=FACE_BOUND('',#650,.T.);
#713=FACE_BOUND('',#651,.T.);
#714=FACE_BOUND('',#652,.T.);
#715=FACE_BOUND('',#653,.T.);
#716=FACE_BOUND('',#654,.T.);
#717=FACE_BOUND('',#655,.T.);
#718=FACE_BOUND('',#656,.T.);
#719=FACE_BOUND('',#657,.T.);
#720=FACE_BOUND('',#658,.T.);
#721=FACE_BOUND('',#659,.T.);
#722=FACE_BOUND('',#660,.T.);
#723=FACE_BOUND('',#661,.T.);
#724=FACE_BOUND('',#662,.T.);
#725=FACE_BOUND('',#663,.T.);
#726=FACE_BOUND('',#664,.T.);
#727=FACE_BOUND('',#665,.T.);
#728=FACE_BOUND('',#666,.T.);
#729=FACE_BOUND('',#667,.T.);
#730=FACE_BOUND('',#668,.T.);
#731=FACE_BOUND('',#669,.T.);
#732=FACE_BOUND('',#670,.T.);
#733=FACE_BOUND('',#671,.T.);
#734=FACE_BOUND('',#672,.T.);
#735=FACE_BOUND('',#673,.T.);
#736=FACE_BOUND('',#674,.T.);
#737=FACE_BOUND('',#675,.T.);
#738=FACE_BOUND('',#676,.T.);
#739=FACE_BOUND('',#677,.T.);
#740=FACE_BOUND('',#678,.T.);
#741=FACE_BOUND('',#679,.T.);
#742=FACE_BOUND('',#680,.T.);
#743=FACE_BOUND('',#681,.T.);
#744=FACE_BOUND('',#682,.T.);
#745=FACE_BOUND('',#683,.T.);
#746=FACE_BOUND('',#684,.T.);
#747=FACE_BOUND('',#685,.T.);
#748=FACE_BOUND('',#686,.T.);
#749=FACE_BOUND('',#687,.T.);
#750=FACE_BOUND('',#688,.T.);
#751=FACE_BOUND('',#689,.T.);
#752=FACE_BOUND('',#690,.T.);
#753=FACE_BOUND('',#691,.T.);
#754=FACE_BOUND('',#692,.T.);
#755=FACE_BOUND('',#693,.T.);
#756=FACE_BOUND('',#694,.T.);
#757=FACE_BOUND('',#695,.T.);
#758=FACE_BOUND('',#696,.T.);
#759=FACE_BOUND('',#697,.T.);
#760=FACE_BOUND('',#698,.T.);
#761=FACE_BOUND('',#699,.T.);
#762=SPHERICAL_SURFACE('',#837,0.0002);
#763=SPHERICAL_SURFACE('',#908,0.0004);
#764=SPHERICAL_SURFACE('',#909,0.0002);
#765=SPHERICAL_SURFACE('',#910,0.0004);
#766=SPHERICAL_SURFACE('',#911,0.0002);
#767=SPHERICAL_SURFACE('',#912,0.0004);
#768=SPHERICAL_SURFACE('',#913,0.0002);
#769=SPHERICAL_SURFACE('',#914,0.0004);
#770=ADVANCED_FACE('',(#700),#762,.F.);
#771=ADVANCED_FACE('',(#701,#702,#703),#188,.F.);
#772=ADVANCED_FACE('',(#704),#189,.F.);
#773=ADVANCED_FACE('',(#705),#190,.T.);
#774=ADVANCED_FACE('',(#706),#191,.F.);
#775=ADVANCED_FACE('',(#707),#192,.F.);
#776=ADVANCED_FACE('',(#708),#193,.T.);
#777=ADVANCED_FACE('',(#709,#710,#711),#194,.T.);
#778=ADVANCED_FACE('',(#712),#195,.T.);
#779=ADVANCED_FACE('',(#713),#196,.F.);
#780=ADVANCED_FACE('',(#714),#197,.F.);
#781=ADVANCED_FACE('',(#715),#198,.T.);
#782=ADVANCED_FACE('',(#716),#199,.T.);
#783=ADVANCED_FACE('',(#717),#200,.F.);
#784=ADVANCED_FACE('',(#718),#201,.F.);
#785=ADVANCED_FACE('',(#719,#720,#721),#202,.T.);
#786=ADVANCED_FACE('',(#722,#723,#724),#203,.F.);
#787=ADVANCED_FACE('',(#725),#204,.F.);
#788=ADVANCED_FACE('',(#726),#205,.T.);
#789=ADVANCED_FACE('',(#727),#12,.T.);
#790=ADVANCED_FACE('',(#728),#13,.F.);
#791=ADVANCED_FACE('',(#729),#206,.F.);
#792=ADVANCED_FACE('',(#730),#207,.T.);
#793=ADVANCED_FACE('',(#731),#208,.T.);
#794=ADVANCED_FACE('',(#732),#209,.F.);
#795=ADVANCED_FACE('',(#733),#210,.F.);
#796=ADVANCED_FACE('',(#734),#211,.T.);
#797=ADVANCED_FACE('',(#735),#212,.F.);
#798=ADVANCED_FACE('',(#736),#213,.F.);
#799=ADVANCED_FACE('',(#737),#214,.T.);
#800=ADVANCED_FACE('',(#738),#14,.T.);
#801=ADVANCED_FACE('',(#739),#15,.F.);
#802=ADVANCED_FACE('',(#740),#215,.F.);
#803=ADVANCED_FACE('',(#741),#216,.T.);
#804=ADVANCED_FACE('',(#742),#217,.F.);
#805=ADVANCED_FACE('',(#743),#218,.F.);
#806=ADVANCED_FACE('',(#744),#219,.T.);
#807=ADVANCED_FACE('',(#745),#220,.F.);
#808=ADVANCED_FACE('',(#746),#221,.T.);
#809=ADVANCED_FACE('',(#747),#222,.F.);
#810=ADVANCED_FACE('',(#748),#223,.T.);
#811=ADVANCED_FACE('',(#749),#16,.T.);
#812=ADVANCED_FACE('',(#750),#17,.F.);
#813=ADVANCED_FACE('',(#751),#224,.F.);
#814=ADVANCED_FACE('',(#752),#225,.T.);
#815=ADVANCED_FACE('',(#753),#18,.T.);
#816=ADVANCED_FACE('',(#754),#19,.F.);
#817=ADVANCED_FACE('',(#755),#763,.T.);
#818=ADVANCED_FACE('',(#756),#764,.F.);
#819=ADVANCED_FACE('',(#757),#765,.T.);
#820=ADVANCED_FACE('',(#758),#766,.F.);
#821=ADVANCED_FACE('',(#759),#767,.T.);
#822=ADVANCED_FACE('',(#760),#768,.F.);
#823=ADVANCED_FACE('',(#761),#769,.T.);
#824=CLOSED_SHELL('',(#770,#771,#772,#773,#774,#775,#776,#777,#778,#779,
#780,#781,#782,#783,#784,#785,#786,#787,#788,#789,#790,#791,#792,#793,#794,
#795,#796,#797,#798,#799,#800,#801,#802,#803,#804,#805,#806,#807,#808,#809,
#810,#811,#812,#813,#814,#815,#816,#817,#818,#819,#820,#821,#822,#823));
#825=STYLED_ITEM('',(#826),#833);
#826=PRESENTATION_STYLE_ASSIGNMENT((#827));
#827=SURFACE_STYLE_USAGE(.BOTH.,#828);
#828=SURFACE_SIDE_STYLE('',(#829));
#829=SURFACE_STYLE_FILL_AREA(#830);
#830=FILL_AREA_STYLE('',(#831));
#831=FILL_AREA_STYLE_COLOUR('',#832);
#832=COLOUR_RGB('',0.8,0.8,0.8);
#833=MANIFOLD_SOLID_BREP('Part 1',#824);
#834=SHAPE_DEFINITION_REPRESENTATION(#1390,#835);
#835=SHAPE_REPRESENTATION('Part 1',(#836),#1385);
#836=AXIS2_PLACEMENT_3D('',#1157,#915,#916);
#837=AXIS2_PLACEMENT_3D('',#1158,#917,#918);
#838=AXIS2_PLACEMENT_3D('',#1159,#919,#920);
#839=AXIS2_PLACEMENT_3D('',#1161,#921,#922);
#840=AXIS2_PLACEMENT_3D('',#1174,#929,#930);
#841=AXIS2_PLACEMENT_3D('',#1176,#931,#932);
#842=AXIS2_PLACEMENT_3D('',#1182,#936,#937);
#843=AXIS2_PLACEMENT_3D('',#1188,#941,#942);
#844=AXIS2_PLACEMENT_3D('',#1190,#944,#945);
#845=AXIS2_PLACEMENT_3D('',#1196,#949,#950);
#846=AXIS2_PLACEMENT_3D('',#1198,#952,#953);
#847=AXIS2_PLACEMENT_3D('',#1199,#954,#955);
#848=AXIS2_PLACEMENT_3D('',#1201,#956,#957);
#849=AXIS2_PLACEMENT_3D('',#1204,#959,#960);
#850=AXIS2_PLACEMENT_3D('',#1213,#965,#966);
#851=AXIS2_PLACEMENT_3D('',#1222,#971,#972);
#852=AXIS2_PLACEMENT_3D('',#1231,#977,#978);
#853=AXIS2_PLACEMENT_3D('',#1240,#983,#984);
#854=AXIS2_PLACEMENT_3D('',#1243,#987,#988);
#855=AXIS2_PLACEMENT_3D('',#1252,#993,#994);
#856=AXIS2_PLACEMENT_3D('',#1255,#997,#998);
#857=AXIS2_PLACEMENT_3D('',#1257,#1000,#1001);
#858=AXIS2_PLACEMENT_3D('',#1259,#1002,#1003);
#859=AXIS2_PLACEMENT_3D('',#1261,#1004,#1005);
#860=AXIS2_PLACEMENT_3D('',#1262,#1006,#1007);
#861=AXIS2_PLACEMENT_3D('',#1264,#1008,#1009);
#862=AXIS2_PLACEMENT_3D('',#1267,#1011,#1012);
#863=AXIS2_PLACEMENT_3D('',#1268,#1013,#1014);
#864=AXIS2_PLACEMENT_3D('',#1270,#1016,#1017);
#865=AXIS2_PLACEMENT_3D('',#1271,#1018,#1019);
#866=AXIS2_PLACEMENT_3D('',#1273,#1021,#1022);
#867=AXIS2_PLACEMENT_3D('',#1274,#1023,#1024);
#868=AXIS2_PLACEMENT_3D('',#1275,#1025,#1026);
#869=AXIS2_PLACEMENT_3D('',#1276,#1027,#1028);
#870=AXIS2_PLACEMENT_3D('',#1277,#1029,#1030);
#871=AXIS2_PLACEMENT_3D('',#1286,#1035,#1036);
#872=AXIS2_PLACEMENT_3D('',#1295,#1041,#1042);
#873=AXIS2_PLACEMENT_3D('',#1298,#1045,#1046);
#874=AXIS2_PLACEMENT_3D('',#1307,#1051,#1052);
#875=AXIS2_PLACEMENT_3D('',#1310,#1055,#1056);
#876=AXIS2_PLACEMENT_3D('',#1312,#1058,#1059);
#877=AXIS2_PLACEMENT_3D('',#1314,#1061,#1062);
#878=AXIS2_PLACEMENT_3D('',#1315,#1063,#1064);
#879=AXIS2_PLACEMENT_3D('',#1316,#1065,#1066);
#880=AXIS2_PLACEMENT_3D('',#1317,#1067,#1068);
#881=AXIS2_PLACEMENT_3D('',#1319,#1070,#1071);
#882=AXIS2_PLACEMENT_3D('',#1320,#1072,#1073);
#883=AXIS2_PLACEMENT_3D('',#1321,#1074,#1075);
#884=AXIS2_PLACEMENT_3D('',#1322,#1076,#1077);
#885=AXIS2_PLACEMENT_3D('',#1323,#1078,#1079);
#886=AXIS2_PLACEMENT_3D('',#1332,#1084,#1085);
#887=AXIS2_PLACEMENT_3D('',#1341,#1090,#1091);
#888=AXIS2_PLACEMENT_3D('',#1344,#1094,#1095);
#889=AXIS2_PLACEMENT_3D('',#1353,#1100,#1101);
#890=AXIS2_PLACEMENT_3D('',#1356,#1104,#1105);
#891=AXIS2_PLACEMENT_3D('',#1358,#1107,#1108);
#892=AXIS2_PLACEMENT_3D('',#1360,#1110,#1111);
#893=AXIS2_PLACEMENT_3D('',#1361,#1112,#1113);
#894=AXIS2_PLACEMENT_3D('',#1362,#1114,#1115);
#895=AXIS2_PLACEMENT_3D('',#1363,#1116,#1117);
#896=AXIS2_PLACEMENT_3D('',#1364,#1118,#1119);
#897=AXIS2_PLACEMENT_3D('',#1366,#1121,#1122);
#898=AXIS2_PLACEMENT_3D('',#1367,#1123,#1124);
#899=AXIS2_PLACEMENT_3D('',#1368,#1125,#1126);
#900=AXIS2_PLACEMENT_3D('',#1369,#1127,#1128);
#901=AXIS2_PLACEMENT_3D('',#1370,#1129,#1130);
#902=AXIS2_PLACEMENT_3D('',#1371,#1131,#1132);
#903=AXIS2_PLACEMENT_3D('',#1372,#1133,#1134);
#904=AXIS2_PLACEMENT_3D('',#1373,#1135,#1136);
#905=AXIS2_PLACEMENT_3D('',#1374,#1137,#1138);
#906=AXIS2_PLACEMENT_3D('',#1375,#1139,#1140);
#907=AXIS2_PLACEMENT_3D('',#1376,#1141,#1142);
#908=AXIS2_PLACEMENT_3D('',#1377,#1143,#1144);
#909=AXIS2_PLACEMENT_3D('',#1378,#1145,#1146);
#910=AXIS2_PLACEMENT_3D('',#1379,#1147,#1148);
#911=AXIS2_PLACEMENT_3D('',#1380,#1149,#1150);
#912=AXIS2_PLACEMENT_3D('',#1381,#1151,#1152);
#913=AXIS2_PLACEMENT_3D('',#1382,#1153,#1154);
#914=AXIS2_PLACEMENT_3D('',#1383,#1155,#1156);
#915=DIRECTION('',(0.,0.,1.));
#916=DIRECTION('',(1.,0.,0.));
#917=DIRECTION('',(0.,0.,1.));
#918=DIRECTION('',(1.,1.22464679914735E-16,0.));
#919=DIRECTION('',(1.22464679914735E-16,-1.,0.));
#920=DIRECTION('',(0.,0.,-1.));
#921=DIRECTION('',(1.22464679914735E-16,-1.,0.));
#922=DIRECTION('',(1.,1.22464679914735E-16,0.));
#923=DIRECTION('',(-1.,0.,0.));
#924=DIRECTION('',(1.,3.79866454593462E-16,0.));
#925=DIRECTION('',(-1.,0.,0.));
#926=DIRECTION('',(0.,0.,1.));
#927=DIRECTION('',(1.,0.,0.));
#928=DIRECTION('',(0.,0.,-1.));
#929=DIRECTION('',(1.22464679914735E-16,1.,0.));
#930=DIRECTION('',(0.,0.,-1.));
#931=DIRECTION('',(0.,0.,-1.));
#932=DIRECTION('',(1.,0.,0.));
#933=DIRECTION('',(-1.,0.,0.));
#934=DIRECTION('',(0.,1.,-2.168404344971E-15));
#935=DIRECTION('',(0.,1.,0.));
#936=DIRECTION('',(0.,0.,-1.));
#937=DIRECTION('',(1.,0.,0.));
#938=DIRECTION('',(0.,1.,0.));
#939=DIRECTION('',(1.,0.,0.));
#940=DIRECTION('',(0.,-1.,0.));
#941=DIRECTION('',(1.,0.,0.));
#942=DIRECTION('',(0.,0.,1.));
#943=DIRECTION('',(0.,0.,-1.));
#944=DIRECTION('',(0.,0.,-1.));
#945=DIRECTION('',(1.,0.,0.));
#946=DIRECTION('',(0.,1.,3.25260651745652E-15));
#947=DIRECTION('',(-1.,0.,0.));
#948=DIRECTION('',(0.,-1.,0.));
#949=DIRECTION('',(1.,0.,0.));
#950=DIRECTION('',(0.,0.,1.));
#951=DIRECTION('',(0.,0.,1.));
#952=DIRECTION('',(0.,-1.,0.));
#953=DIRECTION('',(0.,0.,-1.));
#954=DIRECTION('',(0.,-1.,0.));
#955=DIRECTION('',(0.,0.,-1.));
#956=DIRECTION('',(0.,-1.,0.));
#957=DIRECTION('',(0.,0.,-1.));
#958=DIRECTION('',(1.,3.79866454593462E-16,0.));
#959=DIRECTION('',(0.,0.,1.));
#960=DIRECTION('',(1.,0.,0.));
#961=DIRECTION('',(-1.,0.,0.));
#962=DIRECTION('',(3.82097681933217E-17,-1.,0.));
#963=DIRECTION('',(1.,0.,0.));
#964=DIRECTION('',(-3.82097681933217E-17,1.,0.));
#965=DIRECTION('',(0.,0.,1.));
#966=DIRECTION('',(1.,0.,0.));
#967=DIRECTION('',(-1.,0.,0.));
#968=DIRECTION('',(-3.82097681933217E-17,1.,0.));
#969=DIRECTION('',(1.,0.,0.));
#970=DIRECTION('',(3.82097681933217E-17,-1.,0.));
#971=DIRECTION('',(0.,0.,-1.));
#972=DIRECTION('',(1.,0.,0.));
#973=DIRECTION('',(-1.,0.,0.));
#974=DIRECTION('',(0.,-1.,0.));
#975=DIRECTION('',(-1.,0.,0.));
#976=DIRECTION('',(0.,1.,0.));
#977=DIRECTION('',(0.,0.,-1.));
#978=DIRECTION('',(1.,0.,0.));
#979=DIRECTION('',(0.,1.,0.));
#980=DIRECTION('',(1.,0.,0.));
#981=DIRECTION('',(0.,-1.,0.));
#982=DIRECTION('',(1.,0.,0.));
#983=DIRECTION('',(1.,0.,0.));
#984=DIRECTION('',(0.,0.,1.));
#985=DIRECTION('',(0.,0.,1.));
#986=DIRECTION('',(0.,0.,1.));
#987=DIRECTION('',(0.,0.,-1.));
#988=DIRECTION('',(1.,0.,0.));
#989=DIRECTION('',(0.,-1.,1.0842021724855E-15));
#990=DIRECTION('',(-1.,0.,0.));
#991=DIRECTION('',(0.,-1.,0.));
#992=DIRECTION('',(-1.,0.,0.));
#993=DIRECTION('',(1.,0.,0.));
#994=DIRECTION('',(0.,0.,1.));
#995=DIRECTION('',(0.,0.,-1.));
#996=DIRECTION('',(0.,0.,-1.));
#997=DIRECTION('',(0.,-1.,0.));
#998=DIRECTION('',(0.,0.,-1.));
#999=DIRECTION('',(1.,-2.53244303062308E-16,0.));
#1000=DIRECTION('',(-1.22464679914735E-16,1.,0.));
#1001=DIRECTION('',(0.,0.,-1.));
#1002=DIRECTION('',(-1.22464679914735E-16,-1.,0.));
#1003=DIRECTION('',(0.,0.,-1.));
#1004=DIRECTION('',(0.,-1.,0.));
#1005=DIRECTION('',(0.,0.,-1.));
#1006=DIRECTION('',(0.,-1.,0.));
#1007=DIRECTION('',(0.,0.,-1.));
#1008=DIRECTION('',(0.,-1.,0.));
#1009=DIRECTION('',(0.,0.,-1.));
#1010=DIRECTION('',(1.,-2.53244303062308E-16,0.));
#1011=DIRECTION('',(-1.,2.53244303062308E-16,0.));
#1012=DIRECTION('',(-2.53244303062308E-16,-1.,0.));
#1013=DIRECTION('',(1.,-2.53244303062308E-16,0.));
#1014=DIRECTION('',(2.53244303062308E-16,1.,0.));
#1015=DIRECTION('',(0.,0.,-1.));
#1016=DIRECTION('',(1.,-2.53244303062308E-16,0.));
#1017=DIRECTION('',(2.53244303062308E-16,1.,0.));
#1018=DIRECTION('',(-1.,2.53244303062308E-16,0.));
#1019=DIRECTION('',(-2.53244303062308E-16,-1.,0.));
#1020=DIRECTION('',(0.,0.,1.));
#1021=DIRECTION('',(1.,-2.53244303062308E-16,0.));
#1022=DIRECTION('',(2.53244303062308E-16,1.,0.));
#1023=DIRECTION('',(1.,-2.53244303062308E-16,0.));
#1024=DIRECTION('',(2.53244303062308E-16,1.,0.));
#1025=DIRECTION('',(1.,-2.53244303062308E-16,0.));
#1026=DIRECTION('',(-1.79070763992219E-16,-0.707106781186548,0.707106781186548));
#1027=DIRECTION('',(1.,-2.53244303062308E-16,0.));
#1028=DIRECTION('',(-1.79070763992219E-16,-0.707106781186548,0.707106781186548));
#1029=DIRECTION('',(0.,0.,-1.));
#1030=DIRECTION('',(3.82097681933217E-17,-1.,0.));
#1031=DIRECTION('',(-3.82097681933217E-17,1.,0.));
#1032=DIRECTION('',(-1.,0.,2.16840434497102E-15));
#1033=DIRECTION('',(-3.82097681933217E-17,1.,0.));
#1034=DIRECTION('',(1.,3.82097681933217E-17,0.));
#1035=DIRECTION('',(0.,0.,-1.));
#1036=DIRECTION('',(3.82097681933217E-17,-1.,0.));
#1037=DIRECTION('',(1.,3.82097681933217E-17,0.));
#1038=DIRECTION('',(3.82097681933217E-17,-1.,0.));
#1039=DIRECTION('',(-1.,-3.82097681933217E-17,0.));
#1040=DIRECTION('',(3.82097681933217E-17,-1.,0.));
#1041=DIRECTION('',(3.82097681933217E-17,-1.,0.));
#1042=DIRECTION('',(0.,0.,1.));
#1043=DIRECTION('',(0.,0.,1.));
#1044=DIRECTION('',(0.,0.,1.));
#1045=DIRECTION('',(0.,0.,-1.));
#1046=DIRECTION('',(3.82097681933217E-17,-1.,0.));
#1047=DIRECTION('',(-1.,0.,-1.0842021724855E-15));
#1048=DIRECTION('',(-3.82097681933217E-17,1.,0.));
#1049=DIRECTION('',(-1.,-3.82097681933217E-17,0.));
#1050=DIRECTION('',(-3.82097681933217E-17,1.,0.));
#1051=DIRECTION('',(3.82097681933217E-17,-1.,0.));
#1052=DIRECTION('',(0.,0.,1.));
#1053=DIRECTION('',(0.,0.,-1.));
#1054=DIRECTION('',(0.,0.,-1.));
#1055=DIRECTION('',(-1.,-3.82097681933217E-17,0.));
#1056=DIRECTION('',(3.82097681933217E-17,-1.,0.));
#1057=DIRECTION('',(-1.14629304579965E-16,-1.,0.));
#1058=DIRECTION('',(-1.,-3.82097681933217E-17,0.));
#1059=DIRECTION('',(3.82097681933217E-17,-1.,0.));
#1060=DIRECTION('',(-1.14629304579965E-16,-1.,0.));
#1061=DIRECTION('',(1.14629304579965E-16,1.,0.));
#1062=DIRECTION('',(-1.,1.14629304579965E-16,0.));
#1063=DIRECTION('',(-1.14629304579965E-16,-1.,0.));
#1064=DIRECTION('',(1.,-1.14629304579965E-16,0.));
#1065=DIRECTION('',(-1.14629304579965E-16,-1.,0.));
#1066=DIRECTION('',(1.,-1.14629304579965E-16,0.));
#1067=DIRECTION('',(1.14629304579965E-16,1.,0.));
#1068=DIRECTION('',(-1.,1.14629304579965E-16,0.));
#1069=DIRECTION('',(0.,0.,-1.));
#1070=DIRECTION('',(-1.14629304579965E-16,-1.,0.));
#1071=DIRECTION('',(1.,-1.14629304579965E-16,0.));
#1072=DIRECTION('',(-1.14629304579965E-16,-1.,0.));
#1073=DIRECTION('',(1.,-1.14629304579965E-16,0.));
#1074=DIRECTION('',(-1.14629304579965E-16,-1.,0.));
#1075=DIRECTION('',(-0.707106781186548,8.10551585911916E-17,0.707106781186548));
#1076=DIRECTION('',(-1.14629304579965E-16,-1.,0.));
#1077=DIRECTION('',(-0.707106781186548,8.10551585911916E-17,0.707106781186548));
#1078=DIRECTION('',(0.,0.,-1.));
#1079=DIRECTION('',(3.82097681933217E-17,-1.,0.));
#1080=DIRECTION('',(-3.82097681933217E-17,1.,0.));
#1081=DIRECTION('',(1.,0.,-1.0842021724855E-15));
#1082=DIRECTION('',(-3.82097681933217E-17,1.,0.));
#1083=DIRECTION('',(1.,3.82097681933217E-17,0.));
#1084=DIRECTION('',(0.,0.,-1.));
#1085=DIRECTION('',(3.82097681933217E-17,-1.,0.));
#1086=DIRECTION('',(1.,3.82097681933217E-17,0.));
#1087=DIRECTION('',(3.82097681933217E-17,-1.,0.));
#1088=DIRECTION('',(-1.,-3.82097681933217E-17,0.));
#1089=DIRECTION('',(3.82097681933217E-17,-1.,0.));
#1090=DIRECTION('',(3.82097681933217E-17,-1.,0.));
#1091=DIRECTION('',(0.,0.,1.));
#1092=DIRECTION('',(0.,0.,-1.));
#1093=DIRECTION('',(0.,0.,-1.));
#1094=DIRECTION('',(0.,0.,-1.));
#1095=DIRECTION('',(3.82097681933217E-17,-1.,0.));
#1096=DIRECTION('',(1.,0.,2.16840434497102E-15));
#1097=DIRECTION('',(-3.82097681933217E-17,1.,0.));
#1098=DIRECTION('',(-1.,-3.82097681933217E-17,0.));
#1099=DIRECTION('',(-3.82097681933217E-17,1.,0.));
#1100=DIRECTION('',(3.82097681933217E-17,-1.,0.));
#1101=DIRECTION('',(0.,0.,1.));
#1102=DIRECTION('',(0.,0.,1.));
#1103=DIRECTION('',(0.,0.,1.));
#1104=DIRECTION('',(-1.,-3.82097681933217E-17,0.));
#1105=DIRECTION('',(3.82097681933217E-17,-1.,0.));
#1106=DIRECTION('',(3.82097681933217E-17,-1.,0.));
#1107=DIRECTION('',(-1.,-3.82097681933217E-17,0.));
#1108=DIRECTION('',(3.82097681933217E-17,-1.,0.));
#1109=DIRECTION('',(3.82097681933217E-17,-1.,0.));
#1110=DIRECTION('',(-3.82097681933217E-17,1.,0.));
#1111=DIRECTION('',(-1.,-3.82097681933217E-17,0.));
#1112=DIRECTION('',(3.82097681933217E-17,-1.,0.));
#1113=DIRECTION('',(1.,3.82097681933217E-17,0.));
#1114=DIRECTION('',(3.82097681933217E-17,-1.,0.));
#1115=DIRECTION('',(1.,3.82097681933217E-17,0.));
#1116=DIRECTION('',(-3.82097681933217E-17,1.,0.));
#1117=DIRECTION('',(-1.,-3.82097681933217E-17,0.));
#1118=DIRECTION('',(3.82097681933217E-17,-1.,0.));
#1119=DIRECTION('',(1.,3.82097681933217E-17,0.));
#1120=DIRECTION('',(0.,0.,1.));
#1121=DIRECTION('',(3.82097681933217E-17,-1.,0.));
#1122=DIRECTION('',(1.,3.82097681933217E-17,0.));
#1123=DIRECTION('',(3.82097681933217E-17,-1.,0.));
#1124=DIRECTION('',(0.707106781186548,2.70183861970638E-17,0.707106781186548));
#1125=DIRECTION('',(3.82097681933217E-17,-1.,0.));
#1126=DIRECTION('',(0.707106781186548,2.70183861970638E-17,0.707106781186548));
#1127=DIRECTION('',(-1.,-3.79866454593462E-16,0.));
#1128=DIRECTION('',(3.79866454593462E-16,-1.,0.));
#1129=DIRECTION('',(1.,3.79866454593462E-16,0.));
#1130=DIRECTION('',(-3.79866454593462E-16,1.,0.));
#1131=DIRECTION('',(1.,3.79866454593462E-16,0.));
#1132=DIRECTION('',(-3.79866454593462E-16,1.,0.));
#1133=DIRECTION('',(-1.,-3.79866454593462E-16,0.));
#1134=DIRECTION('',(3.79866454593462E-16,-1.,0.));
#1135=DIRECTION('',(1.,3.79866454593462E-16,0.));
#1136=DIRECTION('',(-3.79866454593462E-16,1.,0.));
#1137=DIRECTION('',(1.,3.79866454593462E-16,0.));
#1138=DIRECTION('',(-3.79866454593462E-16,1.,0.));
#1139=DIRECTION('',(1.,3.79866454593462E-16,0.));
#1140=DIRECTION('',(-2.68606145988328E-16,0.707106781186548,0.707106781186548));
#1141=DIRECTION('',(1.,3.79866454593462E-16,0.));
#1142=DIRECTION('',(-2.68606145988328E-16,0.707106781186548,0.707106781186548));
#1143=DIRECTION('',(0.,0.,1.));
#1144=DIRECTION('',(1.,1.22464679914735E-16,0.));
#1145=DIRECTION('',(0.,0.,1.));
#1146=DIRECTION('',(-1.,-1.22464679914735E-16,0.));
#1147=DIRECTION('',(0.,0.,1.));
#1148=DIRECTION('',(1.,-1.22464679914735E-16,0.));
#1149=DIRECTION('',(0.,0.,1.));
#1150=DIRECTION('',(-1.,1.22464679914735E-16,0.));
#1151=DIRECTION('',(0.,0.,1.));
#1152=DIRECTION('',(-1.,1.22464679914735E-16,0.));
#1153=DIRECTION('',(0.,0.,1.));
#1154=DIRECTION('',(1.,-1.22464679914735E-16,0.));
#1155=DIRECTION('',(0.,0.,1.));
#1156=DIRECTION('',(-1.,-1.22464679914735E-16,0.));
#1157=CARTESIAN_POINT('',(0.,0.,0.));
#1158=CARTESIAN_POINT('',(0.003,0.01155,0.00075));
#1159=CARTESIAN_POINT('',(0.003,0.01155,0.00075));
#1160=CARTESIAN_POINT('',(0.003,0.01155,0.00055));
#1161=CARTESIAN_POINT('',(0.006,0.01155,0.000825));
#1162=CARTESIAN_POINT('',(0.,0.01155,0.0015));
#1163=CARTESIAN_POINT('',(-0.00683,0.01155,0.0015));
#1164=CARTESIAN_POINT('',(-0.00665,0.01155,0.0015));
#1165=CARTESIAN_POINT('',(7.15415156151019E-19,0.01155,0.0015));
#1166=CARTESIAN_POINT('',(0.00665,0.01155,0.0015));
#1167=CARTESIAN_POINT('',(0.,0.01155,0.0015));
#1168=CARTESIAN_POINT('',(0.00683,0.01155,0.0015));
#1169=CARTESIAN_POINT('',(0.00683,0.01155,0.00015));
#1170=CARTESIAN_POINT('',(0.00683,0.01155,0.00015));
#1171=CARTESIAN_POINT('',(0.,0.01155,0.00015));
#1172=CARTESIAN_POINT('',(-0.00683,0.01155,0.00015));
#1173=CARTESIAN_POINT('',(-0.00683,0.01155,0.00015));
#1174=CARTESIAN_POINT('',(-0.003,0.01155,0.00075));
#1175=CARTESIAN_POINT('',(-0.003,0.01155,0.00055));
#1176=CARTESIAN_POINT('',(0.,0.01135,0.0015));
#1177=CARTESIAN_POINT('',(0.,0.01135,0.0015));
#1178=CARTESIAN_POINT('',(-0.00683,0.01135,0.0015));
#1179=CARTESIAN_POINT('',(-0.00665,0.01135,0.0015));
#1180=CARTESIAN_POINT('',(-0.00665,0.01135,0.0015));
#1181=CARTESIAN_POINT('',(-0.00683,0.01135,0.0015));
#1182=CARTESIAN_POINT('',(0.,0.01135,0.00015));
#1183=CARTESIAN_POINT('',(0.00683,0.01135,0.00015));
#1184=CARTESIAN_POINT('',(0.00683,0.01135,0.00015));
#1185=CARTESIAN_POINT('',(0.,0.01135,0.00015));
#1186=CARTESIAN_POINT('',(-0.00683,0.01135,0.00015));
#1187=CARTESIAN_POINT('',(-0.00683,0.01135,0.00015));
#1188=CARTESIAN_POINT('',(-0.00683,0.01135,0.00015));
#1189=CARTESIAN_POINT('',(-0.00683,0.01135,0.00015));
#1190=CARTESIAN_POINT('',(0.,0.01135,0.0015));
#1191=CARTESIAN_POINT('',(0.00665,0.01135,0.0015));
#1192=CARTESIAN_POINT('',(0.00665,0.01135,0.0015));
#1193=CARTESIAN_POINT('',(0.,0.01135,0.0015));
#1194=CARTESIAN_POINT('',(0.00683,0.01135,0.0015));
#1195=CARTESIAN_POINT('',(0.00683,0.01135,0.0015));
#1196=CARTESIAN_POINT('',(0.00683,0.01135,0.00015));
#1197=CARTESIAN_POINT('',(0.00683,0.01135,0.00015));
#1198=CARTESIAN_POINT('',(0.,0.01135,0.00015));
#1199=CARTESIAN_POINT('',(0.003,0.01135,0.00075));
#1200=CARTESIAN_POINT('',(0.003,0.01135,0.000403589838486226));
#1201=CARTESIAN_POINT('',(-0.003,0.01135,0.00075));
#1202=CARTESIAN_POINT('',(-0.003,0.01135,0.000403589838486226));
#1203=CARTESIAN_POINT('',(7.91388447069711E-19,0.01135,0.0015));
#1204=CARTESIAN_POINT('',(0.,0.,0.0019));
#1205=CARTESIAN_POINT('',(0.,0.01115,0.0019));
#1206=CARTESIAN_POINT('',(-0.00665,0.01115,0.0019));
#1207=CARTESIAN_POINT('',(0.00665,0.01115,0.0019));
#1208=CARTESIAN_POINT('',(-0.00665,-2.54094958485589E-19,0.0019));
#1209=CARTESIAN_POINT('',(-0.00665,-0.01115,0.0019));
#1210=CARTESIAN_POINT('',(0.,-0.01115,0.0019));
#1211=CARTESIAN_POINT('',(0.00665,-0.01115,0.0019));
#1212=CARTESIAN_POINT('',(0.00665,-7.64195363866434E-21,0.0019));
#1213=CARTESIAN_POINT('',(0.,0.,0.0017));
#1214=CARTESIAN_POINT('',(0.,0.01115,0.0017));
#1215=CARTESIAN_POINT('',(-0.00665,0.01115,0.0017));
#1216=CARTESIAN_POINT('',(0.00665,0.01115,0.0017));
#1217=CARTESIAN_POINT('',(0.00665,-7.64195363866434E-21,0.0017));
#1218=CARTESIAN_POINT('',(0.00665,-0.01115,0.0017));
#1219=CARTESIAN_POINT('',(0.,-0.01115,0.0017));
#1220=CARTESIAN_POINT('',(-0.00665,-0.01115,0.0017));
#1221=CARTESIAN_POINT('',(-0.00665,-2.54094958485589E-19,0.0017));
#1222=CARTESIAN_POINT('',(0.,-0.01135,0.0015));
#1223=CARTESIAN_POINT('',(0.,-0.01135,0.0015));
#1224=CARTESIAN_POINT('',(0.00665,-0.01135,0.0015));
#1225=CARTESIAN_POINT('',(0.00683,-0.01135,0.0015));
#1226=CARTESIAN_POINT('',(0.00665,-0.01135,0.0015));
#1227=CARTESIAN_POINT('',(0.00665,-0.01155,0.0015));
#1228=CARTESIAN_POINT('',(0.,-0.01155,0.0015));
#1229=CARTESIAN_POINT('',(0.00683,-0.01155,0.0015));
#1230=CARTESIAN_POINT('',(0.00683,-0.01135,0.0015));
#1231=CARTESIAN_POINT('',(0.,-0.01135,0.00015));
#1232=CARTESIAN_POINT('',(-0.00683,-0.01135,0.00015));
#1233=CARTESIAN_POINT('',(-0.00683,-0.01135,0.00015));
#1234=CARTESIAN_POINT('',(-0.00683,-0.01155,0.00015));
#1235=CARTESIAN_POINT('',(0.,-0.01135,0.00015));
#1236=CARTESIAN_POINT('',(0.00683,-0.01135,0.00015));
#1237=CARTESIAN_POINT('',(0.00683,-0.01135,0.00015));
#1238=CARTESIAN_POINT('',(0.00683,-0.01155,0.00015));
#1239=CARTESIAN_POINT('',(0.,-0.01155,0.00015));
#1240=CARTESIAN_POINT('',(0.00683,-0.01135,0.00015));
#1241=CARTESIAN_POINT('',(0.00683,-0.01135,0.00015));
#1242=CARTESIAN_POINT('',(0.00683,-0.01155,0.00015));
#1243=CARTESIAN_POINT('',(0.,-0.01135,0.0015));
#1244=CARTESIAN_POINT('',(-0.00665,-0.01135,0.0015));
#1245=CARTESIAN_POINT('',(-0.00665,-0.01135,0.0015));
#1246=CARTESIAN_POINT('',(-0.00665,-0.01155,0.0015));
#1247=CARTESIAN_POINT('',(0.,-0.01135,0.0015));
#1248=CARTESIAN_POINT('',(-0.00683,-0.01135,0.0015));
#1249=CARTESIAN_POINT('',(-0.00683,-0.01135,0.0015));
#1250=CARTESIAN_POINT('',(-0.00683,-0.01155,0.0015));
#1251=CARTESIAN_POINT('',(0.,-0.01155,0.0015));
#1252=CARTESIAN_POINT('',(-0.00683,-0.01135,0.00015));
#1253=CARTESIAN_POINT('',(-0.00683,-0.01135,0.00015));
#1254=CARTESIAN_POINT('',(-0.00683,-0.01155,0.00015));
#1255=CARTESIAN_POINT('',(0.,-0.01155,0.00015));
#1256=CARTESIAN_POINT('',(-9.68659459213327E-19,-0.01155,0.0015));
#1257=CARTESIAN_POINT('',(-0.003,-0.01155,0.00075));
#1258=CARTESIAN_POINT('',(-0.003,-0.01155,0.00055));
#1259=CARTESIAN_POINT('',(0.003,-0.01155,0.00075));
#1260=CARTESIAN_POINT('',(0.003,-0.01155,0.00055));
#1261=CARTESIAN_POINT('',(0.,-0.01135,0.00015));
#1262=CARTESIAN_POINT('',(0.003,-0.01135,0.00075));
#1263=CARTESIAN_POINT('',(0.003,-0.01135,0.000403589838486225));
#1264=CARTESIAN_POINT('',(-0.003,-0.01135,0.00075));
#1265=CARTESIAN_POINT('',(-0.003,-0.01135,0.000403589838486225));
#1266=CARTESIAN_POINT('',(-9.18010598600865E-19,-0.01135,0.0015));
#1267=CARTESIAN_POINT('',(0.00665,-0.01115,0.0015));
#1268=CARTESIAN_POINT('',(0.00665,-0.01115,0.0015));
#1269=CARTESIAN_POINT('',(0.00665,-0.01115,0.0017));
#1270=CARTESIAN_POINT('',(0.00665,-0.01115,0.0015));
#1271=CARTESIAN_POINT('',(-0.00665,-0.01115,0.0015));
#1272=CARTESIAN_POINT('',(-0.00665,-0.01115,0.0017));
#1273=CARTESIAN_POINT('',(-0.00665,-0.01115,0.0015));
#1274=CARTESIAN_POINT('',(-0.00665,-0.01115,0.0015));
#1275=CARTESIAN_POINT('',(-8.67361737988404E-19,-0.01115,0.0015));
#1276=CARTESIAN_POINT('',(-8.67361737988404E-19,-0.01115,0.0015));
#1277=CARTESIAN_POINT('',(-0.00685,8.67361737988404E-19,0.0015));
#1278=CARTESIAN_POINT('',(-0.00685,8.67361737988404E-19,0.0015));
#1279=CARTESIAN_POINT('',(-0.00685,-0.01115,0.0015));
#1280=CARTESIAN_POINT('',(-0.00685,-0.01133,0.0015));
#1281=CARTESIAN_POINT('',(-0.00685,-0.01115,0.0015));
#1282=CARTESIAN_POINT('',(-0.00705,-0.01115,0.0015));
#1283=CARTESIAN_POINT('',(-0.00705,8.59719784349739E-19,0.0015));
#1284=CARTESIAN_POINT('',(-0.00705,-0.01133,0.0015));
#1285=CARTESIAN_POINT('',(-0.00685,-0.01133,0.0015));
#1286=CARTESIAN_POINT('',(-0.00685,8.67361737988404E-19,0.00015));
#1287=CARTESIAN_POINT('',(-0.00685,0.01133,0.00015));
#1288=CARTESIAN_POINT('',(-0.00685,0.01133,0.00015));
#1289=CARTESIAN_POINT('',(-0.00705,0.01133,0.00015));
#1290=CARTESIAN_POINT('',(-0.00685,8.67361737988404E-19,0.00015));
#1291=CARTESIAN_POINT('',(-0.00685,-0.01133,0.00015));
#1292=CARTESIAN_POINT('',(-0.00685,-0.01133,0.00015));
#1293=CARTESIAN_POINT('',(-0.00705,-0.01133,0.00015));
#1294=CARTESIAN_POINT('',(-0.00705,8.59719784349739E-19,0.00015));
#1295=CARTESIAN_POINT('',(-0.00685,-0.01133,0.00015));
#1296=CARTESIAN_POINT('',(-0.00685,-0.01133,0.00015));
#1297=CARTESIAN_POINT('',(-0.00705,-0.01133,0.00015));
#1298=CARTESIAN_POINT('',(-0.00685,8.67361737988404E-19,0.0015));
#1299=CARTESIAN_POINT('',(-0.00685,0.01115,0.0015));
#1300=CARTESIAN_POINT('',(-0.00685,0.01115,0.0015));
#1301=CARTESIAN_POINT('',(-0.00705,0.01115,0.0015));
#1302=CARTESIAN_POINT('',(-0.00685,8.67361737988404E-19,0.0015));
#1303=CARTESIAN_POINT('',(-0.00685,0.01133,0.0015));
#1304=CARTESIAN_POINT('',(-0.00685,0.01133,0.0015));
#1305=CARTESIAN_POINT('',(-0.00705,0.01133,0.0015));
#1306=CARTESIAN_POINT('',(-0.00705,8.59719784349739E-19,0.0015));
#1307=CARTESIAN_POINT('',(-0.00685,0.01133,0.00015));
#1308=CARTESIAN_POINT('',(-0.00685,0.01133,0.00015));
#1309=CARTESIAN_POINT('',(-0.00705,0.01133,0.00015));
#1310=CARTESIAN_POINT('',(-0.00705,8.59719784349739E-19,0.00015));
#1311=CARTESIAN_POINT('',(-0.00705,-1.68887175414482E-18,0.0015));
#1312=CARTESIAN_POINT('',(-0.00685,8.67361737988404E-19,0.00015));
#1313=CARTESIAN_POINT('',(-0.00685,-1.71179761506082E-18,0.0015));
#1314=CARTESIAN_POINT('',(-0.00665,-0.01115,0.0015));
#1315=CARTESIAN_POINT('',(-0.00665,-0.01115,0.0015));
#1316=CARTESIAN_POINT('',(-0.00665,-0.01115,0.0015));
#1317=CARTESIAN_POINT('',(-0.00665,0.01115,0.0015));
#1318=CARTESIAN_POINT('',(-0.00665,0.01115,0.0017));
#1319=CARTESIAN_POINT('',(-0.00665,0.01115,0.0015));
#1320=CARTESIAN_POINT('',(-0.00665,0.01115,0.0015));
#1321=CARTESIAN_POINT('',(-0.00665,-1.7347234759768E-18,0.0015));
#1322=CARTESIAN_POINT('',(-0.00665,-1.7347234759768E-18,0.0015));
#1323=CARTESIAN_POINT('',(0.00685,0.,0.0015));
#1324=CARTESIAN_POINT('',(0.00685,0.,0.0015));
#1325=CARTESIAN_POINT('',(0.00685,0.01133,0.0015));
#1326=CARTESIAN_POINT('',(0.00685,0.01115,0.0015));
#1327=CARTESIAN_POINT('',(0.00685,0.01115,0.0015));
#1328=CARTESIAN_POINT('',(0.00705,0.01115,0.0015));
#1329=CARTESIAN_POINT('',(0.00705,7.64195363866433E-21,0.0015));
#1330=CARTESIAN_POINT('',(0.00705,0.01133,0.0015));
#1331=CARTESIAN_POINT('',(0.00685,0.01133,0.0015));
#1332=CARTESIAN_POINT('',(0.00685,0.,0.00015));
#1333=CARTESIAN_POINT('',(0.00685,-0.01133,0.00015));
#1334=CARTESIAN_POINT('',(0.00685,-0.01133,0.00015));
#1335=CARTESIAN_POINT('',(0.00705,-0.01133,0.00015));
#1336=CARTESIAN_POINT('',(0.00685,0.,0.00015));
#1337=CARTESIAN_POINT('',(0.00685,0.01133,0.00015));
#1338=CARTESIAN_POINT('',(0.00685,0.01133,0.00015));
#1339=CARTESIAN_POINT('',(0.00705,0.01133,0.00015));
#1340=CARTESIAN_POINT('',(0.00705,7.64195363866435E-21,0.00015));
#1341=CARTESIAN_POINT('',(0.00685,0.01133,0.00015));
#1342=CARTESIAN_POINT('',(0.00685,0.01133,0.00015));
#1343=CARTESIAN_POINT('',(0.00705,0.01133,0.00015));
#1344=CARTESIAN_POINT('',(0.00685,0.,0.0015));
#1345=CARTESIAN_POINT('',(0.00685,-0.01115,0.0015));
#1346=CARTESIAN_POINT('',(0.00685,-0.01115,0.0015));
#1347=CARTESIAN_POINT('',(0.00705,-0.01115,0.0015));
#1348=CARTESIAN_POINT('',(0.00685,0.,0.0015));
#1349=CARTESIAN_POINT('',(0.00685,-0.01133,0.0015));
#1350=CARTESIAN_POINT('',(0.00685,-0.01133,0.0015));
#1351=CARTESIAN_POINT('',(0.00705,-0.01133,0.0015));
#1352=CARTESIAN_POINT('',(0.00705,7.64195363866433E-21,0.0015));
#1353=CARTESIAN_POINT('',(0.00685,-0.01133,0.00015));
#1354=CARTESIAN_POINT('',(0.00685,-0.01133,0.00015));
#1355=CARTESIAN_POINT('',(0.00705,-0.01133,0.00015));
#1356=CARTESIAN_POINT('',(0.00705,7.64195363866435E-21,0.00015));
#1357=CARTESIAN_POINT('',(0.00705,1.52839072773287E-20,0.0015));
#1358=CARTESIAN_POINT('',(0.00685,0.,0.00015));
#1359=CARTESIAN_POINT('',(0.00685,7.64195363866435E-21,0.0015));
#1360=CARTESIAN_POINT('',(0.00665,-0.01115,0.0015));
#1361=CARTESIAN_POINT('',(0.00665,-0.01115,0.0015));
#1362=CARTESIAN_POINT('',(0.00665,-0.01115,0.0015));
#1363=CARTESIAN_POINT('',(0.00665,0.01115,0.0015));
#1364=CARTESIAN_POINT('',(0.00665,0.01115,0.0015));
#1365=CARTESIAN_POINT('',(0.00665,0.01115,0.0017));
#1366=CARTESIAN_POINT('',(0.00665,0.01115,0.0015));
#1367=CARTESIAN_POINT('',(0.00665,0.,0.0015));
#1368=CARTESIAN_POINT('',(0.00665,0.,0.0015));
#1369=CARTESIAN_POINT('',(0.00665,0.01115,0.0015));
#1370=CARTESIAN_POINT('',(0.00665,0.01115,0.0015));
#1371=CARTESIAN_POINT('',(0.00665,0.01115,0.0015));
#1372=CARTESIAN_POINT('',(-0.00665,0.01115,0.0015));
#1373=CARTESIAN_POINT('',(-0.00665,0.01115,0.0015));
#1374=CARTESIAN_POINT('',(-0.00665,0.01115,0.0015));
#1375=CARTESIAN_POINT('',(8.67361737988404E-19,0.01115,0.0015));
#1376=CARTESIAN_POINT('',(8.67361737988404E-19,0.01115,0.0015));
#1377=CARTESIAN_POINT('',(-0.003,-0.01155,0.00075));
#1378=CARTESIAN_POINT('',(-0.003,-0.01155,0.00075));
#1379=CARTESIAN_POINT('',(-0.003,0.01155,0.00075));
#1380=CARTESIAN_POINT('',(-0.003,0.01155,0.00075));
#1381=CARTESIAN_POINT('',(0.003,-0.01155,0.00075));
#1382=CARTESIAN_POINT('',(0.003,-0.01155,0.00075));
#1383=CARTESIAN_POINT('',(0.003,0.01155,0.00075));
#1384=MECHANICAL_DESIGN_GEOMETRIC_PRESENTATION_REPRESENTATION('',(#825),
#1385);
#1385=(
GEOMETRIC_REPRESENTATION_CONTEXT(3)
GLOBAL_UNCERTAINTY_ASSIGNED_CONTEXT((#1386))
GLOBAL_UNIT_ASSIGNED_CONTEXT((#1389,#1388,#1387))
REPRESENTATION_CONTEXT('Part 1','TOP_LEVEL_ASSEMBLY_PART')
);
#1386=UNCERTAINTY_MEASURE_WITH_UNIT(LENGTH_MEASURE(5.E-7),#1389,
'DISTANCE_ACCURACY_VALUE','Maximum Tolerance applied to model');
#1387=(
NAMED_UNIT(*)
SI_UNIT($,.STERADIAN.)
SOLID_ANGLE_UNIT()
);
#1388=(
NAMED_UNIT(*)
PLANE_ANGLE_UNIT()
SI_UNIT($,.RADIAN.)
);
#1389=(
LENGTH_UNIT()
NAMED_UNIT(*)
SI_UNIT($,.METRE.)
);
#1390=PRODUCT_DEFINITION_SHAPE('','',#1391);
#1391=PRODUCT_DEFINITION('','',#1393,#1392);
#1392=PRODUCT_DEFINITION_CONTEXT('',#1399,'design');
#1393=PRODUCT_DEFINITION_FORMATION_WITH_SPECIFIED_SOURCE('','',#1395,
 .NOT_KNOWN.);
#1394=PRODUCT_RELATED_PRODUCT_CATEGORY('','',(#1395));
#1395=PRODUCT('Part 1','Part 1','Part 1',(#1397));
#1396=PRODUCT_CATEGORY('','');
#1397=PRODUCT_CONTEXT('',#1399,'mechanical');
#1398=APPLICATION_PROTOCOL_DEFINITION('international standard',
'ap242_managed_model_based_3d_engineering',2020,#1399);
#1399=APPLICATION_CONTEXT('managed model based 3d engineering');
ENDSEC;
END-ISO-10303-21;
